<?xml version="1.0" standalone="no"?>
<!DOCTYPE svg PUBLIC "-//W3C//DTD SVG 1.1//EN" "http://www.w3.org/Graphics/SVG/1.1/DTD/svg11.dtd" >
<svg xmlns="http://www.w3.org/2000/svg" xmlns:xlink="http://www.w3.org/1999/xlink" version="1.1">
<metadata></metadata>
<defs>
<font id="franxurter_totallyfat" horiz-adv-x="1231" >
<font-face units-per-em="2048" ascent="1638" descent="-410" />
<missing-glyph horiz-adv-x="565" />
<glyph horiz-adv-x="0" />
<glyph unicode="&#xd;" horiz-adv-x="565" />
<glyph unicode=" "  horiz-adv-x="565" />
<glyph unicode="&#x09;" horiz-adv-x="565" />
<glyph unicode="&#xa0;" horiz-adv-x="565" />
<glyph unicode="!" horiz-adv-x="565" d="M56 215q0 93 66.5 159.5t159.5 66.5q94 0 160 -66.5t66 -159.5q0 -94 -66 -160t-160 -66q-93 0 -159.5 66t-66.5 160zM56 723v396q0 93 66.5 159.5t159.5 66.5q94 0 160 -66.5t66 -159.5v-396q0 -94 -66 -160t-160 -66q-93 0 -159.5 66t-66.5 160z" />
<glyph unicode="&#x22;" horiz-adv-x="1130" d="M56 893v226q0 93 66.5 159.5t159.5 66.5q94 0 160 -66.5t66 -159.5v-226q0 -94 -66 -160t-160 -66q-93 0 -159.5 66t-66.5 160zM622 893v226q0 93 66 159.5t160 66.5q93 0 159.5 -66.5t66.5 -159.5v-226q0 -94 -66.5 -160t-159.5 -66q-94 0 -160 66t-66 160z" />
<glyph unicode="#" horiz-adv-x="1468" d="M56 407q0 82 60.5 142.5t143.5 60.5h11v113h-11q-83 0 -143.5 60.5t-60.5 143.5q0 82 60.5 142.5t143.5 60.5h11v11q0 83 60.5 143.5t143.5 60.5q82 0 142.5 -60.5t60.5 -143.5v-11h113v11q0 83 60.5 143.5t142.5 60.5q83 0 143.5 -60.5t60.5 -143.5v-11h11 q83 0 143 -60.5t60 -142.5q0 -83 -60 -143.5t-143 -60.5h-11v-113h11q83 0 143 -60.5t60 -142.5q0 -83 -60 -143.5t-143 -60.5h-11v-11q0 -82 -60.5 -142.5t-143.5 -60.5q-82 0 -142.5 60.5t-60.5 142.5v11h-113v-11q0 -82 -60.5 -142.5t-142.5 -60.5q-83 0 -143.5 60.5 t-60.5 142.5v11h-11q-83 0 -143.5 60.5t-60.5 143.5zM678 610h113v113h-113v-113z" />
<glyph unicode="$" horiz-adv-x="1016" d="M45 249q0 93 66 159.5t160 66.5q86 0 129 -45.5t100.5 -48t66.5 28.5t-124 81.5t-254 132t-121 269.5q0 187 132 319q42 42 88 71v67q0 92 64.5 156.5t155.5 64.5q92 0 156.5 -64.5t64.5 -156.5v-43q45 -15 87 -39q133 -78 133 -172t-66 -160t-160 -66q-86 0 -117.5 39.5 t-78 42.5t-55.5 -28t102 -76.5t254.5 -126.5t143.5 -280q0 -188 -132 -320q-52 -52 -117 -84v-60q0 -89 -62.5 -151.5t-152.5 -62.5q-89 0 -151.5 62.5t-62.5 151.5v32q-89 20 -143 63q-106 83 -106 177z" />
<glyph unicode="%" horiz-adv-x="1559" d="M45 1006q0 140 99.5 239.5t239.5 99.5t239.5 -99.5t99.5 -239.5t-99.5 -239.5t-239.5 -99.5t-239.5 99.5t-99.5 239.5zM288 1006q0 -41 28 -68.5t68 -27.5q41 0 68.5 27.5t27.5 68.5q0 40 -27.5 68t-68.5 28q-40 0 -68 -28t-28 -68zM294.5 78.5q-9.5 45.5 16.5 85.5 l749 1130q26 39 71.5 48t85.5 -15q38 -26 48 -72t-16 -85l-750 -1130q-26 -40 -71.5 -49t-85.5 16q-38 26 -47.5 71.5zM836 328q0 140 99.5 239.5t239.5 99.5t239.5 -99.5t99.5 -239.5t-99.5 -239.5t-239.5 -99.5t-239.5 99.5t-99.5 239.5zM1079 328q0 -41 28 -68.5 t68 -27.5q41 0 68.5 27.5t27.5 68.5q0 40 -27.5 68t-68.5 28q-40 0 -68 -28t-28 -68z" />
<glyph unicode="&#x26;" horiz-adv-x="1152" d="M45 484q0 208 144 298q-78 87 -78 180q0 168 130 275.5t299 107.5q201 0 310 -86.5t109 -171.5q0 -84 -59 -137.5t-144 -53.5q-77 0 -105 35t-87 38t-67 -36t58 -57q142 -6 161 -155q-13 -159 -148 -158q-90 -12 -80 -79.5t84 -64t143.5 114.5t164.5 111q103 0 158.5 -44 t55.5 -147q0 -45 -31 -105q44 -59 44 -134q0 -94 -66 -160t-160 -66q-72 0 -128 39q-92 -39 -199 -39q-231 0 -370 144.5t-139 350.5z" />
<glyph unicode="'" horiz-adv-x="565" d="M56 893v226q0 93 66.5 159.5t159.5 66.5q94 0 160 -66.5t66 -159.5v-226q0 -94 -66 -160t-160 -66q-93 0 -159.5 66t-66.5 160z" />
<glyph unicode="(" horiz-adv-x="892" d="M56 667q0 394 199 649t367 255q93 0 159.5 -66.5t66.5 -159.5q0 -94 -66.5 -149t-103.5 -77q-170 -133 -170 -452q0 -320 170 -452q37 -23 103.5 -78t66.5 -148q0 -94 -66.5 -160t-159.5 -66q-168 0 -367 254.5t-199 649.5z" />
<glyph unicode=")" horiz-adv-x="892" d="M45 -11q0 93 66 148t104 78q169 132 169 452q0 319 -169 452q-38 22 -104 77t-66 149q0 93 66 159.5t160 66.5q167 0 366 -255t199 -649q0 -395 -199 -649.5t-366 -254.5q-94 0 -160 66t-66 160z" />
<glyph unicode="*" horiz-adv-x="903" d="M56 780q0 70 50 119q6 6 12 11q-6 4 -12 10q-50 50 -50 120t50 119.5t120 49.5q31 0 58 -10q8 55 48 96q50 50 120 50t120 -50q40 -41 48 -96q27 10 58 10q70 0 120 -49.5t50 -119.5t-50 -120q-6 -6 -12 -10q6 -5 12 -11q50 -49 50 -119t-50 -120t-120 -50q-31 0 -58 10 q-8 -55 -48 -96q-50 -49 -120 -49t-120 49q-40 41 -48 96q-27 -10 -58 -10q-70 0 -120 50t-50 120z" />
<glyph unicode="+" horiz-adv-x="1242" d="M56 667q0 93 66.5 159.5t159.5 66.5h114v113q0 93 66 159.5t160 66.5q93 0 159.5 -66.5t66.5 -159.5v-113h112q94 0 160 -66.5t66 -159.5q0 -94 -66 -160t-160 -66h-112v-113q0 -94 -66.5 -160t-159.5 -66q-94 0 -160 66t-66 160v113h-114q-93 0 -159.5 66t-66.5 160z " />
<glyph unicode="," horiz-adv-x="600" d="M88 144q-32 101 16 183q46 81 137 105.5t173 -22.5q81 -47 105.5 -138t-23.5 -173l-123 -213q-22 -36 -62 -47t-76 11q-36 20 -47 60.5t10 77.5l26 32q-104 23 -136 124z" />
<glyph unicode="-" horiz-adv-x="1016" d="M56 667q0 93 66.5 159.5t159.5 66.5h452q94 0 160 -66.5t66 -159.5q0 -94 -66 -160t-160 -66h-452q-93 0 -159.5 66t-66.5 160z" />
<glyph unicode="." horiz-adv-x="565" d="M56 215q0 93 66.5 159.5t159.5 66.5q94 0 160 -66.5t66 -159.5q0 -94 -66 -160t-160 -66q-93 0 -159.5 66t-66.5 160z" />
<glyph unicode="/" horiz-adv-x="1047" d="M73.5 148q-28.5 89 14.5 172l470 903q43 82 132.5 110.5t172.5 -14.5q83 -44 111 -133.5t-15 -171.5l-470 -903q-43 -83 -132 -111t-173 15q-82 44 -110.5 133z" />
<glyph unicode="0" horiz-adv-x="1220" d="M45 667q0 281 142 479.5t423 198.5q282 0 423.5 -198.5t141.5 -479.5q0 -282 -141.5 -480t-423.5 -198q-281 0 -423 198t-142 480zM497 667q0 -94 32.5 -160t80.5 -66q49 0 81 66t32 160q0 93 -32 159.5t-81 66.5q-48 0 -80.5 -66.5t-32.5 -159.5z" />
<glyph unicode="1" horiz-adv-x="779" d="M45 1107q0 94 66 160t160 66h226q94 0 160 -66t66 -160v-892q0 -94 -66 -160t-160 -66t-160 66t-66 160v666q-94 0 -160 66.5t-66 159.5z" />
<glyph unicode="2" horiz-adv-x="1084" d="M45 904q0 36 5 71q9 66 92 172q198 198 400 198t344 -113.5t142 -316.5q0 -202 -142 -309q-75 -75 -208 -154h136q93 0 159.5 -66t66.5 -160t-66.5 -160t-159.5 -66h-520q-95 1 -158 45q-75 57 -88.5 149.5t42.5 167.5q512 418 518 474.5t-66 56.5q-71 0 -80 -66 q-13 -43 -30 -82q-67 -67 -161 -67t-160 66t-66 160z" />
<glyph unicode="3" horiz-adv-x="1093" d="M45 296q0 103 72.5 175.5t175.5 72.5q95 0 141.5 -60.5t104 -64t67.5 64t-102 79.5q-147 10 -149 158q19 149 161 155q89 18 81 57t-67 36t-87 -38t-105 -35q-85 0 -144.5 53.5t-59.5 137.5q0 85 109.5 171.5t310.5 86.5q169 0 299 -107.5t130 -275.5q0 -93 -78 -180 q144 -90 144 -298q0 -206 -139 -350.5t-370 -144.5q-263 0 -379 102t-116 205z" />
<glyph unicode="4" horiz-adv-x="1276" d="M45 441q0 106 68 203l431 599q78 75 195 90h97q94 0 160 -66t66 -160v-463q60 0 115 -55t55 -148q0 -94 -55 -149t-115 -55q0 -116 -60.5 -182t-153.5 -66q-94 0 -154.5 66t-60.5 182h-362q-94 0 -160 49.5t-66 154.5zM497 633h147v215z" />
<glyph unicode="5" horiz-adv-x="1093" d="M45 296q0 103 72.5 175.5t175.5 72.5q95 0 141.5 -60.5t115 -58.5t78.5 81q-1 76 -105 76q-220 -8 -264 0q-93 16 -146.5 92.5t-36.5 168.5l38 302q15 82 78 134q53 54 142 54h498q93 0 148 -54.5t55 -137.5q0 -82 -55 -137t-148 -55h-313l-6 -51q287 4 392 -82 q144 -124 144 -332q0 -206 -139 -350.5t-370 -144.5q-263 0 -379 102t-116 205z" />
<glyph unicode="6" horiz-adv-x="1101" d="M65.5 367.5q-54.5 203.5 50.5 385.5l277 479q48 80 138.5 104.5t171.5 -22.5t105 -137.5t-23 -171.5l-58 -74q232 -52 303.5 -278.5t-33.5 -408.5t-309 -236.5t-386 51.5q-182 105 -236.5 308.5zM460 497q0 -40 27.5 -68t68.5 -28t68.5 28t27.5 68q0 41 -27.5 68.5 t-68.5 27.5t-68.5 -27.5t-27.5 -68.5z" />
<glyph unicode="7" horiz-adv-x="1124" d="M56 1107q0 94 66.5 160t159.5 66h562q55 2 107 -26q83 -44 111 -133t-14 -172l-471 -891q-43 -83 -132 -111t-172 15q-83 44 -111.5 133t14.5 172l296 561h-190q-93 0 -159.5 66.5t-66.5 159.5z" />
<glyph unicode="8" horiz-adv-x="1102" d="M45 441q0 187 171 319q-78 85 -78 223q0 140 100 251t313 111q214 0 314 -111t100 -251q0 -138 -78 -223q171 -132 171 -319q0 -188 -148 -320t-359 -132q-210 0 -358 132t-148 320zM458 446q0 -40 27.5 -68t68.5 -28q40 0 68 28t28 68q0 41 -28 68.5t-68 27.5 q-41 0 -68.5 -27.5t-27.5 -68.5zM469 910q0 -37 24.5 -61t60.5 -24t60 24t24 61q0 36 -24 60t-60 24t-60.5 -24t-24.5 -60z" />
<glyph unicode="9" horiz-adv-x="1101" d="M71 681q-71 226 34 408t309 237t386 -50t236 -309t-51 -386l-276 -478q-48 -82 -138 -106t-171 23t-105.5 137t23.5 172l57 74q-233 52 -304 278zM451 836q0 -40 27.5 -68t68.5 -28t68.5 28t27.5 68q0 41 -27.5 68.5t-68.5 27.5t-68.5 -27.5t-27.5 -68.5z" />
<glyph unicode=":" horiz-adv-x="565" d="M56 215q0 93 66.5 159.5t159.5 66.5q94 0 160 -66.5t66 -159.5q0 -94 -66 -160t-160 -66q-93 0 -159.5 66t-66.5 160zM56 780q0 93 66.5 159.5t159.5 66.5q94 0 160 -66.5t66 -159.5q0 -94 -66 -160t-160 -66q-93 0 -159.5 66t-66.5 160z" />
<glyph unicode=";" horiz-adv-x="600" d="M76 780q0 93 66 159.5t160 66.5t160 -66.5t66 -159.5q0 -94 -66 -160t-160 -66t-160 66t-66 160zM88 144q-32 101 16 183q46 81 137 105.5t173 -22.5q81 -47 105.5 -138t-23.5 -173l-123 -213q-22 -36 -62 -47t-76 11q-36 20 -47 60.5t10 77.5l26 32q-104 23 -136 124z " />
<glyph unicode="&#x3c;" horiz-adv-x="1259" d="M56 667q0 148 123 202l676 346q83 43 172 14.5t134 -110.5q42 -84 14 -173t-111 -132l-287 -147l287 -148q83 -43 111 -132.5t-14 -171.5q-45 -84 -134 -112t-172 16l-676 344q-123 56 -123 204z" />
<glyph unicode="=" horiz-adv-x="1242" d="M56 384q0 94 66.5 160t159.5 66h678q94 0 160 -66t66 -160t-66 -160t-160 -66h-678q-93 0 -159.5 66t-66.5 160zM56 949q0 94 66.5 160t159.5 66h678q94 0 160 -66t66 -160t-66 -160t-160 -66h-678q-93 0 -159.5 66t-66.5 160z" />
<glyph unicode="&#x3e;" horiz-adv-x="1259" d="M84.5 386.5q28.5 89.5 110.5 132.5l288 148l-288 147q-82 43 -110.5 132t14.5 173q45 82 134 110.5t172 -14.5l676 -346q122 -54 122 -202t-122 -204l-676 -344q-83 -44 -172 -16t-134 112q-43 82 -14.5 171.5z" />
<glyph unicode="?" horiz-adv-x="1039" d="M45 1062q0 94 117 188.5t358 94.5q210 0 342 -126.5t132 -314.5q0 -199 -128 -320t-335 -121q-94 0 -160 43.5t-66 148.5q0 95 66.5 144t147 49t82.5 53.5t-89.5 50.5t-123 -59.5t-117.5 -56.5q-94 0 -160 66t-66 160zM305 215q0 93 66 159.5t160 66.5t160 -66.5 t66 -159.5q0 -94 -66 -160t-160 -66t-160 66t-66 160z" />
<glyph unicode="@" horiz-adv-x="1446" d="M45 667q0 281 198.5 479.5t479.5 198.5q282 0 480 -198.5t198 -479.5q-1 -152 -80.5 -234.5t-199.5 -82.5q-102 0 -176 60q-94 -82 -222 -82q-140 0 -239.5 99.5t-99.5 239.5t99.5 239.5t239.5 99.5t239.5 -99.5t99.5 -239.5q0 -53 16.5 -72.5t42.5 -19.5t39.5 19.5 t14.5 72.5q0 187 -132 319.5t-320 132.5q-187 0 -319.5 -132.5t-132.5 -319.5q0 -188 132.5 -320t319.5 -132q188 0 303 75.5t177 -21.5q63 -98 -67.5 -189t-412.5 -91q-281 0 -479.5 198t-198.5 480zM667 667q0 -24 16 -40.5t40 -16.5t40.5 16.5t16.5 40.5q0 23 -16.5 39.5 t-40.5 16.5t-40 -16.5t-16 -39.5z" />
<glyph unicode="A" horiz-adv-x="1454" d="M51 148q-11 35 -11 69q0 52 26 103l458 903q56 122 203 122q148 0 203 -122l458 -903q27 -50 27 -103q1 -34 -11 -69q-28 -89 -112 -133q-50 -26 -103 -26q-34 0 -69 11q-89 28 -132 111l-43 104h-435l-43 -104q-43 -83 -133 -111q-35 -11 -69 -11q-53 0 -103 26 q-83 44 -111 133zM651 554h152l-76 183z" />
<glyph unicode="B" horiz-adv-x="1118" d="M56 226v881q0 94 66.5 160t159.5 66h317q151 0 257.5 -106t106.5 -257q0 -98 -44 -177q155 -153 155 -341t-132.5 -320t-319.5 -132h-340q-93 0 -159.5 66t-66.5 160zM508 362h46q37 0 63.5 26.5t26.5 63.5t-26.5 63.5t-63.5 26.5h-46v-180zM508 836h34q26 0 47 21t21 47 t-21 47t-47 21h-34v-136z" />
<glyph unicode="C" horiz-adv-x="1355" d="M45 667q0 281 199 479.5t479 198.5q282 0 480 -198q83 -84 92 -149q5 -24 5 -49q0 -94 -66.5 -160t-159.5 -66q-94 0 -160 67q-18 17 -31 37q-66 66 -160 66t-160 -66.5t-66 -159.5q0 -94 66 -160t160 -66t160 65q13 21 31 39q66 65 160 65q93 0 159.5 -66t66.5 -160 q0 -25 -5 -48q-9 -66 -92 -148q-198 -199 -480 -199q-280 0 -479 198t-199 480z" />
<glyph unicode="D" horiz-adv-x="1344" d="M56 226v881q0 94 66.5 160t159.5 66h340q281 0 479.5 -198t198.5 -468t-198.5 -468.5t-479.5 -198.5h-340q-93 0 -159.5 66t-66.5 160zM508 452h114q93 0 159.5 60.5t66.5 154.5q0 93 -66.5 153.5t-159.5 60.5h-114v-429z" />
<glyph unicode="E" horiz-adv-x="1005" d="M56 226v881q0 94 66.5 160t159.5 66h452q94 0 160 -66t66 -160q0 -93 -66 -159.5t-160 -66.5h-226v-56h170q66 0 106.5 -46.5t40.5 -111.5q0 -66 -40.5 -112.5t-106.5 -46.5h-170v-56h226q94 0 160 -66t66 -160t-66 -160t-160 -66h-452q-93 0 -159.5 66t-66.5 160z" />
<glyph unicode="F" horiz-adv-x="1005" d="M56 215v892q0 94 66.5 160t159.5 66h452q94 0 160 -66t66 -160q0 -93 -66 -159.5t-160 -66.5h-226v-56h170q77 0 123.5 -46.5t46.5 -123.5q0 -76 -46.5 -122.5t-123.5 -46.5h-170v-271q0 -94 -66 -160t-160 -66q-93 0 -159.5 66t-66.5 160z" />
<glyph unicode="G" horiz-adv-x="1355" d="M45 667q0 281 199 479.5t479 198.5q282 0 413 -119q82 -72 96 -164q0 -94 -43.5 -148.5t-137.5 -54.5t-159 33q-75 35 -169 35t-160 -72t-66 -188q0 -117 66 -188.5t160 -71.5t162 43v36h-94q-71 0 -120 49t-49 120q0 72 49 121t120 49h339q71 0 120.5 -49t49.5 -121 v-271q-14 -114 -97 -196q-198 -199 -480 -199q-280 0 -479 198t-199 480z" />
<glyph unicode="H" horiz-adv-x="1299" d="M56 215v904q0 93 66.5 159.5t159.5 66.5q94 0 160 -66.5t66 -159.5v-238h283v238q0 93 66 159.5t160 66.5t160 -66.5t66 -159.5v-904q0 -94 -66 -160t-160 -66t-160 66t-66 160v237h-283v-237q0 -94 -66 -160t-160 -66q-93 0 -159.5 66t-66.5 160z" />
<glyph unicode="I" horiz-adv-x="565" d="M56 215v904q0 93 66.5 159.5t159.5 66.5q94 0 160 -66.5t66 -159.5v-904q0 -94 -66 -160t-160 -66q-93 0 -159.5 66t-66.5 160z" />
<glyph unicode="J" d="M45 554q0 93 66 159.5t160 66.5t160 -66.5t66 -159.5q10 -113 113 -113q102 0 113 113v565q0 93 66 159.5t160 66.5t160 -66.5t66 -159.5v-565q0 -234 -165.5 -399.5t-399.5 -165.5t-399.5 165.5t-165.5 399.5z" />
<glyph unicode="K" horiz-adv-x="1220" d="M56 215v904q0 93 66.5 159.5t159.5 66.5q94 0 160 -66.5t66 -159.5v-152l216 287q56 75 148 88q18 2 35 2q72 0 134 -44q74 -58 87 -150q2 -17 2 -34q0 -72 -45 -133l-209 -279l264 -354q46 -60 46 -133q0 -17 -2 -34q-13 -93 -88 -149q-61 -44 -134 -44q-16 0 -34 2 q-92 13 -148 87l-272 359v-223q0 -94 -66 -160t-160 -66q-93 0 -159.5 66t-66.5 160z" />
<glyph unicode="L" horiz-adv-x="1005" d="M56 226v893q0 93 66.5 159.5t159.5 66.5q94 0 160 -66.5t66 -159.5v-667h226q94 0 160 -66t66 -160t-66 -160t-160 -66h-452q-93 0 -159.5 66t-66.5 160z" />
<glyph unicode="M" horiz-adv-x="1756" d="M55 293l222 921q45 131 206 131q160 0 205 -131l190 -563l190 563q45 131 206 131q160 0 205 -131l223 -921q14 -39 14 -77q0 -49 -22 -96q-40 -85 -128 -117q-39 -14 -78 -14q-48 -1 -94 21q-84 40 -117 128l-60 375l-133 -393q-68 -131 -206 -131t-206 131l-133 393 l-60 -375q-33 -88 -117 -128q-47 -22 -94 -21q-39 0 -78 14q-88 32 -128 117q-22 47 -21 95q0 39 14 78z" />
<glyph unicode="N" horiz-adv-x="1355" d="M56 215v904q0 93 66.5 159.5t159.5 66.5q94 0 161 -66l405 -462v302q0 93 66 159.5t160 66.5q93 0 159.5 -66.5t66.5 -159.5v-904q0 -94 -66.5 -160t-159.5 -66q-94 0 -160 66l-406 463v-303q0 -94 -66 -160t-160 -66q-93 0 -159.5 66t-66.5 160z" />
<glyph unicode="O" horiz-adv-x="1446" d="M45 667q0 281 198.5 479.5t479.5 198.5q282 0 480 -198.5t198 -479.5q0 -282 -198 -480t-480 -198q-281 0 -479.5 198t-198.5 480zM497 667q0 -94 66 -160t160 -66t160 66t66 160q0 93 -66 159.5t-160 66.5t-160 -66.5t-66 -159.5z" />
<glyph unicode="P" horiz-adv-x="1118" d="M56 215v892q0 94 66.5 160t159.5 66h340q187 0 319.5 -132t132.5 -320q0 -187 -132.5 -319.5t-319.5 -132.5h-114v-214q0 -94 -66 -160t-160 -66q-93 0 -159.5 66t-66.5 160zM508 791h46q37 0 63.5 26.5t26.5 63.5q0 38 -26.5 64.5t-63.5 26.5h-46v-181z" />
<glyph unicode="Q" horiz-adv-x="1446" d="M45 667q0 281 198.5 479.5t479.5 198.5q282 0 480 -198.5t198 -479.5q0 -161 -64 -294q64 -66 64 -158q0 -94 -66 -160t-160 -66q-92 0 -158 64q-133 -64 -294 -64q-281 0 -479.5 198t-198.5 480zM497 667q0 -94 66 -160t160 -66t160 66t66 160q0 93 -66 159.5t-160 66.5 t-160 -66.5t-66 -159.5z" />
<glyph unicode="R" horiz-adv-x="1130" d="M56 215v892q0 94 66.5 160t159.5 66h340q187 0 319.5 -132t132.5 -320q0 -187 -133 -319q-14 -15 -29 -28l138 -184q45 -60 45 -133q0 -17 -2 -34q-13 -93 -87 -149q-61 -44 -134 -44q-16 0 -34 2q-92 13 -149 87l-181 315v-179q0 -94 -66 -160t-160 -66q-93 0 -159.5 66 t-66.5 160zM508 791h46q37 0 63.5 26.5t26.5 63.5q0 38 -26.5 64.5t-63.5 26.5h-46v-181z" />
<glyph unicode="S" horiz-adv-x="1016" d="M45 249q0 93 66 159.5t160 66.5q86 0 129 -45q42 -46 100 -48q4 0 9 -1q50 0 58 29q1 2 1 4q0 30 -125 78q-133 50 -254 131.5t-121 269.5q0 187 132 319.5t308 132.5q173 0 307 -77.5t134 -171.5t-66 -160t-160 -66q-86 0 -117.5 39.5t-77.5 42.5h-8q-39 0 -48 -28 q-1 -2 -1 -5q0 -29 103 -71q111 -46 254.5 -127t143.5 -280q0 -188 -132.5 -320t-342.5 -132q-240 0 -346 83t-106 177z" />
<glyph unicode="T" horiz-adv-x="1220" d="M45 1107q0 94 66 160t160 66h678q94 0 160 -66t66 -160q0 -93 -66 -159.5t-160 -66.5h-113v-666q0 -94 -66 -160t-160 -66t-160 66t-66 160v666h-113q-94 0 -160 66.5t-66 159.5z" />
<glyph unicode="U" horiz-adv-x="1299" d="M56 554v565q0 93 66.5 159.5t159.5 66.5q94 0 160 -66.5t66 -159.5v-543q0 -60 33.5 -97.5t108.5 -37.5q73 0 107 37.5t34 97.5v543q0 93 66 159.5t160 66.5t160 -66.5t66 -159.5v-565q0 -234 -165.5 -399.5t-427.5 -165.5t-428 165.5t-166 399.5z" />
<glyph unicode="V" horiz-adv-x="1454" d="M51 1186q28 90 111 133q50 26 102 26q34 1 70 -11q90 -28 133 -111l260 -513l261 513q43 83 132 111q35 11 70 11q52 0 102 -26q84 -43 112 -133q11 -35 11 -70q0 -53 -27 -102l-458 -903q-55 -122 -203 -122q-147 0 -203 122l-458 903q-26 50 -26 102q0 35 11 70z" />
<glyph unicode="W" horiz-adv-x="1846" d="M55 1041q-14 39 -14 78q-1 49 21 95q40 84 128 116q40 15 79 15q47 1 93 -21q84 -40 117 -128l117 -319l122 337q67 131 205 131t206 -131l122 -337l116 319q33 88 117 128q46 22 93 21q40 0 80 -15q87 -32 127 -116q22 -47 22 -95q0 -39 -14 -78l-335 -921 q-46 -131 -206 -131q-161 0 -206 131l-122 337l-122 -337q-45 -131 -205 -131q-161 0 -206 131z" />
<glyph unicode="X" horiz-adv-x="1275" d="M48 183q-3 18 -3 35q0 72 45 132l266 354l-210 279q-46 61 -46 134q0 17 2 33q13 92 89 150q61 44 133 44q16 0 34 -2q92 -13 149 -88l131 -175l132 175q56 75 148 88q18 2 34 2q72 0 134 -44q76 -58 88 -150q2 -17 2 -33q0 -73 -46 -134l-209 -279l264 -354 q46 -60 46 -133q0 -17 -2 -34q-13 -93 -88 -149q-61 -44 -133 -44q-17 0 -35 2q-93 13 -148 87l-187 249l-186 -249q-56 -74 -149 -87q-18 -2 -35 -2q-72 0 -132 44q-74 56 -88 149z" />
<glyph unicode="Y" horiz-adv-x="1333" d="M45 1118.5q0 93.5 67 159.5q65 67 159 67t161 -67l235 -292l236 292q65 67 159 67t160 -67q66 -66 66 -159.5t-66 -160.5l-329 -385v-358q0 -94 -66.5 -160t-159.5 -66q-94 0 -160 66t-66 160v359l-329 384q-67 67 -67 160.5z" />
<glyph unicode="Z" horiz-adv-x="1254" d="M58 194q-3 18 -2 35q0 72 46 133l408 519h-205q-94 0 -160 66.5t-66 159.5q0 94 66 160t160 66h633q106 -1 159 -45q75 -56 88 -149q2 -17 2 -34q0 -73 -46 -133l-407 -520h249q94 0 160 -66t66 -160t-66 -160t-160 -66h-678q-95 1 -158 45q-75 57 -89 149z" />
<glyph unicode="[" horiz-adv-x="779" d="M56 0v1333q0 94 66.5 160t159.5 66h226q94 0 160 -66t66 -160q0 -93 -66 -159.5t-160 -66.5v-881q94 0 160 -66t66 -160t-66 -160t-160 -66h-226q-93 0 -159.5 66t-66.5 160z" />
<glyph unicode="\" horiz-adv-x="1047" d="M73.5 1185.5q28.5 89.5 110.5 133.5q84 43 173 14.5t132 -110.5l470 -903q43 -83 15 -172t-111 -133q-83 -43 -172.5 -15t-132.5 111l-470 903q-43 82 -14.5 171.5z" />
<glyph unicode="]" horiz-adv-x="779" d="M45 0q0 94 66 160t160 66v881q-94 0 -160 66.5t-66 159.5q0 94 66 160t160 66h226q94 0 160 -66t66 -160v-1333q0 -94 -66 -160t-160 -66h-226q-94 0 -160 66t-66 160z" />
<glyph unicode="^" horiz-adv-x="1109" d="M56 1072q0 93 67 160l271 272q66 67 160 67h2q94 0 159 -67l271 -272q67 -67 67 -160t-67 -160q-65 -67 -159 -67t-160 67l-112 112l-112 -112q-67 -67 -160.5 -67t-159.5 67q-67 67 -67 160z" />
<glyph unicode="_" horiz-adv-x="903" d="M0 -113q0 49 32 81t81 32h678q49 0 81 -32t32 -81t-32 -81t-81 -32h-678q-49 0 -81 32t-32 81z" />
<glyph unicode="`" horiz-adv-x="762" d="M113 1397q0 81 57 138t138 57t138 -57t130.5 -151t73.5 -134t-29 -68.5t-68 -28.5q-41 0 -183.5 24t-199.5 81t-57 139z" />
<glyph unicode="a" d="M45 554q0 235 165.5 400t399.5 165q135 0 245 -53q56 53 133 53q78 0 132.5 -55t54.5 -134v-753q0 -78 -54.5 -133t-132.5 -55q-77 0 -133 54q-110 -54 -245 -54q-234 0 -399.5 165.5t-165.5 399.5zM421 554q0 -78 55.5 -133.5t133.5 -55.5t133.5 55.5t55.5 133.5 t-55.5 133t-133.5 55t-133.5 -55t-55.5 -133z" />
<glyph unicode="b" d="M56 177v1002q0 79 55.5 133.5t133.5 54.5t133 -54.5t55 -133.5v-91q88 31 189 31q235 0 399.5 -165t164.5 -400q0 -234 -164.5 -399.5t-399.5 -165.5q-134 0 -246 54q-54 -54 -131 -54q-78 0 -133.5 55t-55.5 133zM433 554q0 -78 55.5 -133.5t133.5 -55.5 q77 0 132.5 55.5t55.5 133.5t-55.5 133t-132.5 55q-78 0 -133.5 -55t-55.5 -133z" />
<glyph unicode="c" horiz-adv-x="1130" d="M45 554q0 235 165.5 400t399.5 165q235 0 400 -165q69 -69 77 -125q3 -19 3 -40q0 -78 -54.5 -133t-133.5 -55q-78 0 -132 56q-15 13 -26 30q-56 55 -134 55t-133.5 -55t-55.5 -133t55.5 -133.5t133.5 -55.5t134 55q11 17 26 32q54 54 132 54q79 0 133.5 -54.5 t54.5 -132.5q0 -22 -3 -41q-8 -54 -77 -123q-165 -166 -400 -166q-234 0 -399.5 165.5t-165.5 399.5z" />
<glyph unicode="d" d="M45 554q0 235 165.5 400t399.5 165q101 0 189 -31v91q0 79 55.5 133.5t133.5 54.5t132.5 -54.5t54.5 -133.5v-1002q0 -78 -54.5 -133t-132.5 -55q-77 0 -133 54q-110 -54 -245 -54q-234 0 -399.5 165.5t-165.5 399.5zM421 554q0 -78 55.5 -133.5t133.5 -55.5t133.5 55.5 t55.5 133.5t-55.5 133t-133.5 55t-133.5 -55t-55.5 -133z" />
<glyph unicode="e" horiz-adv-x="1130" d="M45 554q0 235 165.5 400t399.5 165q235 0 389 -120q77 -77 77 -152v-6v-8q0 -79 -57 -118l-452 -345q21 -5 43 -5q78 0 146 53.5t146 53.5q79 0 133.5 -54.5t54.5 -132.5q0 -22 -3 -41q-8 -54 -77 -123q-165 -132 -400 -132q-234 0 -399.5 165.5t-165.5 399.5zM421 542 l256 185q-33 15 -67 15q-78 0 -133.5 -55t-55.5 -133v-12z" />
<glyph unicode="f" horiz-adv-x="858" d="M34 817q0 78 55.5 133.5t133.5 55.5h18v37q0 156 110 277.5t285 121.5q201 0 288.5 -80.5t87.5 -159.5q0 -78 -54.5 -132.5t-132.5 -54.5q-72 0 -102 26t-61 28.5t-44 -26.5v-37h18q79 0 134 -55.5t55 -133.5t-55 -133.5t-134 -55.5h-18v-451q0 -78 -55.5 -133 t-133.5 -55t-133 55t-55 133v451h-18q-78 0 -133.5 55.5t-55.5 133.5z" />
<glyph unicode="g" d="M45 554q0 235 165.5 400t399.5 165q135 0 245 -53q56 53 133 53q78 0 132.5 -55t54.5 -134v-888q0 -234 -188 -371.5t-411 -137.5q-222 0 -411 110q-92 69 -103 164q0 78 55.5 132.5t133.5 54.5t162.5 -42t162.5 -42t151 27q61 22 70 81q-87 -29 -187 -29 q-234 0 -399.5 165.5t-165.5 399.5zM421 554q0 -78 55.5 -133.5t133.5 -55.5t133.5 55.5t55.5 133.5t-55.5 133t-133.5 55t-133.5 -55t-55.5 -133z" />
<glyph unicode="h" horiz-adv-x="1101" d="M56 177v1002q0 79 55.5 133.5t133.5 54.5t133 -54.5t55 -133.5v-72q56 12 118 12q219 0 356.5 -138t137.5 -334v-470q0 -78 -54.5 -133t-133.5 -55q-78 0 -133 55t-55 133v452q0 50 -28.5 81.5t-89.5 31.5q-62 0 -90 -31.5t-28 -81.5v-452q0 -78 -55 -133t-133 -55 t-133.5 55t-55.5 133z" />
<glyph unicode="i" horiz-adv-x="489" d="M56 177v753q0 79 55.5 134t133.5 55t133 -55t55 -134v-753q0 -78 -55 -133t-133 -55t-133.5 55t-55.5 133zM56 1383q0 78 55.5 133t133.5 55q77 0 132.5 -55t55.5 -133t-55.5 -133.5t-132.5 -55.5q-78 0 -133.5 55.5t-55.5 133.5z" />
<glyph unicode="j" horiz-adv-x="489" d="M-226 -276q0 78 55 134q56 55 133 55q84 0 94 95v922q0 79 55 134t133 55q79 0 134 -55t55 -134v-922q0 -196 -138 -333q-138 -138 -332 -138q-78 0 -133.5 54.5t-55.5 132.5zM56 1383q0 78 55 133t133 55t133.5 -55t55.5 -133t-55.5 -133.5t-133.5 -55.5t-133 55.5 t-55 133.5z" />
<glyph unicode="k" horiz-adv-x="1030" d="M56 177v1002q0 79 55.5 133.5t133.5 54.5t133 -54.5t55 -133.5v-374l181 238q44 61 122 73q15 2 30 3q60 0 111 -38q63 -47 73 -125q2 -14 1 -27q0 -61 -38 -112l-174 -232l220 -295q39 -50 39 -111q0 -15 -2 -29q-11 -78 -73 -124q-51 -36 -112 -36q-15 0 -29 2 q-78 10 -123 72l-226 300v-187q0 -78 -55 -133t-133 -55t-133.5 55t-55.5 133z" />
<glyph unicode="l" horiz-adv-x="489" d="M56 177v1002q0 79 55.5 133.5t133.5 54.5t133 -54.5t55 -133.5v-1002q0 -78 -55 -133t-133 -55t-133.5 55t-55.5 133z" />
<glyph unicode="m" horiz-adv-x="1714" d="M56 177v470q0 196 138 334t357 138q181 0 307 -94q125 94 306 94q218 0 356 -138t138 -334v-470q0 -78 -55 -133t-134 -55q-78 0 -133 55t-55 133v452q0 50 -28 81.5t-89 31.5q-62 0 -90.5 -31.5t-28.5 -81.5v-452q0 -78 -54.5 -133t-133.5 -55q-77 0 -132.5 55 t-55.5 133v452q0 50 -28.5 81.5t-89.5 31.5q-62 0 -90 -31.5t-28 -81.5v-452q0 -78 -55 -133t-133 -55t-133.5 55t-55.5 133z" />
<glyph unicode="n" horiz-adv-x="1101" d="M56 177v753q0 79 55.5 134t133.5 55q61 0 109 -34q89 34 197 34q219 0 356.5 -138t137.5 -334v-470q0 -78 -54.5 -133t-133.5 -55q-78 0 -133 55t-55 133v452q0 50 -28.5 81.5t-89.5 31.5q-62 0 -90 -31.5t-28 -81.5v-452q0 -78 -55 -133t-133 -55t-133.5 55t-55.5 133z " />
<glyph unicode="o" horiz-adv-x="1220" d="M45 554q0 235 165.5 400t399.5 165q235 0 400 -165t165 -400q0 -234 -165 -399.5t-400 -165.5q-234 0 -399.5 165.5t-165.5 399.5zM421 554q0 -78 55.5 -133.5t133.5 -55.5t133.5 55.5t55.5 133.5t-55.5 133t-133.5 55t-133.5 -55t-55.5 -133z" />
<glyph unicode="p" d="M56 -162v1092q0 79 55.5 134t133.5 55q77 0 132 -55q111 55 245 55q235 0 399.5 -165t164.5 -400q0 -234 -164.5 -399.5t-399.5 -165.5q-101 0 -189 30v-181q0 -78 -55 -133t-133 -55t-133.5 55t-55.5 133zM433 554q0 -78 55.5 -133.5t133.5 -55.5q77 0 132.5 55.5 t55.5 133.5t-55.5 133t-132.5 55q-78 0 -133.5 -55t-55.5 -133z" />
<glyph unicode="q" d="M45 554q0 235 165.5 400t399.5 165q135 0 245 -53q56 53 133 53q78 0 132.5 -55t54.5 -134v-1092q0 -78 -54.5 -133t-132.5 -55t-133.5 55t-55.5 133v181q-88 -30 -189 -30q-234 0 -399.5 165.5t-165.5 399.5zM421 554q0 -78 55.5 -133.5t133.5 -55.5t133.5 55.5 t55.5 133.5t-55.5 133t-133.5 55t-133.5 -55t-55.5 -133z" />
<glyph unicode="r" horiz-adv-x="897" d="M56 177v753q0 79 55.5 134t133.5 55t134 -55q17 -18 29 -38q29 29 81 60q69 31 132 31q32 0 63 -8q91 -24 139 -106q30 -53 30 -108q-1 -29 -9 -59q-24 -86 -105 -131q-48 -22 -94 -22q-52 0 -100 29q-45 27 -73 27t-39 -27v-535q0 -78 -55 -133t-133 -55t-133.5 55 t-55.5 133z" />
<glyph unicode="s" horiz-adv-x="918" d="M45 206q0 78 55.5 132.5t133.5 54.5q71 0 106 -37q36 -38 112 -40h14q72 0 71 26q1 26 -131 66q-140 42 -241 109.5t-101 224.5q0 156 110.5 266.5t285.5 110.5q172 0 283.5 -64.5t111.5 -142.5t-55 -133.5t-133 -55.5q-71 0 -98 33q-27 34 -93 36h-12q-64 0 -63 -27 q0 -25 113 -61q121 -38 240 -105.5t119 -233.5q0 -156 -110 -266t-313 -110q-229 0 -317 69.5t-88 147.5z" />
<glyph unicode="t" horiz-adv-x="858" d="M34 930q0 78 55.5 133.5t133.5 55.5h18v37q0 79 55 134t133 55t133.5 -55t55.5 -134v-37h18q79 0 134 -55.5t55 -133.5t-55 -133.5t-134 -55.5h-18v-564q0 -78 -55.5 -133t-133.5 -55t-133 55t-55 133v564h-18q-78 0 -133.5 55.5t-55.5 133.5z" />
<glyph unicode="u" horiz-adv-x="1101" d="M56 460v470q0 79 55.5 134t133.5 55t133 -55t55 -134v-452q0 -50 28 -81.5t90 -31.5q61 0 89.5 31.5t28.5 81.5v452q0 79 55 134t133 55q79 0 133.5 -55t54.5 -134v-470q0 -196 -137.5 -333.5t-356.5 -137.5t-357 137.5t-138 333.5z" />
<glyph unicode="v" horiz-adv-x="1226" d="M50 986q24 74 92 111q42 21 85 21q29 0 59 -9q74 -23 111 -92l215 -427l219 427q35 69 109 92q30 9 59 9q44 0 85 -21q70 -37 93 -111q9 -29 9 -57q0 -44 -22 -86l-382 -753q-46 -101 -170 -101q-122 0 -168 101l-382 753q-22 42 -22 85q1 29 10 58z" />
<glyph unicode="w" horiz-adv-x="1552" d="M53 866q-12 33 -12 65q0 41 18 79q33 70 106 96q33 12 66 12q39 0 78 -18q71 -32 98 -106l97 -265l102 280q56 110 170 110q116 0 172 -110l102 -280l97 265q27 74 97 106q39 18 78 18q33 0 66 -12q73 -26 106 -96q18 -39 18 -80q0 -32 -11 -64l-279 -768 q-39 -109 -172 -109q-134 0 -172 109l-102 281l-101 -281q-38 -109 -171 -109q-134 0 -172 109z" />
<glyph unicode="x" horiz-adv-x="1078" d="M48 150q-2 15 -3 30q0 60 39 110l221 294l-175 233q-39 50 -39 111q0 14 2 28q11 78 74 125q50 37 110 37q13 0 29 -2q78 -11 125 -73l109 -146l110 146q44 62 122 73q15 2 30 2q60 0 111 -37q62 -47 73 -125q2 -14 2 -28q0 -61 -39 -111l-174 -233l221 -294 q38 -51 38 -112q0 -14 -2 -28q-10 -78 -73 -124q-51 -37 -111 -37q-14 0 -30 2q-78 11 -123 73l-155 207l-156 -207q-46 -62 -124 -73q-15 -2 -29 -2q-60 0 -110 37q-61 46 -73 124z" />
<glyph unicode="y" horiz-adv-x="1339" d="M49 -212q0 78 54.5 132.5t132.5 54.5q72 0 91 -9t50 -11h1q33 0 91 120l-407 768q-22 42 -22 85q0 29 10 58q23 74 92 111q42 21 85 21q29 0 59 -9q74 -23 111 -92l272 -540l275 540q35 69 110 92q29 9 58 9q43 0 85 -21q70 -37 93 -111q9 -29 9 -57q0 -44 -22 -86 l-589 -1094q-122 -178 -320 -178q-167 0 -243 68.5t-76 148.5z" />
<glyph unicode="z" horiz-adv-x="1061" d="M58 162q-2 15 -2 29q0 60 39 110l338 431h-170q-78 0 -132.5 55t-54.5 133t54.5 132.5t132.5 54.5h526q88 -1 132 -37q62 -47 73 -124q2 -15 2 -29q0 -60 -38 -110l-338 -432h206q78 0 133 -54.5t55 -132.5t-55 -133t-133 -55h-563q-79 1 -131 37q-62 49 -74 125z" />
<glyph unicode="{" horiz-adv-x="1050" d="M45 667q0 93 55 148t115 55q45 0 56 136q0 234 165.5 399.5t343.5 165.5q93 0 159.5 -66.5t66.5 -159.5q0 -94 -66.5 -160t-159.5 -66q-46 0 -57 -113q0 -194 -112 -339q112 -146 112 -339q11 -113 57 -113q93 0 159.5 -66.5t66.5 -159.5q0 -94 -66.5 -160t-159.5 -66 q-178 0 -343.5 165.5t-165.5 399.5q-11 135 -56 135q-60 0 -115 55t-55 149z" />
<glyph unicode="|" horiz-adv-x="677" d="M113 -11v1356q0 93 66 159.5t160 66.5t160 -66.5t66 -159.5v-1356q0 -94 -66 -160t-160 -66t-160 66t-66 160z" />
<glyph unicode="}" horiz-adv-x="1050" d="M45 -11q0 93 66 159.5t160 66.5q45 0 57 113q0 193 112 339q-112 145 -112 339q-12 113 -57 113q-94 0 -160 66t-66 160q0 93 66 159.5t160 66.5q178 0 343.5 -165.5t165.5 -399.5q11 -136 56 -136q60 0 115 -55t55 -148q0 -94 -55 -149t-115 -55q-45 0 -56 -135 q0 -234 -165.5 -399.5t-343.5 -165.5q-94 0 -160 66t-66 160z" />
<glyph unicode="~" horiz-adv-x="1242" d="M56 622q0 93 55 159.5t140 111.5t178 45q94 0 217 -66q46 -23 88 -24q43 1 67 24q66 66 159 66q94 0 160 -66t66 -160t-54.5 -160t-139.5 -111t-178 -45q-94 0 -216 66q-47 23 -90 24q-42 -1 -65 -24q-67 -66 -161 -66q-93 0 -159.5 66t-66.5 160z" />
<glyph unicode="&#xa2;" horiz-adv-x="937" d="M45 667q0 187 134 319q62 64 137 97v92q0 70 50 120t120 50t119.5 -50t49.5 -120v-83q90 -33 162 -106q55 -55 61 -99q3 -15 3 -32q0 -63 -44 -107t-106 -44q-63 0 -107 44q-12 12 -44 29t-83 17t-89 -38t-38 -89t38 -89.5t89 -38.5t83 17t44 29q44 44 107 44 q62 0 106 -44t44 -107q0 -17 -3 -32q-6 -44 -61 -99q-72 -72 -162 -105v-84q0 -70 -49.5 -119.5t-119.5 -49.5t-120 49.5t-50 119.5v93q-75 33 -137 96q-134 132 -134 320z" />
<glyph unicode="&#xa3;" horiz-adv-x="1130" d="M45 644q0 46 34 80q27 27 65 32q-20 78 -20 182q0 146 137 276.5t338 130.5q202 0 337 -118t144 -184q5 -35 5 -71q0 -60 -66 -126t-160 -66t-141.5 56.5t-118.5 56.5q-83 0 -44 -125q1 -5 2 -11h144q46 0 79.5 -33.5t33.5 -79.5t-33.5 -79.5t-79.5 -33.5h-127 q-9 -37 -32 -79h317q94 0 160 -66t66 -160t-66 -160t-160 -66h-565q-94 0 -160 66t-66 160t44.5 150t66.5 143q1 5 2 12h-23q-46 0 -79.5 33.5t-33.5 79.5z" />
<glyph unicode="&#xa5;" horiz-adv-x="1333" d="M45 1118.5q0 93.5 67 159.5q65 67 159 67t161 -67l235 -292l236 292q65 67 159 67t160 -67q66 -66 66 -159.5t-66 -160.5l-191 -224h88q48 0 80.5 -32t32.5 -80q0 -49 -32.5 -81.5t-80.5 -32.5h-226v-56h226q48 0 80.5 -32t32.5 -81t-32.5 -81t-80.5 -32h-226v-11 q0 -94 -66.5 -160t-159.5 -66q-94 0 -160 66t-66 160v11h-226q-49 0 -81 32t-32 81t32 81t81 32h226v56h-226q-49 0 -81 32.5t-32 81.5q0 48 32 80t81 32h88l-191 224q-67 67 -67 160.5z" />
<glyph unicode="&#xa8;" horiz-adv-x="988" d="M113 1345q0 71 49.5 120t119.5 49q71 0 120.5 -49t49.5 -120q0 -70 -49.5 -120t-120.5 -50q-70 0 -119.5 50t-49.5 120zM537 1345q0 71 49.5 120t119.5 49t120 -49t50 -120q0 -70 -50 -120t-120 -50t-119.5 50t-49.5 120z" />
<glyph unicode="&#xa9;" horiz-adv-x="1672" d="M45 667q0 327 231.5 559t559.5 232t559.5 -232t231.5 -559q0 -328 -231.5 -559.5t-559.5 -231.5t-559.5 231.5t-231.5 559.5zM158 667q0 -282 198.5 -480t479.5 -198q282 0 480 198t198 480q0 281 -198 479.5t-480 198.5q-281 0 -479.5 -198.5t-198.5 -479.5zM271 667 q0 235 165.5 400t399.5 165q235 0 400 -165q69 -70 76 -125q4 -19 4 -40q0 -78 -54.5 -133t-133.5 -55q-78 0 -134 54q-14 16 -24 32q-56 55 -134 55t-133.5 -55t-55.5 -133t55.5 -133.5t133.5 -55.5t134 55q10 16 24 32q56 54 134 54q79 0 133.5 -54.5t54.5 -132.5 q0 -22 -4 -41q-7 -54 -76 -124q-165 -165 -400 -165q-234 0 -399.5 165.5t-165.5 399.5z" />
<glyph unicode="&#xab;" horiz-adv-x="1438" d="M58 667q-2 54 26 105l244 337q43 83 132 111.5t173 -14.5q82 -44 110.5 -133.5t-14.5 -171.5l-190 -234l190 -234q43 -83 14.5 -172t-110.5 -133q-84 -43 -173 -15t-132 111l-244 338q-28 50 -26 105zM679 667q-1 54 26 105l244 337q43 83 132.5 111.5t172.5 -14.5 q83 -44 111 -133.5t-15 -171.5l-189 -234l189 -234q43 -83 15 -172t-111 -133q-83 -43 -172.5 -15t-132.5 111l-244 338q-27 50 -26 105z" />
<glyph unicode="&#xad;" horiz-adv-x="1016" d="M56 667q0 93 66.5 159.5t159.5 66.5h452q94 0 160 -66.5t66 -159.5q0 -94 -66 -160t-160 -66h-452q-93 0 -159.5 66t-66.5 160z" />
<glyph unicode="&#xae;" horiz-adv-x="1672" d="M45 667q0 327 231.5 559t559.5 232t559.5 -232t231.5 -559q0 -328 -231.5 -559.5t-559.5 -231.5t-559.5 231.5t-231.5 559.5zM158 667q0 -282 198.5 -480t479.5 -198q282 0 480 198t198 480q0 281 -198 479.5t-480 198.5q-281 0 -479.5 -198.5t-198.5 -479.5zM416 290 v744q0 78 55.5 133.5t133.5 55.5h282q156 0 266 -110.5t110 -267.5q0 -156 -109 -265q-13 -13 -25 -23l115 -154q48 -62 36.5 -139.5t-73.5 -124.5q-62 -45 -139.5 -34.5t-123.5 72.5l-151 263v-150q0 -78 -55 -133t-133 -55t-133.5 55t-55.5 133zM793 771h38q31 0 53 22 t22 52q0 32 -22 54t-53 22h-38v-150z" />
<glyph unicode="&#xb4;" horiz-adv-x="762" d="M113 1250q0 40 73.5 134t130.5 151t137 57q82 0 139 -57t57 -138q0 -82 -57 -139t-199.5 -81t-183.5 -24q-39 0 -68 28.5t-29 68.5z" />
<glyph unicode="&#xb8;" horiz-adv-x="807" d="M113 -311q0 59 30.5 84.5t90.5 25.5q55 0 93.5 -18t78 -17t45.5 35q-1 33 -45 33t-77 -7q-89 -7 -109 38q-9 44 24 97l22 40h235l-15 -41q65 1 125 -37q84 -60 84 -158q0 -109 -81 -170t-214 -61q-153 0 -220 48t-67 108z" />
<glyph unicode="&#xbb;" horiz-adv-x="1438" d="M73.5 261q-28.5 89 14.5 172l190 234l-190 234q-43 82 -14.5 171.5t110.5 133.5q84 43 173 14.5t132 -111.5l244 -337q27 -51 26 -105q1 -55 -26 -105l-244 -338q-43 -83 -132 -111t-173 15q-82 44 -110.5 133zM695 261q-28 89 15 172l189 234l-189 234q-43 82 -15 171.5 t111 133.5q83 43 172.5 14.5t132.5 -111.5l244 -337q27 -51 26 -105q1 -55 -26 -105l-244 -338q-43 -83 -132.5 -111t-172.5 15q-83 44 -111 133z" />
<glyph unicode="&#x2c6;" horiz-adv-x="903" d="M113 1304.5q0 63.5 45 109.5l184 185q46 45 109 45h2q63 0 109 -45l184 -185q45 -46 45 -109.5t-45 -108.5q-44 -46 -108 -46t-110 46l-76 76l-76 -76q-45 -46 -109 -46t-109 46q-45 45 -45 108.5z" />
<glyph unicode="&#x2da;" horiz-adv-x="677" d="M113 1345q0 93 66 159.5t160 66.5t160 -66.5t66 -159.5q0 -94 -66 -160t-160 -66t-160 66t-66 160zM282 1345q0 -24 16.5 -40.5t40.5 -16.5t40.5 16.5t16.5 40.5q0 23 -16.5 39.5t-40.5 16.5t-40.5 -16.5t-16.5 -39.5z" />
<glyph unicode="&#x2dc;" horiz-adv-x="926" d="M113 1315q0 58 34 99t86.5 69.5t111.5 28.5q57 0 133 -42q28 -13 55 -15q27 2 41 15q42 42 99 42q59 0 100 -41.5t41 -98.5q0 -59 -34 -99.5t-86.5 -69t-111.5 -28.5q-58 0 -133 41q-29 15 -56 16q-27 -1 -40 -16q-42 -41 -100 -41t-99 41.5t-41 98.5z" />
<glyph unicode="&#x401;" horiz-adv-x="1005" d="M56 226v881q0 94 66.5 160t159.5 66h452q94 0 160 -66t66 -160q0 -93 -66 -159.5t-160 -66.5h-226v-56h170q66 0 106.5 -46.5t40.5 -111.5q0 -66 -40.5 -112.5t-106.5 -46.5h-170v-56h226q94 0 160 -66t66 -160t-66 -160t-160 -66h-452q-93 0 -159.5 66t-66.5 160z M128 1571q0 71 49.5 120t119.5 49q71 0 120.5 -49t49.5 -120q0 -70 -49.5 -120t-120.5 -50q-70 0 -119.5 50t-49.5 120zM552 1571q0 71 49.5 120t119.5 49t120 -49t50 -120q0 -70 -50 -120t-120 -50t-119.5 50t-49.5 120z" />
<glyph unicode="&#x410;" horiz-adv-x="1454" d="M51 148q-28 89 15 172l458 903q56 122 203 122q148 0 203 -122l458 -903q44 -83 15.5 -172t-111.5 -133q-83 -43 -172 -15t-132 111l-43 104h-435l-43 -104q-43 -83 -132.5 -111t-172.5 15q-83 44 -111 133zM651 554h152l-76 183z" />
<glyph unicode="&#x411;" horiz-adv-x="1118" d="M56 226v881q0 94 66.5 160t159.5 66h532q93 0 148 -49t55 -143q0 -93 -55 -142.5t-148 -49.5h-306v-90h114q187 0 319.5 -121t132.5 -309q0 -187 -132.5 -308t-319.5 -121h-340q-93 0 -159.5 66t-66.5 160zM508 362h46q37 0 63.5 26.5t26.5 63.5t-26.5 63.5t-63.5 26.5 h-46v-180z" />
<glyph unicode="&#x412;" horiz-adv-x="1118" d="M56 226v881q0 94 66.5 160t159.5 66h317q151 0 257.5 -106t106.5 -257q0 -98 -44 -177q155 -153 155 -341t-132.5 -320t-319.5 -132h-340q-93 0 -159.5 66t-66.5 160zM508 362h46q37 0 63.5 26.5t26.5 63.5t-26.5 63.5t-63.5 26.5h-46v-180zM508 836h34q26 0 47 21t21 47 t-21 47t-47 21h-34v-136z" />
<glyph unicode="&#x413;" horiz-adv-x="1005" d="M56 215v892q0 94 66.5 160t159.5 66h452q94 0 160 -66t66 -160q0 -93 -66 -159.5t-160 -66.5h-226v-666q0 -94 -66 -160t-160 -66q-93 0 -159.5 66t-66.5 160z" />
<glyph unicode="&#x414;" horiz-adv-x="1717" d="M23 0v203q0 94 66 160t160 66l408 794q55 122 202 122q148 0 203 -122l407 -794q94 0 160 -66t66 -160v-203q0 -94 -66 -160t-160 -66t-160 66t-66 160h-768q0 -94 -66.5 -160t-159.5 -66q-94 0 -160 66t-66 160zM760 429h197l-98 195z" />
<glyph unicode="&#x415;" horiz-adv-x="1005" d="M56 226v881q0 94 66.5 160t159.5 66h452q94 0 160 -66t66 -160q0 -93 -66 -159.5t-160 -66.5h-226v-56h170q66 0 106.5 -46.5t40.5 -111.5q0 -66 -40.5 -112.5t-106.5 -46.5h-170v-56h226q94 0 160 -66t66 -160t-66 -160t-160 -66h-452q-93 0 -159.5 66t-66.5 160z" />
<glyph unicode="&#x416;" horiz-adv-x="1875" d="M37 183q-13 93 43 167l265 354l-209 279q-57 75 -44 167.5t88 149.5q75 55 168 42t148 -88l216 -287v152q0 93 66 159.5t160 66.5t160 -66.5t66 -159.5v-152l216 287q55 75 147.5 88t168.5 -42q75 -57 88 -149.5t-44 -167.5l-209 -279l265 -354q56 -74 43 -167t-87 -149 q-76 -55 -169 -42t-148 87l-271 359v-223q0 -94 -66 -160t-160 -66t-160 66t-66 160v223l-271 -359q-56 -74 -148.5 -87t-168.5 42q-74 56 -87 149z" />
<glyph unicode="&#x417;" horiz-adv-x="1093" d="M45 296q0 103 72.5 175.5t175.5 72.5q95 0 141.5 -60.5t104 -64t67.5 64t-102 79.5q-147 10 -149 158q19 149 161 155q89 18 81 57t-67 36t-87 -38t-105 -35q-85 0 -144.5 53.5t-59.5 137.5q0 85 109.5 171.5t310.5 86.5q169 0 299 -107.5t130 -275.5q0 -93 -78 -180 q144 -90 144 -298q0 -206 -139 -350.5t-370 -144.5q-263 0 -379 102t-116 205z" />
<glyph unicode="&#x418;" horiz-adv-x="1355" d="M56 215v904q0 93 66.5 159.5t159.5 66.5q94 0 160 -66.5t66 -159.5v-302l405 462q67 66 161 66q93 0 159.5 -66.5t66.5 -159.5v-904q0 -94 -66.5 -160t-159.5 -66q-94 0 -160 66t-66 160v303l-406 -463q-66 -66 -160 -66q-93 0 -159.5 66t-66.5 160z" />
<glyph unicode="&#x419;" horiz-adv-x="1355" d="M56 215v904q0 93 66.5 159.5t159.5 66.5q94 0 160 -66.5t66 -159.5v-302l405 462q67 66 161 66q93 0 159.5 -66.5t66.5 -159.5v-904q0 -94 -66.5 -160t-159.5 -66q-94 0 -160 66t-66 160v303l-406 -463q-66 -66 -160 -66q-93 0 -159.5 66t-66.5 160zM282 1684 q0 47 33.5 91t107.5 44q76 0 103 -38.5t39 -57.5q44 -51 112 -51q71 0 114 51q11 19 38.5 57.5t102.5 38.5t108 -44t33 -91q0 -84 -99 -183.5t-297 -99.5q-196 0 -295.5 99.5t-99.5 183.5z" />
<glyph unicode="&#x41a;" horiz-adv-x="1220" d="M56 215v904q0 93 66.5 159.5t159.5 66.5q94 0 160 -66.5t66 -159.5v-152l216 287q56 75 148.5 88t168.5 -42q74 -57 87 -149.5t-43 -167.5l-209 -279l264 -354q57 -74 44 -167t-88 -149q-76 -55 -168.5 -42t-147.5 87l-272 359v-223q0 -94 -66 -160t-160 -66 q-93 0 -159.5 66t-66.5 160z" />
<glyph unicode="&#x41b;" horiz-adv-x="1454" d="M51 148q-28 89 15 172l458 903q56 122 203 122q148 0 203 -122l458 -903q44 -83 15.5 -172t-111.5 -133q-83 -43 -172 -15t-132 111l-261 513l-260 -513q-43 -83 -132.5 -111t-172.5 15q-83 44 -111 133z" />
<glyph unicode="&#x41c;" horiz-adv-x="1756" d="M55 293l222 921q45 131 206 131q160 0 205 -131l190 -563l190 563q45 131 206 131q160 0 205 -131l223 -921q31 -88 -8.5 -173t-127.5 -117t-172.5 7.5t-116.5 127.5l-60 375l-133 -393q-68 -131 -206 -131t-206 131l-133 393l-60 -375q-32 -88 -116.5 -127.5 t-172.5 -7.5t-127.5 117t-7.5 173z" />
<glyph unicode="&#x41d;" horiz-adv-x="1299" d="M56 215v904q0 93 66.5 159.5t159.5 66.5q94 0 160 -66.5t66 -159.5v-238h283v238q0 93 66 159.5t160 66.5t160 -66.5t66 -159.5v-904q0 -94 -66 -160t-160 -66t-160 66t-66 160v237h-283v-237q0 -94 -66 -160t-160 -66q-93 0 -159.5 66t-66.5 160z" />
<glyph unicode="&#x41e;" horiz-adv-x="1446" d="M45 667q0 281 198.5 479.5t479.5 198.5q282 0 480 -198.5t198 -479.5q0 -282 -198 -480t-480 -198q-281 0 -479.5 198t-198.5 480zM497 667q0 -94 66 -160t160 -66t160 66t66 160q0 93 -66 159.5t-160 66.5t-160 -66.5t-66 -159.5z" />
<glyph unicode="&#x41f;" horiz-adv-x="1299" d="M56 215v892q0 94 66.5 160t159.5 66h735q94 0 160 -66t66 -160v-892q0 -94 -66 -160t-160 -66t-160 66t-66 160v689h-283v-689q0 -94 -66 -160t-160 -66q-93 0 -159.5 66t-66.5 160z" />
<glyph unicode="&#x420;" horiz-adv-x="1118" d="M56 215v892q0 94 66.5 160t159.5 66h340q187 0 319.5 -132t132.5 -320q0 -187 -132.5 -319.5t-319.5 -132.5h-114v-214q0 -94 -66 -160t-160 -66q-93 0 -159.5 66t-66.5 160zM508 791h46q37 0 63.5 26.5t26.5 63.5q0 38 -26.5 64.5t-63.5 26.5h-46v-181z" />
<glyph unicode="&#x421;" horiz-adv-x="1355" d="M45 667q0 281 199 479.5t479 198.5q282 0 480 -198q83 -84 92 -149q5 -24 5 -49q0 -94 -66.5 -160t-159.5 -66q-94 0 -160 67q-18 17 -31 37q-66 66 -160 66t-160 -66.5t-66 -159.5q0 -94 66 -160t160 -66t160 65q13 21 31 39q66 65 160 65q93 0 159.5 -66t66.5 -160 q0 -25 -5 -48q-9 -66 -92 -148q-198 -199 -480 -199q-280 0 -479 198t-199 480z" />
<glyph unicode="&#x422;" horiz-adv-x="1220" d="M45 1107q0 94 66 160t160 66h678q94 0 160 -66t66 -160q0 -93 -66 -159.5t-160 -66.5h-113v-666q0 -94 -66 -160t-160 -66t-160 66t-66 160v666h-113q-94 0 -160 66.5t-66 159.5z" />
<glyph unicode="&#x423;" horiz-adv-x="1275" d="M47.5 1150.5q13.5 92.5 88.5 149.5q74 55 167 42t149 -88l186 -248l187 248q55 75 148 88t168 -42q75 -57 88 -149.5t-44 -167.5l-678 -904q-56 -74 -148.5 -87t-167.5 42q-76 56 -89 149t44 167l210 279l-266 354q-56 75 -42.5 167.5z" />
<glyph unicode="&#x424;" horiz-adv-x="1559" d="M45 667q0 225 199 367q127 90 313 123q10 69 63 122q66 66 160 66q93 0 160 -66q52 -53 62 -122q187 -33 314 -123q198 -142 198 -367t-198 -366q-127 -92 -314 -125q-10 -69 -62 -121q-67 -66 -160 -66q-94 0 -160 66q-53 52 -63 121q-186 33 -313 125 q-199 141 -199 366zM441 667q0 -117 113 -123v246q-113 -7 -113 -123zM1006 544q113 6 113 123q0 116 -113 123v-246z" />
<glyph unicode="&#x425;" horiz-adv-x="1275" d="M47.5 183q-13.5 93 42.5 167l266 354l-210 279q-57 75 -44 167.5t89 149.5q75 55 167.5 42t148.5 -88l131 -175l132 175q55 75 147.5 88t168.5 -42q75 -57 87.5 -149.5t-43.5 -167.5l-209 -279l264 -354q57 -74 44 -167t-88 -149q-75 -55 -168 -42t-148 87l-187 249 l-186 -249q-56 -74 -149 -87t-167 42q-75 56 -88.5 149z" />
<glyph unicode="&#x426;" horiz-adv-x="1491" d="M56 226v893q0 93 66.5 159.5t159.5 66.5q94 0 160 -66.5t66 -159.5v-690h283v690q0 93 66 159.5t160 66.5t160 -66.5t66 -159.5v-690q94 0 160 -66t66 -160v-203q0 -94 -66 -160t-160 -66t-160 66t-66 160h-735q-93 0 -159.5 66t-66.5 160z" />
<glyph unicode="&#x427;" horiz-adv-x="1299" d="M56 893v226q0 93 66.5 159.5t159.5 66.5q94 0 160 -66.5t66 -159.5v-204q0 -60 34 -97.5t108 -37.5t107 38q34 37 34 96v205q0 93 66 159.5t160 66.5t160 -66.5t66 -159.5v-904q0 -94 -66 -160t-160 -66t-160 66t-66 160v126q-67 -13 -141 -13q-262 0 -428 165.5 t-166 399.5z" />
<glyph unicode="&#x428;" horiz-adv-x="1807" d="M56 226v893q0 93 66.5 159.5t159.5 66.5q94 0 160 -66.5t66 -159.5v-690h170v690q0 93 66 159.5t160 66.5t160 -66.5t66 -159.5v-690h170v690q0 93 66 159.5t160 66.5q93 0 159.5 -66.5t66.5 -159.5v-893q0 -94 -66.5 -160t-159.5 -66h-1244q-93 0 -159.5 66t-66.5 160z " />
<glyph unicode="&#x429;" horiz-adv-x="2000" d="M56 226v893q0 93 66.5 159.5t159.5 66.5q94 0 160 -66.5t66 -159.5v-690h170v690q0 93 66 159.5t160 66.5t160 -66.5t66 -159.5v-690h170v690q0 93 66 159.5t160 66.5q93 0 159.5 -66.5t66.5 -159.5v-690q93 0 159.5 -66t66.5 -160v-203q0 -94 -66.5 -160t-159.5 -66 q-94 0 -160 66t-66 160h-1244q-93 0 -159.5 66t-66.5 160z" />
<glyph unicode="&#x42a;" horiz-adv-x="1333" d="M45 1107q0 94 66 160t160 66h226q94 0 160 -66t66 -160v-203h113q188 0 320 -132t132 -320t-132 -320t-320 -132h-339q-94 0 -160 66t-66 160v655q-94 0 -160 66.5t-66 159.5zM723 362h45q38 0 64.5 26.5t26.5 63.5t-26.5 63.5t-64.5 26.5h-45v-180z" />
<glyph unicode="&#x42b;" horiz-adv-x="1638" d="M56 226v893q0 93 66.5 159.5t159.5 66.5q94 0 160 -66.5t66 -159.5v-215h114q187 0 319.5 -132t132.5 -320t-132.5 -320t-319.5 -132h-340q-93 0 -159.5 66t-66.5 160zM508 362h46q37 0 63.5 26.5t26.5 63.5t-26.5 63.5t-63.5 26.5h-46v-180zM1130 215v904q0 93 66 159.5 t160 66.5t160 -66.5t66 -159.5v-904q0 -94 -66 -160t-160 -66t-160 66t-66 160z" />
<glyph unicode="&#x42c;" horiz-adv-x="1118" d="M56 226v893q0 93 66.5 159.5t159.5 66.5q94 0 160 -66.5t66 -159.5v-215h114q187 0 319.5 -132t132.5 -320t-132.5 -320t-319.5 -132h-340q-93 0 -159.5 66t-66.5 160zM508 362h46q37 0 63.5 26.5t26.5 63.5t-26.5 63.5t-63.5 26.5h-46v-180z" />
<glyph unicode="&#x42d;" horiz-adv-x="1355" d="M56 384q0 94 66.5 160t159.5 66q94 0 160 -65q18 -18 31 -39q66 -65 160 -65t160 66l1 1h-161q-66 0 -106.5 46.5t-40.5 112.5q0 65 40.5 111.5t106.5 46.5h161q-1 1 -1 2q-66 66 -160 66t-160 -66q-13 -20 -31 -37q-66 -67 -160 -67q-93 0 -159.5 66t-66.5 160 q0 25 5 49q9 65 92 149q198 198 480 198q280 0 479 -198.5t199 -479.5q0 -282 -199 -480t-479 -198q-282 0 -480 199q-83 82 -92 148q-5 23 -5 48z" />
<glyph unicode="&#x42e;" horiz-adv-x="2011" d="M56 215v904q0 93 66.5 159.5t159.5 66.5q94 0 160 -66.5t66 -159.5v-238h135q47 147 166 266q198 198 479 198q282 0 480 -198.5t198 -479.5q0 -282 -198 -480t-480 -198q-281 0 -479 199q-119 117 -166 264h-135v-237q0 -94 -66 -160t-160 -66q-93 0 -159.5 66 t-66.5 160zM1062 667q0 -94 66 -160t160 -66t160 66t66 160q0 93 -66 159.5t-160 66.5t-160 -66.5t-66 -159.5z" />
<glyph unicode="&#x42f;" horiz-adv-x="1130" d="M37 183q-13 93 43 167l138 184q-15 13 -29 28q-133 132 -133 319q0 188 132.5 320t319.5 132h340q93 0 159.5 -66t66.5 -160v-892q0 -94 -66.5 -160t-159.5 -66q-94 0 -160 66t-66 160v179l-181 -315q-56 -74 -148.5 -87t-168.5 42q-74 56 -87 149zM486 881 q0 -37 26.5 -63.5t63.5 -26.5h46v181h-46q-37 0 -63.5 -26.5t-26.5 -64.5z" />
<glyph unicode="&#x430;" d="M45 554q0 235 165.5 400t399.5 165q135 0 245 -53q56 53 133 53q78 0 132.5 -55t54.5 -134v-753q0 -78 -54.5 -133t-132.5 -55q-77 0 -133 54q-110 -54 -245 -54q-234 0 -399.5 165.5t-165.5 399.5zM421 554q0 -78 55.5 -133.5t133.5 -55.5t133.5 55.5t55.5 133.5 t-55.5 133t-133.5 55t-133.5 -55t-55.5 -133z" />
<glyph unicode="&#x431;" horiz-adv-x="1220" d="M45 554q0 561 160 760.5t361 228t263.5 70.5t140.5 42t133 -54.5t55 -132.5q-11 -95 -103 -164q-188 -110 -354 -110q-67 0 -122 -24t-76 -69q53 18 107 18q235 0 400 -165t165 -400q0 -234 -165 -399.5t-400 -165.5q-234 0 -399.5 165.5t-165.5 399.5zM421 554 q0 -78 55.5 -133.5t133.5 -55.5t133.5 55.5t55.5 133.5t-55.5 133t-133.5 55t-133.5 -55t-55.5 -133z" />
<glyph unicode="&#x432;" horiz-adv-x="968" d="M56 188v732q0 78 55 132.5t133 54.5h286q125 0 213.5 -88t88.5 -213q0 -82 -36 -147q127 -128 127 -284t-109.5 -265.5t-265.5 -109.5h-304q-78 0 -133 55t-55 133zM432 301h60q31 0 53 22t22 52q0 32 -22 54t-53 22h-60v-150zM432 695h51q21 0 38.5 17t17.5 38 q0 23 -17.5 40t-38.5 17h-51v-112z" />
<glyph unicode="&#x433;" horiz-adv-x="854" d="M56 176v744q0 78 55 132.5t133 54.5h376q78 0 133.5 -54.5t55.5 -132.5t-55.5 -133.5t-133.5 -55.5h-187v-555q0 -78 -55.5 -132.5t-133.5 -54.5t-133 54.5t-55 132.5z" />
<glyph unicode="&#x434;" d="M45 554q0 235 165.5 400t399.5 165q135 0 245 -53q56 53 133 53q78 0 132.5 -55t54.5 -134v-888q0 -234 -188 -371.5t-411 -137.5q-222 0 -411 110q-92 69 -103 164q0 78 55.5 132.5t133.5 54.5t162.5 -42t162.5 -42t151 27q61 22 70 81q-87 -29 -187 -29 q-234 0 -399.5 165.5t-165.5 399.5zM421 554q0 -78 55.5 -133.5t133.5 -55.5t133.5 55.5t55.5 133.5t-55.5 133t-133.5 55t-133.5 -55t-55.5 -133z" />
<glyph unicode="&#x435;" horiz-adv-x="1130" d="M45 554q0 235 165.5 400t399.5 165q235 0 389 -120q80 -80 77 -158q3 -85 -57 -126l-452 -345q21 -5 43 -5q78 0 146 53.5t146 53.5q79 0 133.5 -54.5t54.5 -132.5q0 -22 -3 -41q-8 -54 -77 -123q-165 -132 -400 -132q-234 0 -399.5 165.5t-165.5 399.5zM421 542l256 185 q-33 15 -67 15q-78 0 -133.5 -55t-55.5 -133v-12z" />
<glyph unicode="&#x436;" horiz-adv-x="1571" d="M34.5 150.5q-10.5 77.5 36.5 139.5l221 295l-174 232q-48 62 -37 139.5t73 124.5q63 47 140.5 35.5t123.5 -73.5l180 -238v125q0 79 54.5 134t132.5 55q79 0 134 -55t55 -134v-125l181 238q45 62 122.5 73.5t140.5 -35.5q62 -47 73 -124.5t-37 -139.5l-174 -232l221 -295 q47 -62 36.5 -139.5t-73.5 -124.5q-63 -45 -140.5 -34.5t-123.5 72.5l-226 300v-187q0 -78 -55 -133t-134 -55q-78 0 -132.5 55t-54.5 133v187l-226 -300q-47 -62 -124 -72.5t-141 34.5q-62 47 -72.5 124.5z" />
<glyph unicode="&#x437;" horiz-adv-x="971" d="M45 245q0 86 60.5 146t146.5 60q79 0 118 -50.5t109 -53t78.5 54t-130.5 65.5q-122 9 -124 132q17 124 135 129q119 16 112.5 48t-78.5 29.5t-95 -31.5t-88 -29q-71 0 -120 44.5t-49 114.5q0 71 91 143t281 72q163 0 271.5 -89.5t108.5 -229.5q0 -78 -65 -150 q120 -76 120 -249q0 -172 -116 -292t-331 -120q-242 0 -338.5 85t-96.5 171z" />
<glyph unicode="&#x438;" horiz-adv-x="1149" d="M56 177v753q0 79 55.5 134t133.5 55t133 -55t55 -134v-251l338 385q55 55 133 55t133.5 -55t55.5 -134v-753q0 -78 -55.5 -133t-133.5 -55t-133.5 55t-55.5 133v252l-338 -385q-54 -55 -132 -55t-133.5 55t-55.5 133z" />
<glyph unicode="&#x439;" horiz-adv-x="1149" d="M56 177v753q0 79 55.5 134t133.5 55t133 -55t55 -134v-251l338 385q55 55 133 55t133.5 -55t55.5 -134v-753q0 -78 -55.5 -133t-133.5 -55t-133.5 55t-55.5 133v252l-338 -385q-54 -55 -132 -55t-133.5 55t-55.5 133zM179 1458q0 47 33.5 91t107.5 44q76 0 103 -38.5 t39 -57.5q44 -51 112 -51q71 0 114 51q11 19 38.5 57.5t102.5 38.5t108 -44t33 -91q0 -84 -99 -183.5t-297 -99.5q-196 0 -295.5 99.5t-99.5 183.5z" />
<glyph unicode="&#x43a;" horiz-adv-x="1030" d="M56 177v753q0 79 55.5 134t133.5 55t133 -55t55 -134v-125l181 238q45 62 122.5 73.5t140.5 -35.5q62 -47 72.5 -124.5t-36.5 -139.5l-174 -232l220 -295q48 -62 37 -139.5t-73 -124.5q-63 -45 -140.5 -34.5t-123.5 72.5l-226 300v-187q0 -78 -55 -133t-133 -55 t-133.5 55t-55.5 133z" />
<glyph unicode="&#x43b;" horiz-adv-x="1226" d="M49.5 121q-23.5 74 12.5 143l382 753q46 102 168 102q124 0 170 -102l382 -753q36 -69 13 -143t-93 -111q-69 -36 -143.5 -12.5t-109.5 92.5l-219 428l-215 -428q-37 -69 -111.5 -92.5t-143.5 12.5q-69 37 -92.5 111z" />
<glyph unicode="&#x43c;" horiz-adv-x="1476" d="M53 242l185 767q38 110 171 110q135 0 172 -110l158 -469l158 469q38 110 172 110q133 0 171 -110l185 -767q27 -74 -6.5 -144.5t-106.5 -96.5q-74 -27 -144.5 6t-96.5 106l-49 313l-111 -328q-57 -109 -172 -109t-172 109l-110 328l-50 -313q-27 -73 -98 -106t-144 -6 q-73 26 -106 96.5t-6 144.5z" />
<glyph unicode="&#x43d;" horiz-adv-x="1101" d="M56 177v753q0 79 55.5 134t133.5 55t133 -55t55 -134v-198h236v198q0 79 55 134t133 55q79 0 133.5 -55t54.5 -134v-753q0 -78 -54.5 -133t-133.5 -55q-78 0 -133 55t-55 133v198h-236v-198q0 -78 -55 -133t-133 -55t-133.5 55t-55.5 133z" />
<glyph unicode="&#x43e;" horiz-adv-x="1220" d="M45 554q0 235 165.5 400t399.5 165q235 0 400 -165t165 -400q0 -234 -165 -399.5t-400 -165.5q-234 0 -399.5 165.5t-165.5 399.5zM421 554q0 -78 55.5 -133.5t133.5 -55.5t133.5 55.5t55.5 133.5t-55.5 133t-133.5 55t-133.5 -55t-55.5 -133z" />
<glyph unicode="&#x43f;" horiz-adv-x="1101" d="M56 177v742q0 79 55.5 133.5t133.5 54.5h612q79 0 133.5 -54.5t54.5 -133.5v-742q0 -78 -54.5 -133t-133.5 -55q-78 0 -133 55t-55 133v571h-236v-571q0 -78 -55 -133t-133 -55t-133.5 55t-55.5 133z" />
<glyph unicode="&#x440;" d="M56 -162v1092q0 79 55.5 134t133.5 55q77 0 132 -55q111 55 245 55q235 0 399.5 -165t164.5 -400q0 -234 -164.5 -399.5t-399.5 -165.5q-101 0 -189 30v-181q0 -78 -55 -133t-133 -55t-133.5 55t-55.5 133zM433 554q0 -78 55.5 -133.5t133.5 -55.5q77 0 132.5 55.5 t55.5 133.5t-55.5 133t-132.5 55q-78 0 -133.5 -55t-55.5 -133z" />
<glyph unicode="&#x441;" horiz-adv-x="1130" d="M45 554q0 235 165.5 400t399.5 165q235 0 400 -165q69 -69 77 -125q3 -19 3 -40q0 -78 -54.5 -133t-133.5 -55q-78 0 -132 56q-15 13 -26 30q-56 55 -134 55t-133.5 -55t-55.5 -133t55.5 -133.5t133.5 -55.5t134 55q11 17 26 32q54 54 132 54q79 0 133.5 -54.5 t54.5 -132.5q0 -22 -3 -41q-8 -54 -77 -123q-165 -166 -400 -166q-234 0 -399.5 165.5t-165.5 399.5z" />
<glyph unicode="&#x442;" horiz-adv-x="1030" d="M45 920q0 78 55 132.5t133 54.5h565q78 0 132.5 -54.5t54.5 -132.5t-54.5 -133.5t-132.5 -55.5h-95v-555q0 -78 -55 -132.5t-133 -54.5t-132.5 54.5t-54.5 132.5v555h-95q-78 0 -133 55.5t-55 133.5z" />
<glyph unicode="&#x443;" horiz-adv-x="1339" d="M49 -212q0 78 54.5 132.5t132.5 54.5q72 0 91 -9t50 -11q34 -1 92 120l-407 768q-36 69 -12.5 143t92.5 111q69 35 143.5 12t111.5 -92l272 -540l275 540q35 69 109.5 92t143.5 -12q70 -37 93 -111t-13 -143l-589 -1094q-122 -178 -320 -178q-167 0 -243 68.5t-76 148.5z " />
<glyph unicode="&#x444;" horiz-adv-x="1974" d="M45 554q0 235 165.5 400t399.5 165q101 0 189 -31v91q0 79 55.5 133.5t133.5 54.5t132.5 -54.5t54.5 -133.5v-91q88 31 189 31q235 0 400 -165t165 -400q0 -234 -165 -399.5t-400 -165.5q-101 0 -189 30v-181q0 -78 -54.5 -133t-132.5 -55t-133.5 55t-55.5 133v181 q-88 -30 -189 -30q-234 0 -399.5 165.5t-165.5 399.5zM421 554q0 -78 55.5 -133.5t133.5 -55.5t133.5 55.5t55.5 133.5t-55.5 133t-133.5 55t-133.5 -55t-55.5 -133zM1175 554q0 -78 55.5 -133.5t133.5 -55.5t133.5 55.5t55.5 133.5t-55.5 133t-133.5 55t-133.5 -55 t-55.5 -133z" />
<glyph unicode="&#x445;" horiz-adv-x="1078" d="M47.5 150.5q-11.5 77.5 36.5 139.5l221 294l-175 233q-48 62 -37 139.5t74 124.5q62 46 139.5 35t124.5 -73l109 -146l110 146q45 62 122.5 73t140.5 -35q62 -47 73 -124.5t-37 -139.5l-174 -233l221 -294q47 -62 36.5 -139.5t-73.5 -124.5q-63 -46 -140.5 -35t-123.5 73 l-155 207l-156 -207q-46 -62 -123.5 -73t-139.5 35q-62 47 -73.5 124.5z" />
<glyph unicode="&#x446;" horiz-adv-x="1259" d="M56 189v742q0 78 55 133t133 55t133.5 -55t55.5 -133v-574h235v574q0 78 54.5 133t132.5 55t133 -55t55 -133v-574q78 0 133.5 -55t55.5 -132v-170q0 -78 -55.5 -133t-133.5 -55t-133 55t-55 133h-611q-78 0 -133 55.5t-55 133.5z" />
<glyph unicode="&#x447;" horiz-adv-x="1101" d="M56 709v221q0 78 55 133.5t134 55.5q78 0 133 -55.5t55 -133.5v-203q0 -50 28 -81.5t89 -31.5q62 0 90.5 31.5t28.5 81.5v203q0 78 55 133.5t133 55.5t133 -55.5t55 -133.5v-753q0 -79 -55 -133.5t-133 -54.5t-133 54.5t-55 133.5v72q-57 -12 -119 -12q-218 0 -356 138 t-138 334z" />
<glyph unicode="&#x448;" horiz-adv-x="1714" d="M56 189v741q0 79 55.5 134t133.5 55t133 -55t55 -134v-571h236v571q0 79 55 134t134 55q78 0 132.5 -55t54.5 -134v-571h236v571q0 79 55 134t133 55q79 0 134 -55t55 -134v-741q0 -78 -55 -133.5t-134 -55.5h-1224q-78 0 -133.5 55.5t-55.5 133.5zM724 1064 q55 55 134 55q-78 0 -133.5 -55t-0.5 0z" />
<glyph unicode="&#x449;" horiz-adv-x="1881" d="M56 189v741q0 79 55.5 134t133.5 55t133 -55t55 -134v-571h236v571q0 79 55 134t134 55q78 0 132.5 -55t54.5 -134v-571h236v571q0 79 55 134t133 55q79 0 134 -55t55 -134v-585l6 12q78 0 133.5 -55t55.5 -132v-170q0 -78 -55.5 -133t-133.5 -55q-77 0 -132 55t-55 133 h-1232q-78 0 -133.5 55.5t-55.5 133.5zM724 1064q55 55 134 55q-78 0 -133.5 -55t-0.5 0z" />
<glyph unicode="&#x44a;" horiz-adv-x="1123" d="M45 920q0 78 55 132.5t133 54.5h187q78 0 133 -54.5t55 -132.5v-170h94q156 0 266 -109.5t110 -265.5t-110 -265.5t-266 -109.5h-282q-78 0 -132.5 55t-54.5 133v544q-78 0 -133 55t-55 133zM608 301h38q31 0 53 22t22 52q0 32 -22 54t-53 22h-38v-150z" />
<glyph unicode="&#x44b;" horiz-adv-x="1393" d="M56 188v743q0 78 55 133t133 55t133.5 -55t55.5 -133v-178h94q156 0 266 -110.5t110 -266.5t-110 -266t-266 -110h-283q-78 0 -133 55t-55 133zM433 301h37q32 0 54 22t22 53t-22 53t-54 22h-37v-150zM960 177v753q0 79 55.5 134t133.5 55t133 -55t55 -134v-753 q0 -78 -55 -133t-133 -55t-133.5 55t-55.5 133z" />
<glyph unicode="&#x44c;" horiz-adv-x="948" d="M56 188v743q0 78 55 133t133 55t133.5 -55t55.5 -133v-178h94q156 0 266 -110.5t110 -266.5t-110 -266t-266 -110h-283q-78 0 -133 55t-55 133zM433 301h37q32 0 54 22t22 53t-22 53t-54 22h-37v-150z" />
<glyph unicode="&#x44d;" horiz-adv-x="1146" d="M56 319q0 78 55.5 132.5t133.5 54.5t132 -54q16 -15 28 -32q54 -55 132 -55t133 55l1 1h-134q-54 0 -88 39t-34 94q0 54 34 93t88 39h134l-1 1q-55 55 -133 55t-132 -55q-12 -17 -28 -30q-54 -56 -132 -56t-133.5 55t-55.5 133q0 21 4 40q8 56 77 125q166 165 400 165 t399.5 -165t165.5 -400q0 -234 -165.5 -399.5t-399.5 -165.5t-400 166q-69 69 -77 123q-4 19 -4 41z" />
<glyph unicode="&#x44e;" horiz-adv-x="1672" d="M56 177v753q0 79 55.5 134t133.5 55t133 -55t55 -134v-198h91q40 123 139 222q165 165 399 165q235 0 400 -165t165 -400q0 -234 -165 -399.5t-400 -165.5q-234 0 -399 166q-99 98 -139 220h-91v-198q0 -78 -55 -133t-133 -55t-133.5 55t-55.5 133zM873 554 q0 -78 55.5 -133.5t133.5 -55.5t133.5 55.5t55.5 133.5t-55.5 133t-133.5 55t-133.5 -55t-55.5 -133z" />
<glyph unicode="&#x44f;" horiz-adv-x="954" d="M35.5 150q-10.5 77 36.5 139l114 154q-12 10 -24 23q-110 109 -110 265t110 266t266 110h282q79 0 133.5 -54.5t54.5 -132.5v-744q0 -78 -54.5 -132.5t-133.5 -54.5q-78 0 -133 54.5t-55 132.5v151l-150 -263q-47 -62 -123.5 -72.5t-140.5 34.5q-62 47 -72.5 124z M409 731q0 -30 22 -52t54 -22h37v150h-37q-32 0 -54 -22t-22 -54z" />
<glyph unicode="&#x451;" horiz-adv-x="1130" d="M45 554q0 235 165.5 400t399.5 165q235 0 389 -120q80 -80 77 -158q3 -85 -57 -126l-452 -345q21 -5 43 -5q78 0 146 53.5t146 53.5q79 0 133.5 -54.5t54.5 -132.5q0 -22 -3 -41q-8 -54 -77 -123q-165 -132 -400 -132q-234 0 -399.5 165.5t-165.5 399.5zM186 1345 q0 71 49.5 120t119.5 49q71 0 120.5 -49t49.5 -120q0 -70 -49.5 -120t-120.5 -50q-70 0 -119.5 50t-49.5 120zM421 542l256 185q-33 15 -67 15q-78 0 -133.5 -55t-55.5 -133v-12zM610 1345q0 71 49.5 120t119.5 49t120 -49t50 -120q0 -70 -50 -120t-120 -50t-119.5 50 t-49.5 120z" />
<glyph unicode="&#x2000;" horiz-adv-x="909" />
<glyph unicode="&#x2001;" horiz-adv-x="1819" />
<glyph unicode="&#x2002;" horiz-adv-x="909" />
<glyph unicode="&#x2003;" horiz-adv-x="1819" />
<glyph unicode="&#x2004;" horiz-adv-x="606" />
<glyph unicode="&#x2005;" horiz-adv-x="454" />
<glyph unicode="&#x2006;" horiz-adv-x="303" />
<glyph unicode="&#x2007;" horiz-adv-x="303" />
<glyph unicode="&#x2008;" horiz-adv-x="227" />
<glyph unicode="&#x2009;" horiz-adv-x="363" />
<glyph unicode="&#x200a;" horiz-adv-x="101" />
<glyph unicode="&#x2010;" horiz-adv-x="1016" d="M56 667q0 93 66.5 159.5t159.5 66.5h452q94 0 160 -66.5t66 -159.5q0 -94 -66 -160t-160 -66h-452q-93 0 -159.5 66t-66.5 160z" />
<glyph unicode="&#x2011;" horiz-adv-x="1016" d="M56 667q0 93 66.5 159.5t159.5 66.5h452q94 0 160 -66.5t66 -159.5q0 -94 -66 -160t-160 -66h-452q-93 0 -159.5 66t-66.5 160z" />
<glyph unicode="&#x2012;" horiz-adv-x="1016" d="M56 667q0 93 66.5 159.5t159.5 66.5h452q94 0 160 -66.5t66 -159.5q0 -94 -66 -160t-160 -66h-452q-93 0 -159.5 66t-66.5 160z" />
<glyph unicode="&#x2013;" horiz-adv-x="1242" d="M56 667q0 93 66.5 159.5t159.5 66.5h678q94 0 160 -66.5t66 -159.5q0 -94 -66 -160t-160 -66h-678q-93 0 -159.5 66t-66.5 160z" />
<glyph unicode="&#x2014;" horiz-adv-x="1581" d="M56 667q0 93 66.5 159.5t159.5 66.5h1018q93 0 159.5 -66.5t66.5 -159.5q0 -94 -66.5 -160t-159.5 -66h-1018q-93 0 -159.5 66t-66.5 160z" />
<glyph unicode="&#x2018;" horiz-adv-x="600" d="M80.5 908q-24.5 91 23.5 172l123 214q22 36 62 46.5t76 -9.5q36 -21 47 -61.5t-10 -76.5l-26 -34q104 -22 136 -123t-16 -183q-46 -81 -137 -105.5t-173 23.5q-81 46 -105.5 137z" />
<glyph unicode="&#x2019;" horiz-adv-x="600" d="M88 1048q-32 101 16 183q46 81 137 105.5t173 -22.5q81 -47 105.5 -138t-23.5 -173l-123 -213q-22 -36 -62 -47t-76 11q-36 20 -47 60.5t10 77.5l26 32q-104 23 -136 124z" />
<glyph unicode="&#x201a;" horiz-adv-x="600" d="M88 144q-32 101 16 183q46 81 137 105.5t173 -22.5q81 -47 105.5 -138t-23.5 -173l-123 -213q-22 -36 -62 -47t-76 11q-36 20 -47 60.5t10 77.5l26 32q-104 23 -136 124z" />
<glyph unicode="&#x201c;" horiz-adv-x="1108" d="M80.5 908q-24.5 91 23.5 172l123 214q22 36 62 46.5t76 -9.5q36 -21 47 -61.5t-10 -76.5l-26 -34q104 -22 136 -123t-16 -183q-46 -81 -137 -105.5t-173 23.5q-81 46 -105.5 137zM589.5 908q-24.5 91 22.5 172l124 214q21 36 61 46.5t76 -9.5q37 -21 47.5 -61.5 t-9.5 -76.5l-26 -34q104 -22 135.5 -123t-15.5 -183q-47 -81 -138 -105.5t-172 23.5q-81 46 -105.5 137z" />
<glyph unicode="&#x201d;" horiz-adv-x="1108" d="M88 1048q-32 101 16 183q46 81 137 105.5t173 -22.5q81 -47 105.5 -138t-23.5 -173l-123 -213q-22 -36 -62 -47t-76 11q-36 20 -47 60.5t10 77.5l26 32q-104 23 -136 124zM596.5 1048q-31.5 101 15.5 183q47 81 138 105.5t172 -22.5t105.5 -138t-22.5 -173l-124 -213 q-21 -36 -61 -47t-76 11q-37 20 -47.5 60.5t9.5 77.5l26 32q-104 23 -135.5 124z" />
<glyph unicode="&#x201e;" horiz-adv-x="1108" d="M88 144q-32 101 16 183q46 81 137 105.5t173 -22.5q81 -47 105.5 -138t-23.5 -173l-123 -213q-22 -36 -62 -47t-76 11q-36 20 -47 60.5t10 77.5l26 32q-104 23 -136 124zM596.5 144q-31.5 101 15.5 183q47 81 138 105.5t172 -22.5t105.5 -138t-22.5 -173l-124 -213 q-21 -36 -61 -47t-76 11q-37 20 -47.5 60.5t9.5 77.5l26 32q-104 23 -135.5 124z" />
<glyph unicode="&#x2026;" horiz-adv-x="2314" d="M56 215q0 93 66.5 159.5t159.5 66.5q94 0 160 -66.5t66 -159.5q0 -94 -66 -160t-160 -66q-93 0 -159.5 66t-66.5 160zM828 215q0 93 66.5 159.5t159.5 66.5q94 0 160 -66.5t66 -159.5q0 -94 -66 -160t-160 -66q-93 0 -159.5 66t-66.5 160zM1600 215q0 93 66.5 159.5 t159.5 66.5q94 0 160 -66.5t66 -159.5q0 -94 -66 -160t-160 -66q-93 0 -159.5 66t-66.5 160z" />
<glyph unicode="&#x202f;" horiz-adv-x="363" />
<glyph unicode="&#x2039;" horiz-adv-x="816" d="M58 667q-2 54 26 105l244 337q43 83 132 111.5t173 -14.5q82 -44 110.5 -133.5t-14.5 -171.5l-190 -234l190 -234q43 -83 14.5 -172t-110.5 -133q-84 -43 -173 -15t-132 111l-244 338q-28 50 -26 105z" />
<glyph unicode="&#x203a;" horiz-adv-x="816" d="M73.5 261q-28.5 89 14.5 172l190 234l-190 234q-43 82 -14.5 171.5t110.5 133.5q84 43 173 14.5t132 -111.5l244 -337q27 -51 26 -105q1 -55 -26 -105l-244 -338q-43 -83 -132 -111t-173 15q-82 44 -110.5 133z" />
<glyph unicode="&#x205f;" horiz-adv-x="454" />
<glyph unicode="&#x20ac;" horiz-adv-x="1502" d="M34 567q0 40 21.5 61t59.5 21h77v28h-77q-38 0 -59.5 21t-21.5 60t21.5 60.5t59.5 21.5h97q45 172 179 307q199 198 479 198q281 0 480 -175q83 -107 92 -172q4 -24 4 -49q0 -71 -66 -137t-160 -66q-93 0 -159 66q-18 17 -32 38q-65 65 -159 65q-93 0 -158 -75h192 q38 0 59.5 -21.5t21.5 -60.5t-21.5 -60t-59.5 -21h-260v-10q0 -9 1 -18h259q38 0 59.5 -21t21.5 -61q0 -38 -21.5 -59.5t-59.5 -21.5h-185q63 -68 151 -68q94 0 159 66q14 20 32 38q66 66 159 66q94 0 160 -55t66 -149q0 -25 -4 -48q-9 -66 -92 -171q-199 -176 -480 -176 q-280 0 -479 199q-131 131 -176 298h-100q-38 0 -59.5 21.5t-21.5 59.5z" />
<glyph unicode="&#x2122;" horiz-adv-x="1226" d="M45 1238q0 40 28 67.5t67 27.5h285q39 0 67 -27.5t28 -67.5q0 -39 -28 -66.5t-67 -27.5h-48v-281q0 -38 -27.5 -66.5t-67.5 -28.5q-39 0 -66.5 28.5t-27.5 66.5v281h-48q-39 0 -67 27.5t-28 66.5zM476 896l94 387q18 55 85 55q68 0 87 -55l80 -237l80 237q18 55 86 55 q67 0 86 -55l93 -387q14 -36 -3 -71.5t-53 -49.5q-37 -13 -73 3t-49 54l-25 157l-57 -165q-28 -56 -85 -56q-58 0 -86 56l-57 165l-25 -157q-13 -38 -48.5 -54t-73.5 -3q-36 14 -53 49.5t-3 71.5z" />
<glyph unicode="&#x25fc;" horiz-adv-x="1118" d="M0 0v1119h1119v-1119h-1119z" />
</font>
</defs>
</svg>
