<?xml version="1.0" standalone="no"?>
<!DOCTYPE svg PUBLIC "-//W3C//DTD SVG 1.1//EN" "http://www.w3.org/Graphics/SVG/1.1/DTD/svg11.dtd" >
<svg xmlns="http://www.w3.org/2000/svg" xmlns:xlink="http://www.w3.org/1999/xlink" version="1.1">
<metadata></metadata>
<defs>
<font id="coiny_2.0regular" horiz-adv-x="1400" >
<font-face units-per-em="2048" ascent="1536" descent="-512" />
<missing-glyph horiz-adv-x="634" />
<glyph horiz-adv-x="0" />
<glyph unicode="&#xd;" horiz-adv-x="783" />
<glyph horiz-adv-x="0" />
<glyph horiz-adv-x="0" />
<glyph horiz-adv-x="1371" d="M1013 555q108 0 196 81q87 80 86 226q0 140 -52 190q-49 54 -195 55q-140 0 -198 -49q-56 -49 -56 -161q0 -76 -19 -99q-21 -26 -78 -25q-61 0 -90 25q-9 142 -45 211q-49 98 -195 98q-85 -4 -138 -31q-52 -26 -85 -89q-34 -61 -34 -160v-490q0 -189 62 -265 q64 -72 195 -72q117 0 188 106t72 229h84q33 0 50 -7q14 -9 23 -38q10 -27 10 -81q0 -108 56 -160q58 -49 198 -49q150 0 200 54q47 54 47 234q0 134 -86 200q-85 67 -196 67z" />
<glyph unicode=" "  horiz-adv-x="634" />
<glyph unicode="&#x09;" horiz-adv-x="634" />
<glyph unicode="&#xa0;" horiz-adv-x="634" />
<glyph unicode="!" horiz-adv-x="821" d="M148 162q0 94 74.5 137t184.5 43q281 0 281 -180q0 -87 -75.5 -132.5t-205.5 -45.5q-122 0 -190.5 50t-68.5 128zM690 1418q0 -120 -47 -400.5t-47 -395.5q0 -96 -45 -141t-146 -45q-99 0 -138.5 46t-39.5 147q0 113 -47.5 381.5t-47.5 381.5q0 117 57.5 176t208.5 59 q157 0 224.5 -49.5t67.5 -159.5z" />
<glyph unicode="&#x22;" horiz-adv-x="1382" d="M148 1406q0 81 67.5 130t186.5 49q83 0 143 -18.5t102.5 -71t42.5 -133.5q0 -66 -19 -126.5t-49.5 -107.5t-72 -87.5t-85.5 -68.5t-90 -48t-86.5 -29t-71.5 -9q-40 0 -65.5 24.5t-25.5 62.5q0 52 35 68q106 51 155.5 88t89.5 98q-111 0 -184 42.5t-73 136.5zM758 1406 q0 81 66 130t189 49q128 0 207.5 -52t79.5 -171q0 -212 -167 -344t-306 -132q-43 0 -67.5 24.5t-24.5 62.5q0 52 35 68q106 51 155.5 88t87.5 98q-110 0 -182.5 42.5t-72.5 136.5z" />
<glyph unicode="#" horiz-adv-x="1654" d="M690 641l-40 -147h276l40 147h-276zM1449 959q83 0 129.5 -41.5t46.5 -119.5q0 -164 -202 -164h-99l-38 -130h71q54 0 93.5 -18.5t61 -55.5t21.5 -86q0 -165 -202 -165h-135l-14 -49q-38 -144 -179 -144q-59 0 -100 20t-58.5 52t-17.5 74q0 12 4 47h-261l-12 -47 q-40 -144 -181 -144q-87 0 -132 40t-45 107q0 9 5 44q-165 10 -165 158q0 167 205 167h49l38 130h-19q-191 0 -191 157q0 167 206 168h96l14 52q21 76 66 101t130 25q63 0 110 -39.5t47 -101.5q0 -18 -4 -37h261l15 50q20 75 66 101.5t131 26.5q64 0 111 -40.5t47 -102.5 q0 -16 -5 -35h36z" />
<glyph unicode="$" horiz-adv-x="1695" d="M607 1609l3 75q2 105 61 157.5t160 52.5q109 0 165 -38t56 -151v-96q203 -40 333 -139t130 -200q0 -36 -15.5 -61t-38 -35t-48.5 -10q-42 0 -127 43t-188.5 86.5t-191.5 43.5q-139 0 -138 -112q0 -36 22.5 -67.5t72 -65.5t96 -60.5t129.5 -69.5t139 -76 q182 -104 255 -198.5t73 -215.5q0 -420 -492 -479v-78q0 -137 -55 -187.5t-172 -50.5q-113 0 -165.5 49.5t-52.5 169.5v120q-142 36 -255 99.5t-170.5 132.5t-57.5 132q0 51 33.5 87.5t99.5 36.5q49 0 238 -62t305 -62q106 0 106 72q0 21 -9 38.5t-28.5 35.5t-44 33.5 t-68.5 39t-87.5 47t-114.5 61t-136 75.5q-128 72 -198.5 186.5t-70.5 213.5q0 158 115.5 272.5t331.5 154.5z" />
<glyph unicode="%" horiz-adv-x="2102" d="M1032 117q-34 -83 -78 -120t-118 -37q-113 0 -213 72t-100 161q0 38 26 101l532 1293q29 66 72 97t117 31q112 0 214.5 -66.5t102.5 -153.5q0 -36 -18 -84zM402 874q-162 0 -260.5 83.5t-98.5 267.5q0 195 95 277.5t264 82.5q81 0 144.5 -20.5t111.5 -62.5t75.5 -112.5 t27.5 -164.5q0 -184 -98 -267.5t-261 -83.5zM457 1225q0 16 -1.5 31.5t-5 31t-8 28t-9 22t-13 15.5t-18.5 6q-26 0 -41 -41.5t-15 -92.5q0 -50 15.5 -88t40.5 -38q29 0 42 37t13 89zM1677 -29q-165 0 -264 83t-99 267q0 198 97 280t266 82q162 0 258.5 -88.5t96.5 -273.5 q0 -184 -96.5 -267t-258.5 -83zM1728 321q0 35 -5.5 64t-17 49t-28.5 20q-29 0 -44 -40.5t-15 -92.5q0 -50 15.5 -86.5t43.5 -36.5q16 0 29 19t17.5 46t4.5 58z" />
<glyph unicode="&#x26;" horiz-adv-x="1973" d="M961 362l-289 310q-45 -21 -77.5 -59t-32.5 -81q0 -58 32.5 -103t85.5 -67.5t116 -22.5q90 0 165 23zM214 1243q0 120 81.5 206t210 124t292.5 38q132 0 242.5 -24.5t189 -72t121.5 -117t43 -154.5q0 -218 -196 -355q120 -149 253 -299q43 87 89 188q21 50 55.5 65 t99.5 15t103.5 -33t38.5 -94q0 -80 -38.5 -198t-88.5 -202q18 -36 71 -75t93.5 -70.5t40.5 -64.5q0 -48 -38 -92t-129 -44q-85 0 -144.5 18.5t-114.5 55t-66 41.5q-333 -115 -648 -115q-167 0 -299 34t-213 85.5t-137 121t-76.5 137t-20.5 132.5q0 158 90 275t229 173 q-134 124 -134 301zM904 1245q0 45 -10.5 79.5t-34 55t-56.5 20.5q-50 0 -77 -44t-27 -113q0 -70 27 -123t76.5 -53t75.5 53t26 125z" />
<glyph unicode="'" horiz-adv-x="776" d="M125 1406q0 81 65.5 130t189.5 49q80 0 141 -18.5t103.5 -71t42.5 -133.5q0 -66 -19 -126.5t-50.5 -107.5t-73 -87.5t-86.5 -68.5t-89.5 -48t-84.5 -29t-71 -9q-42 0 -67 24.5t-25 62.5q0 52 36 68q106 51 155.5 88t87.5 98q-111 0 -183 42.5t-72 136.5z" />
<glyph unicode="(" horiz-adv-x="1021" d="M714 756q0 -160 25 -326.5t55.5 -276.5t55 -219t24.5 -167q0 -45 -18 -77t-45 -44.5t-60 -12.5q-92 0 -194.5 84.5t-192.5 227t-150.5 358.5t-60.5 450q0 236 60.5 451.5t150.5 358t193.5 227t193.5 84.5q52 0 87.5 -35t35.5 -101q0 -68 -40 -219t-80 -357t-40 -406z" />
<glyph unicode=")" horiz-adv-x="962" d="M342 756q0 200 -40.5 406t-81.5 357t-41 219q0 65 36.5 100.5t88.5 35.5q89 0 192.5 -84.5t194.5 -227t151 -358t60 -451.5q0 -137 -21 -268.5t-56.5 -240.5t-84 -207t-102.5 -171t-111.5 -126t-114.5 -80t-108 -27q-52 0 -88.5 34t-36.5 100q0 67 41 219.5t81.5 359.5 t40.5 410z" />
<glyph unicode="*" horiz-adv-x="1337" d="M499 1760q0 51 6 88.5t20 65t36.5 42.5t52 22t69.5 7q87 0 122.5 -58.5t35.5 -188.5v-87l139 50q80 29 130 27q40 0 76 -23.5t58.5 -68t22.5 -97.5t-47 -93t-146 -75l-92 -34l106 -148q52 -76 52 -131q0 -61 -59 -114.5t-122 -53.5q-78 0 -148 97l-144 207l-146 -207 q-68 -97 -146 -97q-63 0 -122.5 53t-59.5 112t52 134l106 151l-88 31q-99 35 -146 75t-47 94q0 80 48.5 134t110.5 54q52 0 131 -27l139 -50v109z" />
<glyph unicode="+" horiz-adv-x="1299" d="M944 739q139 0 194.5 -46t55.5 -156q0 -97 -64.5 -134.5t-208.5 -37.5h-92v-149q0 -211 -182 -211q-195 0 -195 228v132h-142q-209 0 -209 181q0 90 46 141.5t170 51.5h135v111q0 139 46 193t159 54q63 0 101 -29.5t54.5 -88t16.5 -154.5v-86h115z" />
<glyph unicode="," horiz-adv-x="731" d="M94 162q0 52 28.5 92t86 64t139.5 24q128 0 208 -52t80 -175q0 -90 -35 -170t-91 -134t-120.5 -93t-123.5 -57.5t-104 -18.5q-42 0 -67 25t-25 62q0 49 36 66q106 52 155 89.5t87 99.5q-110 0 -182 42t-72 136z" />
<glyph unicode="-" horiz-adv-x="924" d="M618 815q85 0 133.5 -17.5t70 -58t21.5 -108.5q0 -87 -58.5 -121t-188.5 -34h-322q-191 0 -191 165q0 174 207 174h328z" />
<glyph unicode="." horiz-adv-x="665" d="M70 162q0 81 67.5 130.5t190.5 49.5q256 0 256 -180q0 -68 -32.5 -109t-87.5 -55t-136 -14q-111 0 -184.5 42t-73.5 136z" />
<glyph unicode="/" horiz-adv-x="1285" d="M685 1460l486 -1197q18 -49 18 -84q0 -85 -103.5 -152t-216.5 -67q-70 0 -115.5 30.5t-72.5 96.5l-479 1196q-26 64 -25 99q0 90 100 162t211 72q72 0 117 -37.5t80 -118.5z" />
<glyph unicode="0" horiz-adv-x="1553" d="M777 -14q-150 0 -271.5 41t-219 130.5t-150.5 245t-53 365.5q0 227 51.5 386.5t148.5 249t217 129.5t277 40q153 0 275.5 -46t216 -140t144 -250.5t50.5 -368.5q0 -211 -52 -366t-147.5 -244.5t-216.5 -130.5t-270 -41zM946 769q0 180 -44.5 319t-124.5 139 q-56 0 -97.5 -70.5t-60.5 -173t-19 -215.5q0 -175 46 -306.5t131 -131.5t127 129.5t42 309.5z" />
<glyph unicode="1" horiz-adv-x="1021" d="M876 355q0 -191 -68.5 -272t-207.5 -81q-92 0 -148 28.5t-85.5 103.5t-31.5 203l-5 879q-113 0 -186.5 40.5t-73.5 137.5q0 78 67.5 128.5t187.5 50.5q48 0 133.5 -1t121.5 -1q174 0 234 -57.5t60 -201.5z" />
<glyph unicode="2" horiz-adv-x="1369" d="M827 438h261q198 0 198 -222q0 -125 -62 -177.5t-224 -52.5h-638q-164 0 -224 43t-60 187q0 47 9.5 81.5t35 67.5t70.5 64q128 85 201 137t142 109.5t102.5 98.5t60.5 93t35 103.5t8 121.5q0 133 -83 133q-90 0 -89 -155q0 -88 -56.5 -114t-167.5 -26q-150 0 -203 66.5 t-53 219.5q0 152 145 254.5t403 102.5q641 0 641 -487q0 -113 -26 -206t-64 -156t-102.5 -119t-120.5 -91.5t-139 -75.5z" />
<glyph unicode="3" horiz-adv-x="1380" d="M749 1063q0 115 -214 115q-45 0 -121.5 -8t-112.5 -8q-169 0 -169 202q0 209 490 209q318 0 476 -103.5t158 -271.5q0 -233 -204 -371q137 -73 192.5 -152t55.5 -228q0 -204 -161 -332.5t-433 -128.5q-339 0 -486.5 69.5t-147.5 210.5q0 117 47.5 161.5t132.5 44.5 q42 0 132 -10t137 -10q256 0 256 94q0 64 -49.5 88.5t-185.5 24.5q-137 0 -193.5 35.5t-56.5 132.5q0 146 193 146q126 0 185.5 11.5t69 27t9.5 51.5z" />
<glyph unicode="4" horiz-adv-x="1600" d="M1074 2q-139 0 -203 76.5t-64 267.5h-434q-153 0 -228 73t-75 188q0 126 65 222q166 261 376 565q121 179 337 179l204 -2q173 0 234 -57.5t61 -201.5v-622q101 -9 139 -49.5t38 -127.5q0 -90 -40.5 -124t-136.5 -41q0 -186 -68 -266t-205 -80zM805 681l8 501l-316 -501 h308z" />
<glyph unicode="5" d="M1119 1191h-483l-5 -153q268 0 432 -63q247 -101 247 -424q0 -268 -172 -416.5t-520 -148.5q-283 0 -401 62t-118 195q0 231 162 231q43 0 150.5 -26t150.5 -26q108 0 160.5 28t52.5 101q0 132 -443 132q-122 0 -162 54t-40 216v422q0 99 60 147.5t210 48.5h670 q110 0 150 -42.5t40 -166.5q0 -92 -31.5 -131.5t-109.5 -39.5z" />
<glyph unicode="6" horiz-adv-x="1431" d="M596 953q122 38 238 38q148 0 266 -57.5t185 -159.5t67 -232q0 -175 -74 -303.5t-205 -195t-303 -66.5q-134 0 -244 31.5t-184 88t-127 127t-81 159.5t-41 173.5t-13 173.5q0 193 44.5 346t139 271t253.5 182.5t375 64.5q189 0 318.5 -81t129.5 -208q0 -80 -50.5 -143 t-134.5 -63q-41 0 -127 38t-154 38q-99 0 -179.5 -63.5t-98.5 -158.5zM869 506q0 101 -31 178t-87 77q-59 0 -93 -78t-34 -177q0 -94 33 -166t93.5 -72t89.5 70.5t29 167.5z" />
<glyph unicode="7" horiz-adv-x="1389" d="M254 250q0 121 39 262.5t94.5 257.5t111.5 213.5t94 151.5l41 56h-326q-139 0 -189.5 42.5t-50.5 144.5q0 119 58 156t204 37l697 2q167 0 234 -44.5t67 -186.5q0 -14 -1 -28t-5.5 -27t-7 -22t-11 -22.5t-12 -20t-16 -21t-17 -20.5t-21.5 -25t-24 -26 q-200 -222 -289.5 -426.5t-129.5 -437.5q-29 -169 -81 -216.5t-192 -47.5q-130 0 -198.5 65t-68.5 183z" />
<glyph unicode="8" horiz-adv-x="1447" d="M719 -14q-182 0 -327 52t-233.5 156.5t-88.5 245.5q0 255 238 382q-160 118 -160 313q0 205 160.5 324t412.5 119t410.5 -119t158.5 -324q0 -195 -160 -313q234 -130 234 -382q0 -211 -182.5 -332.5t-462.5 -121.5zM838 445q0 92 -30.5 161.5t-86.5 69.5q-59 0 -92 -70.5 t-33 -160.5q0 -56 13 -106.5t42.5 -85.5t69.5 -35q59 0 88 67.5t29 159.5zM834 1157q0 72 -29.5 127.5t-81.5 55.5q-38 0 -65 -30.5t-40 -75.5t-13 -94q0 -81 31 -139.5t86 -58.5t83.5 64t28.5 151z" />
<glyph unicode="9" horiz-adv-x="1421" d="M834 603q-122 -38 -236 -37q-227 0 -372.5 141t-145.5 358q0 162 73.5 282t204 182.5t301.5 62.5q160 0 285.5 -48.5t200.5 -125t123.5 -182.5t66 -210.5t17.5 -220.5q0 -146 -27.5 -269.5t-87 -227t-150.5 -176.5t-224 -113t-301 -40q-191 0 -320 80t-129 207 q0 80 51.5 144t134.5 64q40 0 127 -45t156 -45q56 0 110 28t92 79t50 112zM549 1050q0 -101 30.5 -177.5t87.5 -76.5q38 0 67.5 39t43 96.5t13.5 118.5q0 99 -32.5 174.5t-92 75.5t-88.5 -73.5t-29 -176.5z" />
<glyph unicode=":" horiz-adv-x="701" d="M90 160q0 80 66 129.5t188 49.5q256 0 256 -179q0 -101 -64 -139.5t-192 -38.5q-111 0 -182.5 42t-71.5 136zM90 959q0 81 66 129.5t188 48.5q256 0 256 -178q0 -99 -64 -139t-192 -40q-70 0 -125 16.5t-92 58t-37 104.5z" />
<glyph unicode=";" horiz-adv-x="737" d="M122 959q0 81 67 129.5t191 48.5q256 0 256 -178q0 -99 -66 -139t-190 -40q-71 0 -126.5 16.5t-93.5 58t-38 104.5zM117 162q0 81 67.5 130.5t188.5 49.5q47 0 87.5 -7t78.5 -22.5t64 -41.5t41 -65t15 -91q0 -90 -35 -170t-89 -134t-120.5 -93t-125 -57.5t-103.5 -18.5 q-40 0 -64.5 25t-24.5 62q0 49 33 66q106 52 155.5 89.5t89.5 99.5h-2q-109 0 -182.5 42t-73.5 136z" />
<glyph unicode="&#x3c;" horiz-adv-x="1049" d="M661 16l-477 357q-90 63 -90 180q0 111 83 175l409 335q126 96 227 96q49 0 101 -54.5t52 -122.5q0 -31 -15.5 -59t-46 -58.5t-86.5 -73.5l-281 -231l288 -218q94 -66 120 -108.5t26 -96.5q0 -68 -52 -122.5t-104 -54.5q-73 0 -154 56z" />
<glyph unicode="=" horiz-adv-x="1315" d="M1041 953q85 0 134.5 -18t70.5 -57.5t21 -109.5q0 -85 -59 -120.5t-188 -35.5h-775q-191 0 -191 165q0 177 205 176h782zM1041 469q85 0 134.5 -19t70.5 -58t21 -107q0 -87 -59 -122t-188 -35h-775q-191 0 -191 164q0 177 205 177h782z" />
<glyph unicode="&#x3e;" horiz-adv-x="1049" d="M389 16q-81 -56 -153 -56q-52 0 -104 54t-52 123q0 54 26 96.5t121 108.5l286 218l-280 231q-82 63 -115 104.5t-33 86.5q0 68 52 122.5t101 54.5q101 0 225 -96l411 -335q83 -63 82 -175q0 -117 -89 -180z" />
<glyph unicode="?" horiz-adv-x="1358" d="M335 162q0 94 74 137t187 43q278 0 278 -180q0 -87 -74 -132.5t-204 -45.5q-122 0 -191.5 50t-69.5 128zM1239 1204q0 -153 -72 -303t-173.5 -251t-206 -164.5t-175.5 -63.5q-173 0 -172 120q0 61 49.5 132.5t108.5 132t108.5 155t49.5 189.5q0 88 -36.5 158.5 t-92.5 70.5q-61 0 -61 -59q0 -11 17 -55t17 -75q0 -75 -50.5 -97t-151.5 -22q-180 0 -261 84.5t-81 180.5q0 290 549 290q308 0 471 -105.5t163 -317.5z" />
<glyph unicode="@" horiz-adv-x="2425" d="M1229 -434q-292 0 -520 75.5t-373 212.5t-219 324t-74 415q0 459 305.5 705t885.5 246q113 0 221.5 -10t225 -36t217 -65t191.5 -101t156 -142t103 -192t38 -245q0 -146 -44.5 -261t-142.5 -208t-272 -145t-415 -52q-125 0 -165 71q-122 -83 -287 -82 q-150 0 -249.5 122.5t-99.5 336.5q0 216 97.5 345t251.5 129q153 0 284 -110q50 95 166 95q103 0 159.5 -45t56.5 -162v-351q196 47 196 261q0 259 -162.5 364t-511.5 105q-165 0 -291 -29.5t-229.5 -96.5t-159 -188.5t-55.5 -293.5q0 -132 34.5 -239t108.5 -195t209 -136.5 t324 -48.5q29 0 97.5 4.5t102.5 4.5q73 0 127.5 -56t54.5 -137q0 -49 -20 -84.5t-49.5 -55.5t-76.5 -31t-91 -14.5t-105 -3.5zM1319 360v359q-33 54 -85 54q-33 0 -59 -37t-38.5 -90t-12.5 -111q0 -34 4.5 -65.5t12.5 -59.5t21 -50.5t31 -36t39 -13.5q54 0 87 50z" />
<glyph unicode="A" horiz-adv-x="1676" d="M843 1229q-101 0 -149.5 -58.5t-48.5 -209.5v-278h391v283q0 99 -23.5 158.5t-65 82t-104.5 22.5zM1036 358h-391v-125q0 -119 -63 -176t-220 -57q-65 0 -107.5 19t-74.5 64t-47.5 130.5t-23.5 207t-8 307.5q0 162 34 298t92 230t131 165.5t159 111.5t167.5 60t163.5 20 q98 0 195 -27t195.5 -93t173 -163.5t121.5 -253t47 -348.5q0 -311 -22.5 -461t-75.5 -208.5t-163 -58.5q-155 0 -219 56.5t-64 176.5v125z" />
<glyph unicode="B" horiz-adv-x="1726" d="M1048 1159q0 99 -76.5 135.5t-255.5 36.5v-360q111 0 180.5 16t110.5 58t41 114zM1079 530q0 78 -40.5 120t-115.5 60t-207 18v-407q184 0 273.5 46t89.5 163zM1368 838q219 -130 219 -346q0 -94 -36 -179.5t-108 -156.5t-190 -112.5t-266 -41.5h-547q-143 0 -205.5 73 t-62.5 262v996q0 80 28.5 141t90.5 99t149 38h540q236 -2 392 -128t156 -324q0 -63 -10 -112t-31.5 -86.5t-49.5 -65.5t-69 -57z" />
<glyph unicode="C" horiz-adv-x="1843" d="M1114 1171q0 49 -41 84t-98 35q-113 0 -186 -128t-73 -290q0 -126 47.5 -226t136.5 -158.5t207 -58.5q88 0 168 34t129.5 75.5t102 75t93.5 33.5q51 0 88.5 -40.5t37.5 -85.5q0 -49 -29 -115.5t-93 -140.5t-148.5 -136.5t-210.5 -103.5t-265 -41q-184 0 -340.5 55 t-272 157.5t-181.5 258t-66 348.5q0 381 228.5 602.5t597.5 221.5q189 0 349.5 -63t254.5 -176.5t94 -247.5q0 -156 -104 -281.5t-268 -125.5q-94 0 -169.5 51.5t-75.5 148.5q0 45 43.5 124.5t43.5 113.5z" />
<glyph unicode="D" horiz-adv-x="1695" d="M704 321q61 0 107 12.5t87.5 46.5t67 91t41 145t15.5 209q0 134 -23.5 226.5t-68 141t-97.5 68.5t-129 22v-962zM775 1611q367 0 589.5 -212t222.5 -584q0 -119 -22.5 -232.5t-74 -221t-129.5 -186t-198 -127t-271 -48.5h-463q-144 0 -206.5 73t-62.5 264v994 q0 280 269 280h346z" />
<glyph unicode="E" horiz-adv-x="1582" d="M1110 956q125 0 175 -40t50 -136q0 -81 -59.5 -115t-187.5 -34h-382v-249l512 -2q132 0 189.5 -39.5t57.5 -138.5q0 -112 -67 -157t-204 -45h-763q-139 0 -204 74t-65 263v994q0 282 269 282h763q137 0 204 -42.5t67 -152.5q0 -104 -57.5 -145t-189.5 -41h-514v-276h406z " />
<glyph unicode="F" horiz-adv-x="1517" d="M688 328q0 -160 -71 -244t-205 -84q-128 0 -198 76.5t-70 260.5v994q0 75 20 130.5t57.5 88t84.5 48t106 15.5h772q137 0 204.5 -42.5t67.5 -152.5q0 -104 -58 -145t-189 -41h-521v-276h414q63 0 107.5 -9.5t71.5 -32t37 -54t10 -80.5q0 -81 -58.5 -115t-188.5 -34h-393 v-303z" />
<glyph unicode="G" horiz-adv-x="1841" d="M1065 1218q0 72 -97 72q-99 0 -169.5 -110t-70.5 -369q0 -241 81 -350.5t191 -109.5q36 0 65.5 14.5t48.5 42.5t19 68q-57 0 -98 21.5t-60 53t-19 69.5q0 85 44.5 127t154.5 42h284q137 0 212 -58.5t75 -207.5q0 -216 -207 -377.5t-492 -161.5q-261 0 -465 94t-323 281 t-119 444q0 381 231 602.5t613 221.5q150 0 270.5 -22.5t199 -59.5t131.5 -90t75.5 -112.5t22.5 -122.5q0 -45 -14.5 -86.5t-50.5 -82t-111.5 -66.5t-181.5 -26q-155 0 -197.5 46t-42.5 213z" />
<glyph unicode="H" horiz-adv-x="1836" d="M1703 353q0 -191 -68.5 -272t-207.5 -81q-137 0 -200 74t-63 263l-2 266h-481v-250q0 -193 -66 -273t-210 -80q-137 0 -200.5 74t-63.5 263l-6 994q0 146 74 214t196 68q141 0 208.5 -51.5t67.5 -209.5v-396h478v375q0 98 36.5 163t94 92t137.5 27q137 0 206.5 -51.5 t69.5 -209.5v-999z" />
<glyph unicode="I" horiz-adv-x="856" d="M706 353q0 -184 -68 -268.5t-207 -84.5q-137 0 -202 73t-65 262v996q0 282 267 282q137 0 206 -51.5t69 -209.5v-999z" />
<glyph unicode="J" horiz-adv-x="1549" d="M627 469q0 -68 39.5 -108t89.5 -40q58 0 84.5 31.5t26.5 116.5v862q0 143 62 212.5t206 69.5q128 0 201 -59t73 -202v-874q0 -258 -157 -376t-461 -118q-96 0 -178.5 14t-146.5 38.5t-116.5 58t-89 73t-65 83t-43.5 89.5t-23.5 87.5t-8.5 83.5q0 157 53.5 215t208.5 58 q125 0 192 -44.5t67 -121.5q0 -23 -7 -75.5t-7 -73.5z" />
<glyph unicode="K" horiz-adv-x="1697" d="M1245 775q120 -14 219.5 -121.5t99.5 -273.5q0 -163 -23.5 -242t-80 -108.5t-172.5 -29.5q-92 0 -152 26t-88 76.5t-28 130.5q0 104 -8.5 173.5t-21 110.5t-38.5 62t-51 27t-67 6h-126v-261q0 -189 -73 -270t-213 -81q-137 0 -202 76.5t-65 258.5v982q0 148 55.5 222 t180.5 74q72 0 120.5 -9.5t94.5 -34.5t68.5 -77.5t22.5 -134.5q0 -72 -1 -163.5t-1 -128.5q0 -31 15.5 -52.5t47 -34t78.5 -12.5q101 0 135 80t34 327q0 122 66 181t212 59q158 0 212.5 -61.5t54.5 -218.5q0 -259 -91.5 -401.5t-213.5 -156.5z" />
<glyph unicode="L" horiz-adv-x="1431" d="M452 0q-108 2 -174 34t-99 105t-33 196v996q0 125 73 203.5t193 78.5q141 0 208.5 -51.5t67.5 -209.5v-945h402q137 0 192 -39.5t55 -165.5q0 -127 -63 -164.5t-207 -37.5h-615z" />
<glyph unicode="M" horiz-adv-x="2234" d="M1548 862l-294 -603q-38 -76 -81 -107.5t-101 -31.5q-76 0 -128 53.5t-133 191.5l-274 497v-666q0 -102 -46 -149t-138 -47q-103 0 -150.5 46t-47.5 181v1027q0 181 83 272.5t278 91.5q73 0 127 -24.5t81 -56.5t53 -79l315 -690l335 678q88 169 313 170q106 0 182 -37 t119 -118t43 -203v-1025q-2 -233 -295 -233q-105 0 -172 57.5t-69 187.5v617z" />
<glyph unicode="N" horiz-adv-x="1820" d="M1663 224q0 -103 -61.5 -163.5t-178.5 -60.5q-31 0 -61.5 7t-64.5 26t-60 35.5t-65 50.5t-61.5 54t-69.5 65t-68 66l-431 407v-511q0 -115 -44 -157.5t-138 -42.5q-104 0 -153 47t-49 158v1137q0 135 68 203t196 68q87 0 140 -27t126 -98l595 -593v514q0 101 51 151.5 t138 50.5q101 0 146 -47t45 -153v-1187z" />
<glyph unicode="O" horiz-adv-x="1895" d="M946 330q81 0 138.5 71t82 174t24.5 221q0 119 -25.5 226.5t-83 183t-136.5 75.5q-75 0 -131.5 -75.5t-84.5 -183.5t-28 -226t27 -221t84.5 -174t132.5 -71zM946 -14q-232 0 -417 93t-296 279t-111 438q0 382 230 606.5t595 224.5t595.5 -224.5t230.5 -606.5 q0 -252 -111.5 -438t-297.5 -279t-418 -93z" />
<glyph unicode="P" horiz-adv-x="1647" d="M1011 1056q0 87 -16.5 137t-58 76t-90 34.5t-132.5 8.5v-518q66 0 116.5 12t93 40t65 81t22.5 129zM714 353q0 -191 -70.5 -272t-216.5 -81t-214.5 74t-68.5 263v994q0 143 77.5 212.5t205.5 69.5h418q153 0 283 -41t225.5 -115.5t148.5 -186t53 -248.5 q0 -166 -96.5 -290.5t-255 -185.5t-355.5 -61h-134v-132z" />
<glyph unicode="Q" horiz-adv-x="1895" d="M1578 -110q92 -5 137 -56.5t45 -175.5q0 -141 -75.5 -194t-212.5 -53t-258.5 39t-188 83.5t-119.5 99.5q-35 36 -64 90.5t-50.5 127.5t-25.5 151q-288 54 -466 262t-178 530q0 384 232 607.5t597 223.5q362 0 592 -223.5t230 -607.5q0 -309 -161 -512.5t-428 -269.5 q97 -106 394 -122zM1191 795.5q0 121.5 -24.5 228t-81 181t-134.5 74.5t-135.5 -75.5t-84.5 -182.5t-27 -227q0 -68 9.5 -134.5t30 -126t48.5 -104.5t69 -72t90 -27q81 0 137 71t79.5 172t23.5 222.5z" />
<glyph unicode="R" horiz-adv-x="1695" d="M1045 1144q0 113 -82 155.5t-278 42.5v-407q184 0 272 46t88 163zM685 353q0 -353 -276 -353q-139 0 -203.5 74t-64.5 263v994q0 136 74.5 208t193.5 72h495q290 0 469 -135.5t179 -347.5q0 -160 -67 -250.5t-215 -133.5q112 -7 209 -109.5t97 -254.5q0 -156 -29.5 -240 t-83.5 -112t-153 -28q-139 0 -204 57.5t-65 175.5q0 147 -28.5 225.5t-73 102t-124.5 23.5l-130 -2v-229z" />
<glyph unicode="S" horiz-adv-x="1634" d="M805 1630q281 0 478.5 -115t197.5 -245q0 -36 -15 -61t-37.5 -35t-48.5 -10q-43 0 -127.5 43t-188 86.5t-190.5 43.5q-139 0 -139 -112q0 -36 22.5 -67.5t72 -65.5t96.5 -60.5t129 -69.5t139 -76q181 -104 254 -198.5t73 -215.5q0 -488 -656 -488q-130 0 -251.5 26 t-212.5 68t-160 94t-104.5 106t-35.5 102q0 51 34 87.5t101 36.5q49 0 237 -62t304 -62q106 0 106 72q0 21 -8 38.5t-28 35.5t-45 33.5t-68.5 39l-87 47t-114.5 61t-136 75.5q-88 49 -150 122.5t-90 145t-28 132.5q0 198 176 323t501 125z" />
<glyph unicode="T" horiz-adv-x="1735" d="M1159 353q0 -135 -33.5 -213.5t-90.5 -109t-152 -30.5q-139 0 -201 74t-64 263l-6 869h-200q-149 0 -223 47t-74 167q0 73 30 115.5t88.5 60t157.5 17.5h1009q132 0 190.5 -47t58.5 -162q0 -78 -34.5 -121.5t-91 -60t-145.5 -16.5h-219v-853z" />
<glyph unicode="U" horiz-adv-x="1735" d="M1587 1331v-702q0 -344 -165.5 -493.5t-559.5 -149.5q-374 0 -549.5 160t-175.5 483v702q0 125 74 203.5t187 78.5q139 0 211 -51.5t72 -209.5v-768q2 -76 24.5 -120t60 -62t96.5 -18t96.5 14t55.5 45t23.5 61.5t5.5 79.5v771q0 80 20 133.5t61.5 79.5t85.5 35.5t104 9.5 q137 0 205 -66t68 -216z" />
<glyph unicode="V" horiz-adv-x="1770" d="M876 384q120 0 157 61t37 209q0 70 1 326t1 391q0 125 59.5 182.5t205.5 57.5q130 0 193.5 -65t90 -235.5t26.5 -519.5q0 -148 -34.5 -270.5t-94.5 -208t-135 -150.5t-162.5 -103t-172 -56.5t-167.5 -18.5q-101 0 -203.5 24.5t-207.5 85.5t-185 149.5t-130.5 231.5 t-50.5 316q0 349 28 519.5t96.5 235.5t209.5 65q132 0 186 -58t54 -182q0 -137 1.5 -390t1.5 -324q0 -61 3.5 -97.5t13.5 -74.5t31.5 -58t57 -31.5t89.5 -11.5z" />
<glyph unicode="W" horiz-adv-x="2401" d="M1562 370q92 0 127 100t35 326l4 577q0 125 58.5 182.5t198.5 57.5q87 0 140 -28t91 -110.5t52.5 -223.5t14.5 -375q0 -139 -23.5 -259t-64 -210t-95.5 -161t-116.5 -118.5t-130 -79.5t-133 -44.5t-126.5 -12.5q-212 0 -383 134q-169 -139 -384 -139q-92 0 -184 27 t-187.5 93t-168.5 163.5t-119 254.5t-46 348q0 308 30 465.5t89.5 214.5t174.5 57q97 0 154 -27t80.5 -79t23.5 -135l2 -574q0 -227 35 -328t139 -101q52 0 77.5 43.5t36.5 140.5q-31 136 -31 426q0 162 6.5 259t21 167.5t47.5 101t74.5 43.5t113.5 13q43 0 75 -2t60 -14 t46.5 -21.5t35 -35.5t26.5 -44.5t18 -61.5t11.5 -74.5t4.5 -94t2.5 -108t1.5 -130.5q0 -297 -31 -438q9 -85 35.5 -125t80.5 -40z" />
<glyph unicode="X" horiz-adv-x="1796" d="M549 800l-322 314q-97 104 -97 198q0 115 99 205q108 96 193 96q104 0 181 -92l301 -386l251 335q115 141 258 141q99 0 184 -83q97 -99 97 -188q0 -104 -139 -248l-279 -263l318 -332q99 -111 100 -196q0 -117 -100 -204q-108 -99 -192 -99q-106 0 -182 92l-303 395 l-250 -341q-110 -144 -258 -144q-96 0 -182 87q-97 97 -97 187q0 96 136 247z" />
<glyph unicode="Y" horiz-adv-x="1674" d="M1107 353q0 -191 -68 -272t-210 -81q-137 0 -200 74t-67 263l-2 382l-362 423q-99 113 -99 195q0 130 99 205q94 70 167 71q101 0 181 -92l288 -334l240 280q120 144 257 144q101 0 157 -56q97 -97 97 -187q0 -49 -33 -104t-106 -143l-339 -415v-353z" />
<glyph unicode="Z" horiz-adv-x="1782" d="M1411 382q70 0 117.5 -11t74.5 -36t37.5 -57.5t10.5 -81.5q0 -120 -75 -158t-262 -38h-883q-65 0 -132.5 39t-112.5 108t-45 147q0 71 8.5 117t38.5 95t55 79t92 98l600 546h-478q-158 0 -228.5 46t-70.5 154q0 102 58 143t170 41h964q70 0 124 -24.5t82.5 -63.5 t42.5 -76.5t14 -70.5q0 -43 -2 -75.5t-13 -62t-15.5 -46t-27 -45t-31.5 -38t-45 -46t-50 -50.5l-687 -633h669z" />
<glyph unicode="[" horiz-adv-x="1124" d="M250 -113v1740q0 142 61.5 199.5t232.5 57.5h254q122 0 188 -49.5t66 -126.5q0 -180 -284 -180v-1544q285 0 284 -180q0 -80 -65.5 -129.5t-188.5 -49.5l-254 2q-173 0 -233.5 57t-60.5 203z" />
<glyph unicode="\" horiz-adv-x="1285" d="M647 117l-537 1294q-20 49 -20 84q0 87 103.5 153.5t215.5 66.5q71 0 116 -30.5t73 -97.5l532 -1293q23 -63 25 -101q0 -58 -47.5 -112.5t-120.5 -87.5t-144 -33q-73 0 -117.5 37t-78.5 120z" />
<glyph unicode="]" horiz-adv-x="1122" d="M876 -113q0 -99 -24.5 -153.5t-88.5 -80.5t-181 -26l-254 -2q-122 0 -189 49.5t-67 129.5q0 95 80.5 137.5t205.5 42.5v1544q-126 0 -206 42.5t-80 137.5q0 78 66.5 127t189.5 49h254q172 0 233 -57.5t61 -199.5v-1740z" />
<glyph unicode="^" horiz-adv-x="1130" d="M886 631q119 -119 119 -197q0 -66 -53 -114.5t-116 -48.5q-56 0 -128 73q-11 14 -34 38q-33 35 -47.5 49t-32 25t-33 11t-33 -11t-29 -22.5t-36.5 -40t-39 -42.5q-70 -76 -136 -75q-68 0 -119.5 47t-51.5 111q0 18 5.5 36t11 29.5t18 30.5t19 25.5t24 27t21.5 24.5 q162 191 342 191q76 0 144 -30.5t100 -58.5t84 -78z" />
<glyph unicode="_" horiz-adv-x="1532" d="M1286 335q103 0 144.5 -36t41.5 -132.5t-48.5 -131.5t-160.5 -35h-1070q-80 0 -114 41.5t-34 122.5t36 126t128 45h1077z" />
<glyph unicode="`" horiz-adv-x="872" d="M384 1795l270 -170q3 -2 23 -16.5t24.5 -18t21 -16t21.5 -19.5t17 -20.5t15.5 -25t7 -28t3.5 -32.5q0 -59 -44 -100t-114 -41q-52 0 -108 18l-288 97q-146 54 -146 174q0 83 51 155.5t133 72.5q59 1 113 -30z" />
<glyph unicode="a" horiz-adv-x="1468" d="M530 -14q-186 0 -308.5 152t-122.5 415q0 268 121.5 427.5t309.5 159.5q191 0 353 -135q63 117 205 119q128 0 198.5 -55.5t70.5 -203.5v-613q0 -142 -59 -197t-208 -55q-155 0 -204 87q-151 -101 -356 -101zM850 780q-40 68 -104 68q-61 0 -98.5 -89.5t-37.5 -205.5 q0 -108 35.5 -192.5t98.5 -84.5q66 0 106 63v441z" />
<glyph unicode="b" horiz-adv-x="1481" d="M629 1027q155 115 337 115q184 0 306 -155.5t122 -393.5q0 -287 -186 -448t-482 -161q-182 0 -317 51.5t-212 155t-80 249.5l-4 888q0 146 70.5 214.5t189.5 68.5q132 0 194 -62.5t62 -198.5v-323zM631 360q43 -81 118 -79q63 0 98.5 79.5t35.5 183.5q0 56 -9 110t-26 98 t-42.5 71t-59.5 27q-72 0 -115 -86v-176v-228z" />
<glyph unicode="c" horiz-adv-x="1409" d="M805 881q0 54 -61 54q-45 0 -80 -49.5t-54 -123.5t-19 -155q0 -117 72 -190t194 -73q119 0 208 29q36 9 86 35t71 26q34 0 54.5 -12.5t29 -28.5t8.5 -35q0 -34 -22 -80.5t-69.5 -98t-110 -95.5t-154 -72t-192.5 -28q-292 0 -480.5 156.5t-188.5 429.5q0 175 85.5 305 t236.5 197.5t347 67.5q186 0 307 -44t172.5 -117t51.5 -174q0 -45 -17 -91.5t-54 -93.5t-107.5 -77t-165.5 -30q-42 0 -69 5t-56.5 20t-43.5 50.5t-14 89.5q0 48 17.5 115t17.5 88z" />
<glyph unicode="d" horiz-adv-x="1472" d="M1364 353q0 -191 -64 -272t-195 -81q-151 0 -208 94q-153 -110 -369 -110q-184 0 -306.5 152t-122.5 415q0 268 120 427t309 159q169 0 317 -108v302q0 143 71 212.5t189 69.5q130 0 194.5 -51.5t64.5 -209.5v-999zM850 339l-2 441q-41 65 -104 65q-40 0 -71.5 -44.5 t-48.5 -110.5t-17 -139q0 -108 35.5 -192.5t99.5 -84.5q11 0 23 2t21.5 5.5t19 9.5t16.5 12.5t14 16.5t14 19z" />
<glyph unicode="e" d="M756 -14q-288 0 -475 148.5t-187 404.5q0 279 184.5 440t477.5 161q276 0 404 -98t128 -267q0 -33 -8 -63.5t-26 -60t-47 -54t-67 -45t-90 -31t-110 -10.5l-333 -3q23 -76 84.5 -119t156.5 -43q101 0 208 27q45 11 97.5 37t75.5 26q41 0 63 -23.5t22 -59.5 q0 -43 -37.5 -102.5t-104.5 -120t-178 -102.5t-238 -42zM596 659q162 2 177 2q35 0 52 43q11 31 11 85q0 148 -90 148q-33 0 -64.5 -35t-55 -100t-30.5 -143z" />
<glyph unicode="f" horiz-adv-x="1106" d="M798 1239q-49 -41 -49 -187q157 0 218.5 -29t61.5 -128q0 -81 -66 -105t-214 -24v-413q0 -200 -62.5 -276.5t-196.5 -76.5q-132 0 -193 74t-61 263l2 429q-175 2 -175 136q0 139 177 148q3 304 88.5 432.5t330.5 128.5q195 0 305 -80t110 -163q0 -35 -29.5 -62t-83.5 -27 q-116 0 -163 -40z" />
<glyph unicode="g" horiz-adv-x="1468" d="M537 -14q-186 0 -308.5 152t-122.5 417q0 268 120 426.5t309 158.5q191 0 353 -131q61 115 202 115q128 0 200 -56.5t72 -202.5v-431q0 -229 -29.5 -392.5t-101.5 -289t-198.5 -186t-309.5 -60.5q-127 0 -235 35t-172 86.5t-99 104t-35 89.5q0 44 25.5 75.5t73.5 31.5 q28 0 142 -62t184 -62q241 0 241 248q-136 -66 -311 -66zM857 339l-3 445q-40 66 -101 66q-42 0 -74 -44.5t-46.5 -110.5t-14.5 -140q0 -110 35 -193.5t98 -83.5t106 61z" />
<glyph unicode="h" horiz-adv-x="1468" d="M845 631q0 135 -103 135q-19 0 -34.5 -5t-28 -12t-23.5 -20t-19 -28.5t-11.5 -36.5t-3.5 -46v-260q0 -194 -62.5 -275t-189.5 -81q-132 0 -193.5 74.5t-61.5 262.5l-5 1003q0 146 71 214.5t189 68.5q126 0 189 -52t63 -209v-342q175 106 423 106q113 0 181.5 -57.5 t102 -182t33.5 -328.5q0 -103 -3.5 -178.5t-11 -137.5t-21.5 -102.5t-33 -68.5t-48 -43.5t-65 -22.5t-85 -7q-132 0 -189.5 48.5t-57.5 147.5z" />
<glyph unicode="i" horiz-adv-x="717" d="M101 1451q0 79 67.5 129t189.5 50q256 0 257 -179q0 -99 -65 -139t-192 -40q-111 0 -184 42.5t-73 136.5zM612 252q0 -142 -59 -197t-207 -55q-139 0 -189.5 65t-50.5 213v579q0 119 65 193t173 74q128 0 198 -55.5t70 -203.5v-613z" />
<glyph unicode="j" horiz-adv-x="800" d="M678 876v-766q0 -263 -101 -427t-323 -164q-249 0 -403.5 75.5t-154.5 160.5q0 63 48.5 90t168.5 27q65 0 103 6.5t77 29t56.5 73t17.5 132.5v728q0 146 71.5 214.5t190.5 68.5q108 0 178.5 -72t70.5 -176zM160 1451q0 79 67 129t189 50q257 0 258 -179q0 -99 -65 -139 t-193 -40q-110 0 -183 42.5t-73 136.5z" />
<glyph unicode="k" horiz-adv-x="1371" d="M711 335h-84q0 -122 -71 -228.5t-189 -106.5q-132 0 -194.5 74t-62.5 263v968q0 101 33.5 163.5t86.5 88t137 30.5q146 0 195.5 -97.5t49.5 -338.5q0 -186 -21 -326q16 -52 106 -52q56 0 76.5 24.5t20.5 99.5q0 110 58 160t196 50q146 0 196.5 -53.5t50.5 -191.5 q0 -146 -87 -226.5t-195 -80.5q111 0 196.5 -66.5t85.5 -200.5q0 -180 -48.5 -234t-198.5 -54q-140 0 -197 50.5t-57 158.5q0 54 -9.5 81t-25 36t-48.5 9z" />
<glyph unicode="l" horiz-adv-x="733" d="M627 355q0 -191 -64 -273t-196 -82t-193 74t-61 263l-5 994q0 61 13.5 108t35.5 80t55 54t72 30.5t83 9.5q130 0 195 -51.5t65 -209.5v-997z" />
<glyph unicode="m" horiz-adv-x="2130" d="M1505 622q0 132 -105 131q-48 0 -71.5 -54t-23.5 -137q0 -125 -4 -206.5t-15.5 -148t-28 -104t-45 -62.5t-63.5 -33t-89 -8q-82 0 -133 23.5t-72 66t-21 106.5v426q0 132 -106 131q-43 0 -70 -48t-27 -125v-328q0 -142 -59 -197t-207 -55q-140 0 -190 65t-50 213v579 q0 119 64.5 193t172.5 74q193 0 245 -126q90 66 176 92.5t201 26.5q175 0 252 -151l24 18q182 133 445 133q167 0 240 -127.5t73 -427.5q0 -125 -3.5 -206.5t-15 -148t-29 -104t-50 -62.5t-71 -33t-96.5 -8q-90 0 -145.5 23.5t-79 66t-23.5 106.5v426z" />
<glyph unicode="n" horiz-adv-x="1450" d="M831 634q0 132 -103 132q-50 0 -81.5 -41.5t-36.5 -109.5v-363q0 -144 -59 -198t-207 -54q-139 0 -189.5 65t-50.5 213v579q0 119 64.5 193t173.5 74q89 0 150 -26t92 -89q184 119 448 119q166 0 240.5 -131.5t74.5 -434.5q0 -148 -7 -240.5t-22 -160t-48.5 -100t-77 -47 t-111.5 -14.5q-132 0 -189.5 49.5t-57.5 146.5z" />
<glyph unicode="o" horiz-adv-x="1485" d="M869 558q0 122 -31 215.5t-89 93.5q-41 0 -71.5 -47t-44 -115.5t-13.5 -146.5q0 -120 32.5 -211t93.5 -91t92 90t31 212zM746 -16q-184 0 -331 65.5t-235 198t-88 307.5q0 268 183.5 426.5t471 158.5t468.5 -157.5t181 -427.5q0 -265 -184.5 -418t-465.5 -153z" />
<glyph unicode="p" horiz-adv-x="1461" d="M629 -137q0 -191 -64 -272t-195 -81q-132 0 -193.5 74t-61.5 263l-5 994q0 146 71 214.5t189 68.5q92 0 148.5 -22.5t84.5 -88.5q162 128 348 127q189 0 309 -157.5t120 -429.5q0 -263 -122.5 -415t-308.5 -152q-180 0 -320 80v-203zM629 342q40 -66 106 -66 q63 0 98.5 84.5t35.5 192.5q0 115 -37.5 205t-98.5 90q-64 0 -104 -68v-438z" />
<glyph unicode="q" horiz-adv-x="1474" d="M862 101q-155 -115 -336 -115q-184 0 -306.5 155.5t-122.5 393.5q0 285 194 443.5t503 158.5q265 0 422 -116.5t157 -332.5l5 -888q0 -146 -71 -214.5t-188 -68.5q-128 0 -193.5 69.5t-65.5 191.5zM860 768q-40 81 -114 80q-58 0 -91 -80t-33 -184q0 -119 35 -212.5 t92 -93.5q70 0 111 87v403z" />
<glyph unicode="r" horiz-adv-x="1110" d="M615 252q0 -142 -59 -197t-210 -55q-139 0 -188.5 65t-49.5 213v579q0 80 28 140.5t83 93.5t127 33q180 0 236 -104q137 104 263 104q247 0 247 -236q0 -94 -54 -153t-141 -59q-52 0 -83.5 21.5t-58.5 42.5t-63 21q-51 0 -77 -35v-474z" />
<glyph unicode="s" horiz-adv-x="1322" d="M661 1140q219 0 365.5 -89.5t146.5 -196.5q0 -31 -26 -56t-66 -25q-36 0 -78 24.5t-79.5 53t-98.5 52t-130 23.5q-92 0 -92 -57q0 -40 47 -63.5t138 -49.5t138 -50q177 -68 242.5 -146.5t65.5 -208.5q0 -63 -35 -126t-106 -118t-192 -89t-277 -34q-303 0 -455 138 q-72 68 -72 141q0 45 29 71t83 26t165 -53t206 -53q130 0 128 63q0 34 -67.5 54t-178.5 48t-177 71q-103 45 -144.5 112t-41.5 164q0 164 156.5 269t405.5 105z" />
<glyph unicode="t" horiz-adv-x="1179" d="M227 504v278q-59 2 -94.5 20t-51 46t-15.5 71q0 134 163 146v218q0 90 129.5 162t256.5 72q78 0 101 -45t23 -135l3 -270h63q130 0 178.5 -34.5t48.5 -122.5q0 -38 -14.5 -64t-46 -40.5t-76.5 -20t-111 -5.5h-42v-259q0 -38 3.5 -62.5t11 -39t20 -19t30.5 -4.5 q29 0 48 20t29.5 44.5t28 45t40.5 20.5q54 0 84 -26t30 -64q0 -63 -24.5 -136t-72 -141.5t-131 -113.5t-187.5 -45q-233 0 -329 118t-96 386z" />
<glyph unicode="u" horiz-adv-x="1472" d="M624 497q0 -135 104 -135q36 0 63 22.5t40.5 63t13.5 91.5v315q0 81 28.5 141.5t83 93t126.5 32.5q128 0 198.5 -55t70.5 -204v-612q0 -144 -59 -198t-207 -54q-64 0 -108.5 12.5t-71.5 39t-41 67.5q-97 -63 -204.5 -89t-238.5 -26q-167 0 -240.5 130.5t-73.5 429.5 q0 149 7 242t22.5 160.5t47 100t75.5 47t115 14.5q132 0 189.5 -49.5t57.5 -148.5z" />
<glyph unicode="v" horiz-adv-x="1452" d="M723 353q68 0 87 39t19 143l2 379q0 73 25 117.5t83.5 68.5t157.5 24q63 0 103.5 -14.5t71.5 -46t45 -96.5t20.5 -155.5t6.5 -229.5q0 -128 -39.5 -229t-102 -166t-145 -108t-164.5 -61t-166 -18t-166.5 18t-166.5 61t-147 108t-103 166t-40 229q0 231 21 342.5 t71.5 155.5t154.5 44q146 0 207.5 -51t61.5 -159l2 -377v-56t2.5 -43.5t9.5 -37t17 -25t28 -18t44 -4.5z" />
<glyph unicode="w" horiz-adv-x="2095" d="M1389 353q61 0 76.5 29.5t15.5 109.5l3 422q0 108 61.5 159t207.5 51q63 0 103 -14.5t69.5 -46t44.5 -96.5t22.5 -155.5t7.5 -231.5q0 -126 -39 -228t-99 -166t-140.5 -107t-160.5 -61t-159 -18q-191 0 -352 120q-158 -120 -348 -120q-81 0 -160 18t-160 61t-142 107 t-100 166t-39 228q0 233 21.5 344.5t71 155.5t154.5 44q99 0 158.5 -24t84 -68.5t24.5 -117.5l3 -420q0 -35 1 -50t5.5 -37.5t13.5 -31t26 -15.5t42 -7q94 0 112 54q-21 142 -22 304q0 137 9.5 213t41.5 123.5t79 62t134 14.5q78 0 122.5 -14.5t72.5 -62t38 -123.5t10 -213 q0 -165 -20 -306q17 -52 106 -52z" />
<glyph unicode="x" horiz-adv-x="1416" d="M711 233q-5 -6 -31 -32t-34 -36t-32.5 -34.5t-38 -35t-36.5 -29.5t-40.5 -27t-39 -19t-42.5 -15.5t-42 -4.5q-104 0 -198 84.5t-94 181.5q0 23 19.5 52.5t58.5 65.5t68.5 62t75.5 61t55 44q-18 14 -53.5 43.5t-59 51t-54.5 53t-48 61t-31.5 67.5t-14.5 77 q0 80 77.5 148.5t160.5 68.5q45 0 87.5 -19t81 -53t70 -68.5t70.5 -80.5t65 -69q26 23 80 87t90 101t92 69.5t110 32.5q34 0 69 -13t64 -35.5t54 -49.5t38 -58.5t13 -62.5q0 -41 -14 -79.5t-54 -84.5t-57.5 -66t-75.5 -71l-57 -50q7 -9 54 -44t76 -61t66.5 -62t57.5 -65 t20 -53q0 -97 -94 -181.5t-198 -84.5q-23 0 -47.5 7t-44.5 15.5t-46 27t-41.5 30.5t-42.5 38t-37.5 36t-39 41.5t-35.5 37.5z" />
<glyph unicode="y" horiz-adv-x="1429" d="M1328 665q0 -403 -23 -564q-18 -144 -58.5 -248.5t-113.5 -185.5t-186 -121t-269 -40q-125 0 -232 36t-169.5 89.5t-97.5 105t-35 89t24.5 70t67.5 32.5q31 0 71.5 -19t78.5 -43t90 -43t101 -19q128 0 181 64t53 181q-41 -16 -78.5 -28t-73 -19t-67.5 -9t-62 -2 q-139 0 -238 77.5t-142.5 192t-43.5 245.5q0 132 3.5 224t15.5 164t27 114t43.5 69.5t63.5 37t85 9.5q148 0 208 -51t60 -159l3 -379v-56t3.5 -44t9.5 -37.5t16 -24.5t28 -17.5t44 -4.5q71 0 88.5 39t17.5 142l3 382q0 73 24.5 117.5t83 68.5t159.5 24q61 0 105 -20.5 t70 -52t39 -94t17.5 -126t4.5 -166.5z" />
<glyph unicode="z" horiz-adv-x="1311" d="M1065 297q68 0 106 -19t51.5 -54t13.5 -96q0 -79 -53 -103.5t-187 -24.5h-695q-80 0 -147 55t-67 145q0 99 26 154t118 147l308 326h-172q-128 0 -183.5 35t-55.5 116q0 87 39.5 116.5t167.5 29.5h715q87 0 138 -48.5t51 -133.5q0 -81 -21.5 -123t-110.5 -143l-356 -382z " />
<glyph unicode="{" horiz-adv-x="1292" d="M852 1526q0 -726 -174 -773q175 -35 174 -769q126 0 207 -42.5t81 -137.5q0 -78 -65.5 -127.5t-188.5 -49.5h-255q-172 0 -233 57t-61 203v697q-184 27 -184 174q0 65 48.5 112t135.5 60v695q0 144 61 201.5t233 57.5h255q121 0 187.5 -49.5t66.5 -129.5 q0 -94 -81 -136.5t-207 -42.5z" />
<glyph unicode="|" horiz-adv-x="798" d="M659 66zM659 66q0 -238 -259 -238q-87 0 -141 18.5t-84.5 68t-30.5 132.5v1443q0 57 19 98.5t54 65t81 35.5t102 12q40 0 70.5 -2.5t61 -10t53 -20t39.5 -32.5t26 -50.5t9 -73.5v-1446z" />
<glyph unicode="}" horiz-adv-x="1308" d="M457 1526q-126 0 -207 42.5t-81 136.5q0 81 66 130t189 49h254q173 0 234 -57.5t61 -201.5v-695q90 -13 137 -59t47 -113q0 -148 -184 -174v-697q0 -99 -25 -153.5t-88.5 -80.5t-181.5 -26h-254q-122 0 -188.5 49.5t-66.5 127.5q0 95 81.5 137.5t206.5 42.5 q0 735 174 769q-174 47 -174 773z" />
<glyph unicode="~" horiz-adv-x="1117" d="M365 290q0 -83 -68 -140.5t-169 -57.5q-137 0 -184.5 68.5t-47.5 199.5q0 92 33 173.5t106 137t172 55.5q59 0 121.5 -12t114 -29.5t101 -39t89 -42.5t67.5 -39t44 -27l14 -11q0 80 69.5 140t168.5 60q137 0 185 -68.5t48 -198.5q0 -146 -82 -256.5t-230 -110.5 q-97 0 -188 30.5t-146 68.5t-114.5 68.5t-103.5 30.5z" />
<glyph unicode="&#xa2;" horiz-adv-x="1409" d="M805 1015q0 55 -61 55q-45 0 -80 -48.5t-54 -122.5t-19 -157q0 -115 72 -188t194 -73q119 0 208 25q36 9 86 36.5t71 27.5q48 0 70 -23.5t22 -52.5q0 -78 -97.5 -187t-255.5 -159v-143q0 -92 -27.5 -145t-74 -73t-124.5 -20q-113 0 -166 48t-53 173v165 q-193 59 -306 201.5t-113 351.5q0 200 112 340.5t307 196.5l3 153q0 70 30.5 119t77.5 69t112 20q109 0 165.5 -38t56.5 -150v-153q337 -59 336 -323q0 -45 -17 -92.5t-54 -93.5t-107.5 -76.5t-165.5 -30.5q-42 0 -69 5t-56.5 21.5t-43.5 50.5t-14 89q0 49 17.5 115.5 t17.5 86.5z" />
<glyph unicode="&#xa3;" horiz-adv-x="1308" d="M867 1052v-72h97q89 0 126.5 -31.5t37.5 -112.5q0 -87 -31.5 -115.5t-132.5 -28.5h-95v-310h127q106 0 146 -41.5t40 -149.5t-48 -149.5t-159 -41.5h-730q-151 0 -151 186q0 83 28.5 122.5t95.5 61.5q86 27 111.5 51t25.5 80v191h-72q-158 0 -158 139q0 68 38.5 108.5 t119.5 40.5h75v70q2 304 88 432.5t331 128.5q196 0 305 -80t109 -163q0 -35 -29 -62t-83 -27q-115 0 -162 -40q-50 -41 -50 -187z" />
<glyph unicode="&#xa5;" horiz-adv-x="1701" d="M1267 393q88 0 126.5 -27t38.5 -95q0 -67 -36.5 -92.5t-128.5 -25.5h-188q-57 -153 -250 -153q-99 0 -156.5 35t-86.5 118h-209q-157 0 -159 118q0 61 33.5 91.5t125.5 30.5h185v135h-185q-157 0 -159 117q0 40 12.5 65t47.5 41.5t99 16.5h142l-321 374q-99 113 -99 195 q0 130 99 205q94 70 167 71q101 0 181 -92l288 -334l240 280q120 144 257 144q101 0 157 -56q97 -97 97 -187q0 -49 -33 -104t-106 -143l-289 -353h110q90 0 127.5 -27t37.5 -96q0 -23 -3.5 -41t-13 -32t-21.5 -22t-32 -13t-42.5 -7t-52.5 -2h-160v-135h160z" />
<glyph unicode="&#xa8;" horiz-adv-x="1063" d="M568 1894q0 76 63.5 123.5t181.5 47.5q247 0 247 -171q0 -97 -63.5 -134.5t-183.5 -37.5q-106 0 -175.5 41t-69.5 131zM0 1894q0 76 64 123.5t181 47.5q247 0 247 -171q0 -97 -62.5 -134.5t-184.5 -37.5q-106 0 -175.5 41t-69.5 131z" />
<glyph unicode="&#xa9;" horiz-adv-x="1259" d="M652 1378q0 18 11 48t11 39q0 40 -36 40q-33 0 -55.5 -48t-22.5 -107q0 -63 39 -102t105 -39q72 0 125 13q19 7 46 22.5t39 15.5q34 0 51 -15.5t17 -35.5q0 -66 -94 -148.5t-238 -82.5q-175 0 -286.5 94t-111.5 256q0 156 111 246.5t287 90.5q315 0 316 -198 q0 -63 -49.5 -118.5t-155.5 -55.5q-35 0 -55.5 5t-37 23.5t-16.5 56.5zM139 1326q0 -186 146 -315.5t353 -129.5q205 0 347.5 129.5t142.5 315.5t-142.5 315.5t-347.5 129.5q-207 0 -353 -129.5t-146 -315.5zM-9 1326q0 245 189.5 418t457.5 173q264 0 450 -173t186 -418 t-186 -418t-450 -173q-268 0 -457.5 173t-189.5 418z" />
<glyph unicode="&#xab;" horiz-adv-x="1881" d="M688 153l-479 355q-89 64 -89 182q0 110 82 175l410 333q125 97 224 97q52 0 103.5 -54t51.5 -122q0 -21 -8 -42t-27 -44.5t-46 -47.5t-67 -57l-283 -231l288 -219q94 -65 120 -107.5t26 -96.5q0 -68 -52 -122.5t-101 -54.5q-73 0 -153 56zM1517 153l-479 355 q-89 64 -89 182q0 110 83 175l411 333q126 97 225 97q51 0 103 -54t52 -122q0 -31 -17 -59t-47.5 -58.5t-86.5 -73.5l-280 -231l287 -219q94 -65 120 -107.5t26 -96.5q0 -45 -24.5 -87.5t-61 -66t-69.5 -23.5q-73 0 -153 56z" />
<glyph unicode="&#xad;" horiz-adv-x="924" d="M618 815q85 0 133.5 -17.5t70 -58t21.5 -108.5q0 -87 -58.5 -121t-188.5 -34h-322q-191 0 -191 165q0 174 207 174h328z" />
<glyph unicode="&#xae;" horiz-adv-x="1292" d="M723 1469.5q0 40.5 -24.5 54.5t-95.5 14v-142q65 0 92.5 16.5t27.5 57zM603 1144q0 -146 -113 -146q-56 0 -83 31t-27 108v407q0 57 30 87t80 30h179q120 0 193 -54.5t73 -143.5q0 -126 -115 -158q47 -2 85.5 -44.5t38.5 -105.5q0 -95 -24.5 -126t-83.5 -31 q-110 0 -110 97q0 87 -17 115.5t-52 28.5h-54v-95zM155 1326q0 -186 146 -315.5t353 -129.5q203 0 346.5 129.5t143.5 315.5t-143.5 315.5t-346.5 129.5q-207 0 -353 -129.5t-146 -315.5zM7 1326q0 245 188.5 418t458.5 173q264 0 450 -173t186 -418t-185.5 -418 t-450.5 -173q-271 0 -459 173t-188 418z" />
<glyph unicode="&#xb4;" horiz-adv-x="872" d="M490 1795q52 31 113 30q82 0 133 -73t51 -155q0 -117 -146 -174l-288 -97q-59 -18 -108 -18q-47 0 -83.5 18t-55.5 50.5t-19 72.5q0 85 95 151l36 25z" />
<glyph unicode="&#xb8;" horiz-adv-x="1409" d="M860 -85q99 -50 99 -174q0 -143 -99 -232t-233 -89q-38 0 -86.5 10t-99 27t-84.5 51.5t-34 79.5q0 54 38.5 105t78.5 51q17 0 50 -14.5t45 -14.5q20 0 37 19t17 44q0 21 -46 55.5t-46 60.5q0 14 19 59t37 80l20 37h306q-50 -96 -50 -124q0 -17 31 -31z" />
<glyph unicode="&#xbb;" horiz-adv-x="1964" d="M1256 153q-81 -56 -154 -56q-52 0 -104 54t-52 123q0 54 26 96t120 108l288 219l-281 231q-82 63 -115 104.5t-33 86.5q0 68 52.5 122t101.5 54q101 0 226 -97l409 -333q83 -63 83 -175q0 -117 -90 -182zM424 153q-80 -56 -153 -56q-49 0 -101.5 54t-52.5 123q0 54 26 96 t118 108l290 219l-283 231q-83 63 -115.5 104.5t-32.5 86.5t24.5 87t61.5 65.5t70 23.5q99 0 223 -97l411 -333q82 -63 81 -175q0 -117 -89 -182z" />
<glyph unicode="&#xc4;" horiz-adv-x="1676" d="M843 1229q-101 0 -149.5 -58.5t-48.5 -209.5v-278h391v283q0 146 -48 204.5t-145 58.5zM1036 358h-391v-125q0 -119 -63 -176t-220 -57q-65 0 -107.5 19t-74.5 64t-47.5 130.5t-23.5 207t-8 307.5q0 139 26 259t68.5 209.5t102.5 161t126 119t140 79t145 44.5t139 13 q98 0 195 -27t195.5 -93t173 -163.5t121.5 -253t47 -348.5q0 -155 -4.5 -264t-16 -193.5t-29.5 -134t-48.5 -81.5t-69.5 -43.5t-93 -11.5q-103 0 -167 27t-90 76.5t-26 129.5v125zM899 1939q0 76 64 123.5t181 47.5q248 0 248 -171q0 -97 -62.5 -135t-185.5 -38 q-106 0 -175.5 41.5t-69.5 131.5zM332 1939q0 76 64.5 123.5t180.5 47.5q248 0 248 -171q0 -97 -63 -135t-185 -38q-105 0 -175 41.5t-70 131.5z" />
<glyph unicode="&#xc6;" horiz-adv-x="2218" d="M959 367l-321 3v-195q-4 -90 -67 -132.5t-198 -42.5q-146 0 -204.5 75.5t-58.5 291.5q0 139 18 361q16 193 69 346t132.5 253t188.5 165t225.5 93t252.5 28h910q136 0 203 -43.5t67 -151.5q0 -104 -57.5 -145t-189.5 -41h-431v-276h322q126 0 176.5 -40t50.5 -136 q0 -41 -15.5 -69t-46 -46t-76.5 -26t-109 -8h-299v-249l428 -2q132 0 189.5 -39.5t57.5 -138.5q0 -112 -67 -157t-203 -45h-679h-2q-139 0 -201.5 81t-64.5 286zM964 672l-3 555q-101 0 -177 -60t-92 -208q-11 -92 -23 -287h295z" />
<glyph unicode="&#xc7;" horiz-adv-x="1843" d="M1126 -153q96 -49 96 -172q0 -144 -97.5 -232t-232.5 -88q-40 0 -88 8t-99 27t-83.5 53t-32.5 76q0 57 38 106.5t77 49.5q14 0 33 -7t35.5 -13t27.5 -6q21 0 37.5 18t16.5 43q0 23 -45 57.5t-45 57.5q0 34 67 170q-320 41 -515.5 253.5t-195.5 554.5q0 381 228.5 602.5 t597.5 221.5q189 0 349.5 -63t254.5 -176.5t94 -247.5q0 -99 -43.5 -191t-131 -154t-197.5 -62q-94 0 -169.5 51.5t-75.5 148.5q0 45 43.5 124.5t43.5 113.5q0 49 -41 84t-98 35q-113 0 -186 -128t-73 -290q0 -191 107 -317t284 -126q88 0 168 34t129.5 75.5t102 75 t93.5 33.5q51 0 88.5 -40.5t37.5 -85.5q0 -43 -23.5 -99.5t-73 -122.5t-116.5 -125t-165 -107.5t-208 -66.5q-45 -94 -45 -122q0 -15 31 -31z" />
<glyph unicode="&#xd6;" horiz-adv-x="1895" d="M946 330q61 0 110 41t77.5 108t43 148t14.5 169q0 119 -25.5 226.5t-83 183t-136.5 75.5q-75 0 -131.5 -75.5t-84.5 -183.5t-28 -226t27 -221t84.5 -174t132.5 -71zM946 -14q-172 0 -322 54t-262 155.5t-176 256.5t-64 344q0 382 230 606.5t595 224.5t595.5 -224.5 t230.5 -606.5q0 -252 -111.5 -438t-297.5 -279t-418 -93zM998 1946q0 76 64 123.5t181 47.5q247 0 247 -171q0 -97 -63 -135t-184 -38q-106 0 -175.5 41.5t-69.5 131.5zM431 1946q0 76 63.5 123.5t181.5 47.5q247 0 247 -171q0 -97 -62.5 -135t-184.5 -38 q-106 0 -175.5 41.5t-69.5 131.5z" />
<glyph unicode="&#xe4;" horiz-adv-x="1468" d="M530 -14q-186 0 -308.5 152t-122.5 415q0 180 56.5 313.5t153 203.5t221.5 70q191 0 353 -135q63 117 205 119q128 0 198.5 -55.5t70.5 -203.5v-613q0 -142 -59 -197t-208 -55q-155 0 -204 87q-151 -101 -356 -101zM850 780q-40 68 -104 68q-61 0 -98.5 -89.5 t-37.5 -205.5q0 -108 35.5 -192.5t98.5 -84.5q66 0 106 63v441zM829 1425q0 76 65 124t180 48q247 0 247 -172q0 -97 -62.5 -134t-184.5 -37q-106 0 -175.5 40.5t-69.5 130.5zM263 1425q0 76 64 124t181 48q248 0 248 -172q0 -97 -63.5 -134t-184.5 -37q-106 0 -175.5 40.5 t-69.5 130.5z" />
<glyph unicode="&#xe6;" horiz-adv-x="2133" d="M1326 659q162 2 177 2q33 0 52 43q11 31 11 85q0 148 -89 148q-50 0 -96 -80.5t-55 -197.5zM865 330q-40 97 -40 209q0 133 44 243q-40 66 -103 66q-61 0 -99 -89.5t-38 -205.5q0 -108 35 -192.5t100 -84.5q61 0 101 54zM996 968q101 83 214.5 127.5t275.5 44.5 q276 0 404 -98t128 -267q0 -106 -88 -184t-260 -80l-333 -3q23 -76 85 -119t156 -43q101 0 207 27q45 11 97.5 37t77.5 26q40 0 62.5 -23.5t22.5 -59.5q0 -43 -38 -102.5t-105.5 -120t-178 -102.5t-237.5 -42q-169 0 -281.5 40t-215.5 132q-135 -173 -463 -172 q-182 0 -307 152t-125 413q0 268 121.5 427t310.5 159q130 0 235 -39.5t235 -129.5z" />
<glyph unicode="&#xe7;" horiz-adv-x="1409" d="M912 -141q97 -50 97 -174q0 -144 -99 -232.5t-232 -88.5q-40 0 -88 9t-99 27t-83.5 52.5t-32.5 78.5q0 54 37.5 105t77.5 51q14 0 33 -7.5t35.5 -14.5t27.5 -7q21 0 38 19t17 45q0 20 -47.5 54.5t-47.5 61.5q0 29 66 157q-234 41 -374.5 191.5t-140.5 383.5 q0 264 186 417t483 153q276 0 403.5 -89.5t127.5 -245.5q0 -45 -17 -91.5t-54 -93.5t-107.5 -77t-165.5 -30q-42 0 -69 5t-56.5 20t-43.5 50.5t-14 89.5q0 48 17.5 115t17.5 88q0 54 -61 54q-66 0 -109.5 -100t-43.5 -228q0 -78 31.5 -136.5t93 -92.5t141.5 -34 q119 0 208 29q36 9 86 35t71 26q48 0 70 -22.5t22 -53.5q0 -83 -109.5 -198t-281.5 -158q-42 -87 -42 -112q0 -18 31 -31z" />
<glyph unicode="&#xf6;" horiz-adv-x="1485" d="M869 558q0 122 -31 215.5t-89 93.5q-61 0 -95 -94.5t-34 -214.5t32.5 -211t93.5 -91q34 0 57.5 26t37 70t21 96.5t7.5 109.5zM746 -16q-184 0 -331 65.5t-235 198t-88 307.5q0 268 183.5 426.5t471 158.5t468.5 -157.5t181 -427.5q0 -265 -184.5 -418t-465.5 -153z M803 1425q0 76 65 122.5t180 46.5q247 0 247 -169q0 -97 -62 -134t-185 -37q-106 0 -175.5 39.5t-69.5 131.5zM238 1425q0 76 63.5 122.5t181.5 46.5q247 0 247 -169q0 -97 -63.5 -134t-183.5 -37q-106 0 -175.5 39.5t-69.5 131.5z" />
<glyph unicode="&#x102;" horiz-adv-x="1676" d="M843 1229q-101 0 -149.5 -58.5t-48.5 -209.5v-278h391v283q0 146 -48 204.5t-145 58.5zM1036 358h-391v-125q0 -119 -63 -176t-220 -57q-65 0 -107.5 19t-74.5 64t-47.5 130.5t-23.5 207t-8 307.5q0 139 26 259t68.5 209.5t102.5 161t126 119t140 79t145 44.5t139 13 q98 0 195 -27t195.5 -93t173 -163.5t121.5 -253t47 -348.5q0 -155 -4.5 -264t-16 -193.5t-29.5 -134t-48.5 -81.5t-69.5 -43.5t-93 -11.5q-103 0 -167 27t-90 76.5t-26 129.5v125zM845 2077q88 0 88 123q0 125 188 124q212 0 212 -174q0 -379 -488 -379q-110 0 -193.5 19 t-152 60.5t-105 118t-36.5 181.5q0 175 212 174q189 0 188 -124q0 -63 19 -93t68 -30z" />
<glyph unicode="&#x103;" horiz-adv-x="1468" d="M530 -14q-186 0 -308.5 152t-122.5 415q0 180 56.5 313.5t153 203.5t221.5 70q191 0 353 -135q63 117 205 119q128 0 198.5 -55.5t70.5 -203.5v-613q0 -142 -59 -197t-208 -55q-155 0 -204 87q-151 -101 -356 -101zM850 780q-40 68 -104 68q-61 0 -98.5 -89.5 t-37.5 -205.5q0 -108 35.5 -192.5t98.5 -84.5q66 0 106 63v441zM782 1562q78 0 78 110q0 113 169 113q191 0 191 -155q0 -344 -438 -344q-207 0 -322.5 77.5t-115.5 266.5q0 155 191 155q169 0 169 -113q0 -56 16.5 -83t61.5 -27z" />
<glyph unicode="&#x114;" horiz-adv-x="1582" d="M1110 956q125 0 175 -40t50 -136q0 -54 -27 -86.5t-81 -47.5t-139 -15h-382v-249l512 -2q132 0 189.5 -39.5t57.5 -138.5q0 -112 -67 -157t-204 -45h-763q-139 0 -204 74t-65 263v994q0 282 269 282h763q89 0 145.5 -16.5t91 -60t34.5 -118.5q0 -104 -57.5 -145 t-189.5 -41h-514v-276h406zM805 2077q90 0 90 123q0 125 186 124q214 0 214 -174q0 -379 -490 -379q-108 0 -192.5 19t-153 60.5t-103.5 118t-35 181.5q0 175 211 174q189 0 189 -124q0 -63 18.5 -93t65.5 -30z" />
<glyph unicode="&#x115;" d="M756 -14q-288 0 -475 148.5t-187 404.5q0 279 184.5 440t477.5 161q276 0 404 -98t128 -267q0 -106 -88 -184t-260 -80l-333 -3q23 -76 84.5 -119t156.5 -43q101 0 208 27q45 11 97.5 37t75.5 26q41 0 63 -23.5t22 -59.5q0 -43 -37.5 -102.5t-104.5 -120t-178 -102.5 t-238 -42zM596 659q162 2 177 2q35 0 52 43q11 31 11 85q0 148 -90 148q-49 0 -95 -80.5t-55 -197.5zM756 1562q78 0 78 110q0 113 169 113q191 0 191 -155q0 -344 -438 -344q-207 0 -323 77.5t-116 266.5q0 155 191 155q169 0 170 -113q0 -56 16.5 -83t61.5 -27z" />
<glyph unicode="&#x138;" horiz-adv-x="1371" d="M1013 555q108 0 196 81q87 80 86 226q0 140 -52 190q-49 54 -195 55q-140 0 -198 -49q-56 -49 -56 -161q0 -76 -19 -99q-21 -26 -78 -25q-61 0 -90 25q-9 142 -45 211q-49 98 -195 98q-85 -4 -138 -31q-52 -26 -85 -89q-34 -61 -34 -160v-490q0 -189 62 -265 q64 -72 195 -72q117 0 188 106t72 229h84q33 0 50 -7q14 -9 23 -38q10 -27 10 -81q0 -108 56 -160q58 -49 198 -49q150 0 200 54q47 54 47 234q0 134 -86 200q-85 67 -196 67z" />
<glyph unicode="&#x18f;" d="M640.9 1643.47q330.803 0 545.595 -213.433t214.792 -582.807q0 -399.558 -212.494 -630.956q-212.495 -231.397 -547.893 -231.397q-317.02 0 -464.043 140.851t-147.023 383.747q0 152.35 101.653 263.736q101.653 111.388 299.216 115.699l380.193 4.3125 q-26.418 107.794 -97.0586 170.314q-70.6396 62.5205 -178.61 62.5205q-116.011 0 -240.062 -38.8057q-49.3906 -15.8105 -110.268 -53.1787t-87.2949 -37.3682q-45.9453 0 -71.7891 33.7754t-25.8438 81.2051q0 61.8018 43.0732 149.475q43.0732 87.6719 120.604 174.626 q77.5322 86.9541 203.881 147.319q126.348 60.3643 273.371 60.3643zM825.828 676.198q-186.076 -2.87402 -203.306 -5.74902q-41.3506 0 -59.7275 -58.9277q-12.6357 -47.4287 -12.6357 -122.166q0 -212.714 101.079 -212.714q57.4307 0 110.842 115.699 q53.4111 115.698 63.748 283.857z" />
<glyph unicode="&#x233;" horiz-adv-x="1429" d="M1328 665q0 -403 -23 -564q-18 -144 -58.5 -248.5t-113.5 -185.5t-186 -121t-269 -40q-125 0 -232 36t-169.5 89.5t-97.5 105t-35 89t24.5 70t67.5 32.5q31 0 71.5 -19t78.5 -43t90 -43t101 -19q128 0 181 64t53 181q-41 -16 -78.5 -28t-73 -19t-67.5 -9t-62 -2 q-139 0 -238 77.5t-142.5 192t-43.5 245.5q0 132 3.5 224t15.5 164t27 114t43.5 69.5t63.5 37t85 9.5q148 0 208 -51t60 -159l3 -379v-56t3.5 -44t9.5 -37.5t16 -24.5t28 -17.5t44 -4.5q71 0 88.5 39t17.5 142l3 382q0 73 24.5 117.5t83 68.5t159.5 24q61 0 105 -20.5 t70 -52t39 -94t17.5 -126t4.5 -166.5zM207 1411q0 104 65 152t164 48h490q130 0 181.5 -54t51.5 -151q0 -85 -60.5 -134.5t-154.5 -49.5h-475q-141 0 -201.5 40.5t-60.5 148.5z" />
<glyph unicode="&#x259;" d="M652 1140q288 0 475 -148.5t187 -405.5q0 -278 -185 -439t-477 -161q-276 0 -404 98t-128 267q0 106 88.5 183.5t260.5 80.5l331 3q-23 75 -84.5 118.5t-155.5 43.5q-101 0 -209 -27q-43 -11 -96 -37t-76 -26q-40 0 -62.5 23.5t-22.5 56.5q0 43 37.5 104t105 121.5 t177.5 102.5t238 42zM813 467q-162 -2 -177 -4q-36 0 -52 -41q-11 -33 -11 -85q0 -148 88 -148q50 0 96.5 80.5t55.5 197.5z" />
<glyph unicode="&#x2c6;" horiz-adv-x="1130" d="M890 1896q120 -119 121 -195q0 -66 -53.5 -114.5t-116.5 -48.5q-57 0 -127 71q-9 11 -21 24.5t-20 21.5t-18 17t-15.5 16.5t-13.5 14.5t-14.5 10.5t-12.5 8t-10.5 7t-10 3.5t-12.5 1q-14 0 -32 -11.5t-30 -23.5t-36.5 -39t-38.5 -43q-70 -73 -137 -74q-68 0 -119 46 t-51 113q0 14 3 28t9.5 28t12.5 25t18 24.5t18 22t19.5 24t19.5 21.5q162 189 340 189q76 0 144.5 -30.5t100 -57.5t83.5 -79z" />
<glyph unicode="&#x2c9;" horiz-adv-x="1117" d="M80 1627q0 104 64.5 152t163.5 48h490q130 0 182 -54t52 -150q0 -45 -17 -79t-46 -57.5t-68 -35.5t-83 -12h-476q-95 0 -149 15.5t-83.5 56t-29.5 116.5z" />
<glyph unicode="&#x2d8;" horiz-adv-x="1130" d="M562 1802q81 0 81 110q0 113 170 113q191 0 190 -157q0 -342 -441 -342q-96 0 -172.5 16.5t-137.5 54t-94 106t-33 165.5q0 157 192 157q169 0 171 -113q0 -56 16 -83t58 -27z" />
<glyph unicode="&#x2da;" horiz-adv-x="861" d="M501 1859.5q0 48.5 -19 86t-51 37.5q-35 0 -56.5 -37.5t-21.5 -86t20 -85t57 -36.5t54 36.5t17 85zM429 1538q-165 0 -275.5 86t-110.5 232q0 153 108 241.5t278 88.5q110 0 197.5 -39t137 -114.5t49.5 -176.5q0 -99 -52.5 -172t-138 -109.5t-193.5 -36.5z" />
<glyph unicode="&#x2dc;" horiz-adv-x="1117" d="M424 1288q0 -59 -48 -99t-117 -40q-95 0 -127.5 47t-32.5 141q0 99 57.5 174.5t158.5 75.5q87 0 182.5 -34t147.5 -69l52 -35q0 59 47 98.5t118 39.5q95 0 127.5 -46t32.5 -137q0 -99 -58 -177t-159 -78q-85 0 -160 35.5t-130 69.5t-91 34z" />
<glyph unicode="&#x2dd;" horiz-adv-x="1762" d="M629 1789q43 0 89 -23t81 -67.5t35 -94.5q0 -68 -68 -139l-198 -189q-4 -4 -16.5 -13t-18 -14.5t-17.5 -13.5t-21.5 -12.5t-21.5 -9t-23.5 -7t-25.5 -2.5q-49 0 -91.5 38.5t-42.5 88.5q0 11 3.5 24t9 29t12 26t17 30t14.5 30q61 119 104.5 187.5t91.5 102.5q42 29 87 29z M1250 1789q66 0 136 -56t70 -129q0 -68 -69 -139l-198 -189q-2 -2 -18 -15t-22.5 -17.5t-21.5 -14t-25 -14t-24.5 -8t-32.5 -3.5q-49 0 -91 38.5t-42 88.5q0 11 3.5 24t9 29t11.5 26t17 30t15 30q61 119 105 187.5t91 102.5q41 29 86 29z" />
<glyph unicode="&#x304;" horiz-adv-x="948" d="M47 1411q0 94 58.5 137.5t148.5 43.5h441q115 0 162 -49.5t47 -136.5q0 -75 -54 -120t-139 -45l-428 2q-125 0 -180.5 35.5t-55.5 132.5z" />
<glyph unicode="&#x308;" horiz-adv-x="1063" d="M568 1894q0 76 63.5 123.5t181.5 47.5q247 0 247 -171q0 -97 -63.5 -134.5t-183.5 -37.5q-106 0 -175.5 41t-69.5 131zM0 1894q0 76 64 123.5t181 47.5q247 0 247 -171q0 -97 -62.5 -134.5t-184.5 -37.5q-106 0 -175.5 41t-69.5 131z" />
<glyph unicode="&#x400;" horiz-adv-x="1582" d="M1110 956q125 0 175 -40t50 -136q0 -54 -27 -86.5t-81 -47.5t-139 -15h-382v-249l512 -2q132 0 189.5 -39.5t57.5 -138.5q0 -112 -67 -157t-204 -45h-763q-139 0 -204 74t-65 263v994q0 282 269 282h763q89 0 145.5 -16.5t91 -60t34.5 -118.5q0 -104 -57.5 -145 t-189.5 -41h-514v-276h406zM645 2270l297 -188q4 -3 14 -10q33 -20 51 -33.5t40.5 -37t32.5 -50.5t10 -63q0 -65 -49.5 -110t-126.5 -45q-54 0 -118 22l-318 106q-162 61 -163 193q0 90 57 169.5t149 79.5q68 0 124 -33z" />
<glyph unicode="&#x401;" horiz-adv-x="1582" d="M1110 956q125 0 175 -40t50 -136q0 -54 -27 -86.5t-81 -47.5t-139 -15h-382v-249l512 -2q132 0 189.5 -39.5t57.5 -138.5q0 -112 -67 -157t-204 -45h-763q-139 0 -204 74t-65 263v994q0 282 269 282h763q89 0 145.5 -16.5t91 -60t34.5 -118.5q0 -104 -57.5 -145 t-189.5 -41h-514v-276h406zM836 1946q0 76 64 123.5t181 47.5q247 0 247 -171q0 -97 -63.5 -135t-183.5 -38q-106 0 -175.5 41.5t-69.5 131.5zM268 1946q0 76 64 123.5t181 47.5q247 0 248 -171q0 -97 -63.5 -135t-184.5 -38q-106 0 -175.5 41.5t-69.5 131.5z" />
<glyph unicode="&#x402;" horiz-adv-x="1735" d="M923 351q0 -135 -33 -213.5t-90.5 -109t-152.5 -30.5q-139 0 -201 74t-64 263l-5 869h-200q-148 0 -222.5 46.5t-74.5 167.5q0 72 29.5 115t88 60.5t157.5 17.5h1009q132 0 190.5 -47t58.5 -162q0 -78 -34.5 -122t-90.5 -60t-146 -16h-219v-853zM1641 906v-510 q0 -86 -15 -155t-48.5 -124.5t-91 -86t-136.5 -30.5q-172 0 -278 50.5t-106 107.5q0 42 33 60t115 18q45 0 72 4.5t53 19t38.5 49.5t12.5 87v487q0 66 23.5 109.5t63 61.5t93.5 18q76 0 123.5 -49t47.5 -117zM1130 627q0 130 -103 129q-18 0 -33.5 -3.5t-29 -10.5t-24 -20.5 t-18.5 -28.5t-12 -35t-4 -46v-254q0 -189 -62 -267.5t-190 -78.5q-132 0 -193 73t-61 257l-4 979q0 142 70.5 209t187.5 67q126 0 189 -51t63 -204v-333q175 103 425 103q112 0 180.5 -57t102 -179.5t33.5 -320.5q0 -98 -4 -172.5t-11 -135.5t-21 -100t-33 -66t-48 -42.5 t-65 -22.5t-85 -7q-132 0 -189.5 47.5t-57.5 143.5z" />
<glyph unicode="&#x403;" horiz-adv-x="1517" d="M881 2200q52 31 113 30q82 0 133 -73t51 -155q0 -117 -146 -174l-288 -97q-59 -18 -108 -18q-47 0 -83.5 18t-55.5 50.5t-19 72.5q0 85 95 151l36 25zM1182 1613h-773q-58 0 -105 -13q-48 -16 -86 -50q-37 -33 -56 -90q-21 -54 -21 -129v-994q0 -184 71 -259 q70 -78 197 -78q135 0 206 85q70 83 70 243v904h521q133 0 188 40q58 42 60 146q0 110 -67 153q-68 42 -205 42z" />
<glyph unicode="&#x404;" horiz-adv-x="1836" d="M61 1119q52 160 158 273q108 110 258 179q153 68 335 82q139 12 269 -18q130 -31 219 -88q89 -54 157 -124q70 -68 105 -132q36 -63 39 -113q2 -42 -30 -87q-36 -45 -87 -50q-41 -2 -95 29q-56 29 -108 66q-54 38 -136 63q-83 29 -170 22q-115 -10 -200 -76 q-65 -52 -104 -124l255 -27q5 -2 14 -2q49 -7 72 -12q27 -4 60 -26q33 -21 52 -56q29 -57 4 -111q-20 -56 -85 -87q-45 -23 -106 -34l-262 -34q38 -70 105 -119q85 -65 202 -72q88 -5 169 23q83 29 135 67t106 67q56 32 94 29q52 -2 87 -47q36 -42 33 -87q-3 -50 -37 -114 q-34 -63 -101 -134q-68 -70 -159 -127q-87 -57 -216 -90q-128 -33 -266 -23q-184 12 -337 77q-153 63 -262 175q-108 108 -165 268q-47 141 -44 307q-3 155 42 287z" />
<glyph unicode="&#x405;" horiz-adv-x="1634" d="M805 1630q281 0 478.5 -115t197.5 -245q0 -36 -15 -61t-37.5 -35t-48.5 -10q-43 0 -127.5 43t-188 86.5t-190.5 43.5q-139 0 -139 -112q0 -36 22.5 -67.5t72 -65.5t96.5 -60.5t129 -69.5t139 -76q181 -104 254 -198.5t73 -215.5q0 -488 -656 -488q-130 0 -251.5 26 t-212.5 68t-160 94t-104.5 106t-35.5 102q0 51 34 87.5t101 36.5q49 0 237 -62t304 -62q106 0 106 72q0 21 -8 38.5t-28 35.5t-45 33.5t-68.5 39l-87 47t-114.5 61t-136 75.5q-88 49 -150 122.5t-90 145t-28 132.5q0 198 176 323t501 125z" />
<glyph unicode="&#x406;" horiz-adv-x="856" d="M706 353q0 -184 -68 -268.5t-207 -84.5q-137 0 -202 73t-65 262v996q0 282 267 282q137 0 206 -51.5t69 -209.5v-999z" />
<glyph unicode="&#x407;" horiz-adv-x="856" d="M708 353q0 -184 -67.5 -268.5t-206.5 -84.5q-92 0 -147.5 29.5t-87.5 103.5t-32 202v996q0 282 267 282q136 0 205 -51.5t69 -209.5v-999zM501 1944q0 75 64 123t181 48q248 0 248 -171q0 -97 -63.5 -135t-184.5 -38q-105 0 -175 41.5t-70 131.5zM-66 1944q0 75 63.5 123 t181.5 48q248 0 248 -171q0 -97 -63 -135t-185 -38q-105 0 -175 41.5t-70 131.5z" />
<glyph unicode="&#x408;" horiz-adv-x="1549" d="M627 469q0 -68 39.5 -108t89.5 -40q58 0 84.5 31.5t26.5 116.5v862q0 143 62 212.5t206 69.5q128 0 201 -59t73 -202v-874q0 -258 -157 -376t-461 -118q-96 0 -178.5 14t-146.5 38.5t-116.5 58t-89 73t-65 83t-43.5 89.5t-23.5 87.5t-8.5 83.5q0 157 53.5 215t208.5 58 q125 0 192 -44.5t67 -121.5q0 -23 -7 -75.5t-7 -73.5z" />
<glyph unicode="&#x409;" horiz-adv-x="1836" d="M1227 825q66 0 117 -13q50 -11 92 -39q43 -29 66 -80q21 -54 22 -130q0 -88 -17 -138q-16 -50 -59 -76q-40 -27 -87 -34q-50 -9 -134 -9v519zM657 288q0 -144 78 -213q78 -70 205 -70h418q153 0 283 43q130 40 224 115q97 72 149 186q54 110 54 247q0 167 -97 292 q-96 122 -254 184q-158 61 -356 61h-134v132q0 191 -71 273q-70 80 -216 80t-215 -73q-68 -76 -68 -264v-993zM579 1223q36 -12 57 -32q20 -20 29 -58q12 -38 18 -74q2 -38 2 -99v-324q2 -252 2 -389q0 -125 54 -184q54 -56 187 -56q141 0 209 63q68 66 97 236 q28 173 27 521q0 175 -52 317q-49 142 -128 231q-81 88 -187 149q-103 61 -207 87q-101 23 -202 23q-83 0 -168 -18q-85 -19 -171 -57q-88 -37 -164 -101q-76 -65 -135 -154q-59 -85 -95 -207q-33 -122 -33 -270q0 -348 26 -521q27 -169 89 -236q63 -63 193 -63 q146 0 208 56q59 59 59 184v389q2 257 2 327q0 148 35 210q38 61 158 61q55 0 90 -11z" />
<glyph unicode="&#x40a;" horiz-adv-x="1836" d="M1368 818q66 0 117 -13q50 -11 92 -39q43 -29 66 -80q21 -54 22 -130q0 -88 -17 -138q-16 -50 -59 -76q-40 -27 -87 -34q-50 -9 -134 -9v519zM798 281q0 -144 78 -213q78 -70 205 -70h418q153 0 283 43q130 40 224 115q97 72 149 186q54 110 54 247q0 167 -97 292 q-96 122 -254 184q-158 61 -356 61h-134v132q0 191 -71 273q-70 80 -216 80t-215 -73q-68 -76 -68 -264v-993zM1368 818q66 0 117 -13q50 -11 92 -39q43 -29 66 -80q21 -54 22 -130q0 -88 -17 -138q-16 -50 -59 -76q-40 -27 -87 -34q-50 -9 -134 -9v519zM798 281 q0 -144 78 -213q78 -70 205 -70h418q153 0 283 43q130 40 224 115q97 72 149 186q54 110 54 247q0 167 -97 292q-96 122 -254 184q-158 61 -356 61h-134v132q0 191 -71 273q-70 80 -216 80t-215 -73q-68 -76 -68 -264v-993zM1368 818q66 0 117 -13q50 -11 92 -39 q43 -29 66 -80q21 -54 22 -130q0 -88 -17 -138q-16 -50 -59 -76q-40 -27 -87 -34q-50 -9 -134 -9v519zM798 281q0 -144 78 -213q78 -70 205 -70h418q153 0 283 43q130 40 224 115q97 72 149 186q54 110 54 247q0 167 -97 292q-96 122 -254 184q-158 61 -356 61h-134v132 q0 191 -71 273q-70 80 -216 80t-215 -73q-68 -76 -68 -264v-993zM1368 818q66 0 117 -13q50 -11 92 -39q43 -29 66 -80q21 -54 22 -130q0 -88 -17 -138q-16 -50 -59 -76q-40 -27 -87 -34q-50 -9 -134 -9v519zM798 281q0 -144 78 -213q78 -70 205 -70h418q153 0 283 43 q130 40 224 115q97 72 149 186q54 110 54 247q0 167 -97 292q-96 122 -254 184q-158 61 -356 61h-134v132q0 191 -71 273q-70 80 -216 80t-215 -73q-68 -76 -68 -264v-993zM1368 818q66 0 117 -13q50 -11 92 -39q43 -29 66 -80q21 -54 22 -130q0 -88 -17 -138 q-16 -50 -59 -76q-40 -27 -87 -34q-50 -9 -134 -9v519zM798 281q0 -144 78 -213q78 -70 205 -70h418q153 0 283 43q130 40 224 115q97 72 149 186q54 110 54 247q0 167 -97 292q-96 122 -254 184q-158 61 -356 61h-134v132q0 191 -71 273q-70 80 -216 80t-215 -73 q-68 -76 -68 -264v-993zM1345 351q0 -191 -68.5 -272t-207.5 -81q-137 0 -200 74t-63 263l-2 266h-481v-250q0 -193 -66 -273t-210 -80q-137 0 -200.5 74t-63.5 263l-6 994q0 146 74 214t196 68q141 0 208.5 -51.5t67.5 -209.5v-396h478v375q0 98 36.5 163t94 92t137.5 27 q137 0 206.5 -51.5t69.5 -209.5v-999z" />
<glyph unicode="&#x40b;" horiz-adv-x="1735" d="M923 351q0 -135 -33 -213.5t-90.5 -109t-152.5 -30.5q-139 0 -201 74t-64 263l-5 869h-200q-148 0 -222.5 46.5t-74.5 167.5q0 72 29.5 115t88 60.5t157.5 17.5h1009q132 0 190.5 -47t58.5 -162q0 -78 -34.5 -122t-90.5 -60t-146 -16h-219v-853zM1130 627q0 130 -103 129 q-18 0 -33.5 -3.5t-29 -10.5t-24 -20.5t-18.5 -28.5t-12 -35t-4 -46v-254q0 -189 -62 -267.5t-190 -78.5q-132 0 -193 73t-61 257l-4 979q0 142 70.5 209t187.5 67q126 0 189 -51t63 -204v-333q175 103 425 103q112 0 180.5 -57t102 -179.5t33.5 -320.5q0 -98 -4 -172.5 t-11 -135.5t-21 -100t-33 -66t-48 -42.5t-65 -22.5t-85 -7q-132 0 -189.5 47.5t-57.5 143.5z" />
<glyph unicode="&#x40c;" horiz-adv-x="1697" d="M1245 775q120 -14 219.5 -121.5t99.5 -273.5q0 -163 -23.5 -242t-80 -108.5t-172.5 -29.5q-92 0 -152 26t-88 76.5t-28 130.5q0 104 -8.5 173.5t-21 110.5t-38.5 62t-51 27t-67 6h-126v-261q0 -189 -73 -270t-213 -81q-137 0 -202 76.5t-65 258.5v982q0 148 55.5 222 t180.5 74q72 0 120.5 -9.5t94.5 -34.5t68.5 -77.5t22.5 -134.5q0 -72 -1 -163.5t-1 -128.5q0 -31 15.5 -52.5t47 -34t78.5 -12.5q101 0 135 80t34 327q0 122 66 181t212 59q158 0 212.5 -61.5t54.5 -218.5q0 -259 -91.5 -401.5t-213.5 -156.5zM966 2144q52 31 113 30 q83 0 133.5 -73.5t50.5 -154.5q0 -118 -146 -175l-288 -97q-59 -18 -108 -18q-47 0 -84 19t-56 50.5t-19 71.5q0 86 95 151l38 25z" />
<glyph unicode="&#x40d;" horiz-adv-x="1859" d="M1427 1611q-80 0 -137 -29q-58 -26 -94 -92l-7 -11l-193 -283l-292 -432v586q0 158 -68 209q-66 52 -207 52q-122 0 -196 -69q-75 -68 -75 -214l6 -993q0 -189 65 -263q63 -75 200 -74q144 0 209 80l5 7q18 21 40 52l476 704l3 -241l2 -265q0 -189 63 -263 q63 -75 200 -74q139 0 207 80q68 83 69 273v999q0 158 -69 209q-70 52 -207 52zM805 2171q-52 31 -113 31q-82 0 -133 -73t-51 -156q0 -117 146 -173l288 -97q58 -18 108 -19q47 0 84 19t56 50.5t19 71.5q0 85 -95 151l-38 26z" />
<glyph unicode="&#x40e;" horiz-adv-x="1726" d="M1295 1616q-61 0 -106 -9q-42 -10 -84 -36q-40 -27 -62 -81q-18 -54 -18 -133v-170q0 -50 -7 -80q-5 -31 -24 -62q-16 -31 -54 -45q-38 -13 -97 -13t-97 18q-38 16 -61 62q-20 45 -24 120v168q0 157 -72 209q-70 52 -209 52q-113 0 -187 -81q-76 -78 -76 -202v-101 q0 -324 175 -483q177 -160 551 -160q52 0 103 4v-31v-30l-2 -4q0 -115 -61 -177q-61 -63 -209 -63q-59 0 -119 18q-61 18 -105 42q-43 23 -92 43q-48 18 -82 18q-49 0 -80 -29q-29 -34 -29 -72t42 -90q41 -51 114 -105q73 -52 198 -87q125 -38 270 -38q182 0 314 41 q132 40 216 122q85 80 133 184q47 105 70 249q9 61 28 328q17 254 17 320v101q0 151 -68 217q-69 66 -206 66zM860 1933q81 0 80 112q0 112 170 112q191 0 190 -157q0 -342 -440 -342q-96 0 -173 16t-138 54t-94 106.5t-33 165.5q0 157 193 157q169 0 169 -112 q0 -57 17 -84.5t59 -27.5z" />
<glyph unicode="&#x40f;" horiz-adv-x="1735" d="M643 292q0 38 61.5 61.5t146 23.5t146 -23.5t61.5 -61.5t-61.5 -61.5t-146 -23.5t-146 23.5t-61.5 61.5zM568 381.5q0 14.5 21 28.5t49.5 14t49 -14t20.5 -28.5t-20.5 -28.5t-49 -14t-49.5 14t-21 28.5zM850 292q0 33 31 57t73 24t73 -24t31 -57t-31 -56.5t-73 -23.5 t-73 23.5t-31 56.5zM647 245q-2 43 31 75.5t77.5 32.5t78 -32.5t31.5 -75.5q2 -43 -31.5 -75.5t-78 -32.5t-77.5 32.5t-31 75.5zM652 306.5q0 23.5 31 42t73 18.5t73 -18.5t31 -42t-31 -42.5t-73 -19t-73 19t-31 42.5zM2852 580zM586 306q3 42 26.5 70.5t58.5 28.5 t58.5 -28.5t26.5 -70.5q-3 -43 -26.5 -71t-58.5 -28t-58.5 28t-26.5 71zM1587 1331v-702q0 -344 -165.5 -493.5t-559.5 -149.5q-374 0 -549.5 160t-175.5 483v702q0 125 74 203.5t187 78.5q139 0 211 -51.5t72 -209.5v-768q2 -76 24.5 -120t60 -62t96.5 -18t96.5 14t55.5 45 t23.5 61.5t5.5 79.5v771q0 80 20 133.5t61.5 79.5t85.5 35.5t104 9.5q137 0 205 -66t68 -216zM1025 193q0 61 -18 98t-57.5 52t-108.5 15q-88 0 -122 -43.5t-34 -137.5v-238q0 -139 165 -139q175 0 175 153v240zM1025 193q0 61 -18 98t-57.5 52t-108.5 15q-88 0 -122 -43.5 t-34 -137.5v-238q0 -139 165 -139q175 0 175 153v240zM1025 193q0 61 -18 98t-57.5 52t-108.5 15q-88 0 -122 -43.5t-34 -137.5v-238q0 -139 165 -139q175 0 175 153v240zM1025 193q0 61 -18 98t-57.5 52t-108.5 15q-88 0 -122 -43.5t-34 -137.5v-238q0 -139 165 -139 q175 0 175 153v240zM1025 193q0 61 -18 98t-57.5 52t-108.5 15q-88 0 -122 -43.5t-34 -137.5v-238q0 -139 165 -139q175 0 175 153v240zM1025 193q0 61 -18 98t-57.5 52t-108.5 15q-88 0 -122 -43.5t-34 -137.5v-238q0 -139 165 -139q175 0 175 153v240zM1025 193 q0 61 -18 98t-57.5 52t-108.5 15q-88 0 -122 -43.5t-34 -137.5v-238q0 -139 165 -139q175 0 175 153v240zM1025 193q0 61 -18 98t-57.5 52t-108.5 15q-88 0 -122 -43.5t-34 -137.5v-238q0 -139 165 -139q175 0 175 153v240zM1025 193q0 61 -18 98t-57.5 52t-108.5 15 q-88 0 -122 -43.5t-34 -137.5v-238q0 -139 165 -139q175 0 175 153v240z" />
<glyph unicode="&#x410;" horiz-adv-x="1676" d="M843 1229q-101 0 -149.5 -58.5t-48.5 -209.5v-278h391v283q0 99 -23.5 158.5t-65 82t-104.5 22.5zM1036 358h-391v-125q0 -119 -63 -176t-220 -57q-65 0 -107.5 19t-74.5 64t-47.5 130.5t-23.5 207t-8 307.5q0 162 34 298t92 230t131 165.5t159 111.5t167.5 60t163.5 20 q98 0 195 -27t195.5 -93t173 -163.5t121.5 -253t47 -348.5q0 -311 -22.5 -461t-75.5 -208.5t-163 -58.5q-155 0 -219 56.5t-64 176.5v125z" />
<glyph unicode="&#x411;" horiz-adv-x="1726" d="M966 344q-40 -27 -87 -34q-50 -9 -135 -9v519q66 0 118 -13q50 -11 91 -39q43 -29 67 -80q21 -54 21 -130q0 -88 -16 -136q-16 -52 -59 -78zM1234 1067q-158 61 -355 61h-135v104h506q132 0 189 40q58 42 59 146q0 110 -69 153q-65 42 -202 42h-773h-18q-130 -4 -193 -73 q-68 -76 -68 -264v-993q0 -144 77 -213q61 -56 153 -68h4h3q20 -2 42 -2h422q153 0 283 43q130 40 223 115q97 72 149 186q54 110 54 247q0 167 -97 292q-96 123 -254 184z" />
<glyph unicode="&#x412;" horiz-adv-x="1726" d="M1048 1159q0 99 -76.5 135.5t-255.5 36.5v-360q111 0 180.5 16t110.5 58t41 114zM1079 530q0 78 -40.5 120t-115.5 60t-207 18v-407q184 0 273.5 46t89.5 163zM1368 838q219 -130 219 -346q0 -94 -36 -179.5t-108 -156.5t-190 -112.5t-266 -41.5h-547q-143 0 -205.5 73 t-62.5 262v996q0 80 28.5 141t90.5 99t149 38h540q236 -2 392 -128t156 -324q0 -63 -10 -112t-31.5 -86.5t-49.5 -65.5t-69 -57z" />
<glyph unicode="&#x413;" horiz-adv-x="1517" d="M1182 1613h-773q-58 0 -105 -13q-48 -16 -86 -50q-37 -33 -56 -90q-21 -54 -21 -129v-994q0 -184 71 -259q70 -78 197 -78q135 0 206 85q70 83 70 243v904h521q133 0 188 40q58 42 60 146q0 110 -67 153q-68 42 -205 42z" />
<glyph unicode="&#x414;" horiz-adv-x="2086" d="M883 1241q38 61 158 62q56 0 92 -13q33 -11 54 -30q23 -20 31 -59q11 -38 16 -73q2 -38 2 -99v-325q3 -200 3 -322h-394v322q5 261 5 328q0 148 33 209zM1787 377q29 173 29 518q0 175 -54 318q-50 142 -128 230q-83 88 -188 149q-104 61 -205 87q-104 23 -203 24 q-85 0 -169 -19q-85 -19 -172 -57q-85 -38 -162 -101q-73 -66 -137 -153q-56 -85 -94 -207q-34 -122 -33 -271q0 -344 26 -515q-88 -7 -133 -38q-58 -43 -58 -146q0 -111 66 -153q68 -43 205 -43h1356q132 0 189 40q58 43 58 146q0 111 -65 153q-47 29 -128 38z" />
<glyph unicode="&#x415;" horiz-adv-x="1582" d="M1110 956q125 0 175 -40t50 -136q0 -81 -59.5 -115t-187.5 -34h-382v-249l512 -2q132 0 189.5 -39.5t57.5 -138.5q0 -112 -67 -157t-204 -45h-763q-139 0 -204 74t-65 263v994q0 282 269 282h763q137 0 204 -42.5t67 -152.5q0 -104 -57.5 -145t-189.5 -41h-514v-276h406z " />
<glyph unicode="&#x416;" horiz-adv-x="2533" d="M2082 780q121 14 215 155q89 144 89 402q0 158 -54 220q-54 61 -213 61q-146 0 -211 -59q-66 -58 -66 -181q0 -248 -33 -328q-36 -81 -137 -79q-47 0 -78 11q-33 14 -46 36q-16 20 -17 52q0 37 2 126v166q0 82 -21 133q-23 54 -69 78q-47 27 -93 36q-49 9 -123 9 q-125 0 -179 -76q-57 -72 -57 -221v-303l-2 -5q-16 -21 -47 -33q-34 -14 -80 -14q-101 0 -136 79q-34 81 -34 328q0 122 -65 182q-66 58 -213 58q-158 0 -212 -61q-54 -60 -54 -219q0 -259 90 -400q92 -144 214 -158q-120 -14 -219 -123q-98 -106 -98 -272q0 -163 23 -241 q23 -80 80 -108q56 -31 171 -31q92 0 151 26q61 27 90 75q28 52 28 132q0 104 7 174q10 68 23 112q12 40 38 61q27 20 50 25q26 7 69 7h124v-261q0 -73 11 -129q14 -92 58 -142q63 -75 200 -75q142 0 214 80q72 83 72 270v263h126q42 0 68 -8q23 -5 49 -26q27 -20 40 -63 q12 -40 22 -112q7 -67 7 -171q0 -80 28 -132q28 -50 89 -75q59 -26 151 -26q115 0 173 28q56 31 79 108q23 81 24 243q0 167 -99 273q-100 109 -219 123z" />
<glyph unicode="&#x417;" horiz-adv-x="1472" d="M798 1063q0 115 -214 115q-45 0 -121.5 -8t-111.5 -8q-169 0 -169 202q0 209 490 209q317 0 475 -103.5t158 -271.5q0 -233 -203 -371q137 -73 192.5 -152t55.5 -228q0 -204 -161.5 -332.5t-432.5 -128.5q-340 0 -487 69.5t-147 210.5q0 117 47 161.5t132 44.5 q43 0 132.5 -10t136.5 -10q257 0 257 94q0 64 -49.5 88.5t-186.5 24.5t-193 35.5t-56 132.5q0 146 193 146q125 0 185 11.5t69 27t9 51.5z" />
<glyph unicode="&#x418;" horiz-adv-x="1859" d="M1427 1611q-80 0 -137 -29q-58 -26 -94 -92l-7 -11l-193 -283l-292 -432v586q0 158 -68 209q-66 52 -207 52q-122 0 -196 -69q-75 -68 -75 -214l6 -993q0 -189 65 -263q63 -75 200 -74q144 0 209 80l5 7q18 21 40 52l476 704l3 -241l2 -265q0 -189 63 -263 q63 -75 200 -74q139 0 207 80q68 83 69 273v999q0 158 -69 209q-70 52 -207 52z" />
<glyph unicode="&#x419;" horiz-adv-x="1859" d="M1427 1611q-80 0 -137 -29q-58 -26 -94 -92l-7 -11l-193 -283l-292 -432v586q0 158 -68 209q-66 52 -207 52q-122 0 -196 -69q-75 -68 -75 -214l6 -993q0 -189 65 -263q63 -75 200 -74q144 0 209 80l5 7q18 21 40 52l476 704l3 -241l2 -265q0 -189 63 -263 q63 -75 200 -74q139 0 207 80q68 83 69 273v999q0 158 -69 209q-70 52 -207 52zM968 1976q90 0 90 123q0 125 185 124q214 0 215 -174q0 -379 -490 -379q-108 0 -192 19t-152.5 59.5t-104.5 118t-36 182.5q0 175 212 174q188 0 188 -124q0 -63 19 -93t66 -30z" />
<glyph unicode="&#x41a;" horiz-adv-x="1697" d="M1245 775q120 -14 219.5 -121.5t99.5 -273.5q0 -163 -23.5 -242t-80 -108.5t-172.5 -29.5q-92 0 -152 26t-88 76.5t-28 130.5q0 104 -8.5 173.5t-21 110.5t-38.5 62t-51 27t-67 6h-126v-261q0 -189 -73 -270t-213 -81q-137 0 -202 76.5t-65 258.5v982q0 148 55.5 222 t180.5 74q72 0 120.5 -9.5t94.5 -34.5t68.5 -77.5t22.5 -134.5q0 -72 -1 -163.5t-1 -128.5q0 -31 15.5 -52.5t47 -34t78.5 -12.5q101 0 135 80t34 327q0 122 66 181t212 59q158 0 212.5 -61.5t54.5 -218.5q0 -259 -91.5 -401.5t-213.5 -156.5z" />
<glyph unicode="&#x41b;" horiz-adv-x="1836" d="M860 1216q36 -12 57 -32q20 -20 29 -58q12 -38 18 -74q2 -38 2 -99v-324q2 -252 2 -389q0 -125 54 -184q54 -56 187 -56q141 0 209 63q68 66 97 236q28 173 27 521q0 175 -52 317q-49 142 -128 231q-81 88 -187 149q-103 61 -207 87q-101 23 -202 23q-83 0 -168 -18 q-85 -19 -171 -57q-88 -37 -164 -101q-76 -65 -135 -154q-59 -85 -95 -207q-33 -122 -33 -270q0 -348 26 -521q27 -169 89 -236q63 -63 193 -63q146 0 208 56q59 59 59 184v389q2 257 2 327q0 148 35 210q38 61 158 61q55 0 90 -11z" />
<glyph unicode="&#x41c;" horiz-adv-x="2234" d="M1548 862l-294 -603q-38 -76 -81 -107.5t-101 -31.5q-76 0 -128 53.5t-133 191.5l-274 497v-666q0 -102 -46 -149t-138 -47q-103 0 -150.5 46t-47.5 181v1027q0 181 83 272.5t278 91.5q73 0 127 -24.5t81 -56.5t53 -79l315 -690l335 678q88 169 313 170q106 0 182 -37 t119 -118t43 -203v-1025q-2 -233 -295 -233q-105 0 -172 57.5t-69 187.5v617z" />
<glyph unicode="&#x41d;" horiz-adv-x="1836" d="M1703 353q0 -191 -68.5 -272t-207.5 -81q-137 0 -200 74t-63 263l-2 266h-481v-250q0 -193 -66 -273t-210 -80q-137 0 -200.5 74t-63.5 263l-6 994q0 146 74 214t196 68q141 0 208.5 -51.5t67.5 -209.5v-396h478v375q0 98 36.5 163t94 92t137.5 27q137 0 206.5 -51.5 t69.5 -209.5v-999z" />
<glyph unicode="&#x41e;" horiz-adv-x="1895" d="M946 330q81 0 138.5 71t82 174t24.5 221q0 119 -25.5 226.5t-83 183t-136.5 75.5q-75 0 -131.5 -75.5t-84.5 -183.5t-28 -226t27 -221t84.5 -174t132.5 -71zM946 -14q-232 0 -417 93t-296 279t-111 438q0 382 230 606.5t595 224.5t595.5 -224.5t230.5 -606.5 q0 -252 -111.5 -438t-297.5 -279t-418 -93z" />
<glyph unicode="&#x41f;" horiz-adv-x="1775" d="M1569 1564l-14 14q-40 35 -144 35h-1006q-122 0 -196 -69q-76 -67 -74 -213l6 -994q0 -189 64 -261q63 -76 200 -76q144 0 210 80q66 81 66 273v926h416v-323l2 -353l3 -266q0 -189 64 -261q63 -76 200 -76q139 0 207 80q68 83 68 273v999q0 158 -70 210z" />
<glyph unicode="&#x420;" horiz-adv-x="1647" d="M1011 1056q0 87 -16.5 137t-58 76t-90 34.5t-132.5 8.5v-518q66 0 116.5 12t93 40t65 81t22.5 129zM714 353q0 -191 -70.5 -272t-216.5 -81t-214.5 74t-68.5 263v994q0 143 77.5 212.5t205.5 69.5h418q153 0 283 -41t225.5 -115.5t148.5 -186t53 -248.5 q0 -166 -96.5 -290.5t-255 -185.5t-355.5 -61h-134v-132z" />
<glyph unicode="&#x421;" horiz-adv-x="1843" d="M1114 1171q0 49 -41 84t-98 35q-113 0 -186 -128t-73 -290q0 -126 47.5 -226t136.5 -158.5t207 -58.5q88 0 168 34t129.5 75.5t102 75t93.5 33.5q51 0 88.5 -40.5t37.5 -85.5q0 -49 -29 -115.5t-93 -140.5t-148.5 -136.5t-210.5 -103.5t-265 -41q-184 0 -340.5 55 t-272 157.5t-181.5 258t-66 348.5q0 381 228.5 602.5t597.5 221.5q189 0 349.5 -63t254.5 -176.5t94 -247.5q0 -156 -104 -281.5t-268 -125.5q-94 0 -169.5 51.5t-75.5 148.5q0 45 43.5 124.5t43.5 113.5z" />
<glyph unicode="&#x422;" horiz-adv-x="1735" d="M1159 353q0 -135 -33.5 -213.5t-90.5 -109t-152 -30.5q-139 0 -201 74t-64 263l-6 869h-200q-149 0 -223 47t-74 167q0 73 30 115.5t88.5 60t157.5 17.5h1009q132 0 190.5 -47t58.5 -162q0 -78 -34.5 -121.5t-91 -60t-145.5 -16.5h-219v-853z" />
<glyph unicode="&#x423;" horiz-adv-x="1726" d="M1295 1616q-61 0 -106 -9q-42 -10 -84 -36q-40 -27 -62 -81q-18 -54 -18 -133v-170q0 -50 -7 -80q-5 -31 -24 -62q-16 -31 -54 -45q-38 -13 -97 -13t-97 18q-38 16 -61 62q-20 45 -24 120v168q0 157 -72 209q-70 52 -209 52q-113 0 -187 -81q-76 -78 -76 -202v-101 q0 -324 175 -483q177 -160 551 -160q52 0 103 4v-31v-30l-2 -4q0 -115 -61 -177q-61 -63 -209 -63q-59 0 -119 18q-61 18 -105 42q-43 23 -92 43q-48 18 -82 18q-49 0 -80 -29q-29 -34 -29 -72t42 -90q41 -51 114 -105q73 -52 198 -87q125 -38 270 -38q182 0 314 41 q132 40 216 122q85 80 133 184q47 105 70 249q9 61 28 328q17 254 17 320v101q0 151 -68 217q-69 66 -206 66z" />
<glyph unicode="&#x424;" horiz-adv-x="2209" d="M1467 764q-63 0 -103 65v438q40 68 103 68q61 0 99 -90q38 -89 38 -204q0 -108 -35 -193q-36 -84 -102 -84zM641 848q-36 85 -36 193q0 115 38 204q38 90 99 90q63 0 103 -65v-184v-257q-40 -65 -106 -65q-63 -2 -98 84zM1686 1627q-186 0 -349 -126q-28 65 -83 88 q-57 21 -149 22h-19q-81 -2 -130 -24q-57 -21 -84 -86q-162 127 -349 126q-188 0 -309 -157q-120 -158 -120 -429q0 -264 122 -417q122 -150 310 -150q179 0 319 79v-202q0 -99 17 -167q17 -72 50 -114q54 -65 164 -72h16h13q130 0 195 82q63 81 64 271v202q141 -80 320 -79 q186 0 309 153q122 150 122 414q0 271 -120 429q-121 157 -309 157z" />
<glyph unicode="&#x425;" horiz-adv-x="1796" d="M549 800l-322 314q-97 104 -97 198q0 115 99 205q108 96 193 96q104 0 181 -92l301 -386l251 335q115 141 258 141q99 0 184 -83q97 -99 97 -188q0 -104 -139 -248l-279 -263l318 -332q99 -111 100 -196q0 -117 -100 -204q-108 -99 -192 -99q-106 0 -182 92l-303 395 l-250 -341q-110 -144 -258 -144q-96 0 -182 87q-97 97 -97 187q0 96 136 247z" />
<glyph unicode="&#x426;" horiz-adv-x="2018" d="M1830 440q-92 97 -226 92q5 50 5 104v701q0 151 -69 218q-68 65 -205 65q-61 0 -106 -9q-42 -9 -85 -35q-40 -27 -61 -81q-18 -54 -18 -133v-771q0 -49 -7 -80q-5 -31 -24 -61q-16 -31 -54 -45t-97 -14q-58 0 -96 18q-38 17 -61 63q-21 44 -24 119v768q0 158 -73 210 q-70 51 -209 51q-113 0 -189 -78q-72 -80 -73 -205v-701q0 -323 174 -483q177 -160 551 -160q274 0 438 73v0q115 49 184 56q34 2 54 -12q19 -11 21 -32l-2 -8q0 -7 -2 -14q-7 -16 -24 -42q-35 -54 -33 -97q2 -23 16 -45q12 -23 31 -39q19 -18 41 -33q20 -14 47 -22 q20 -5 40 -5h9q50 5 94 36v0q86 59 118 175q33 113 26 207q-15 146 -111 249z" />
<glyph unicode="&#x427;" horiz-adv-x="1697" d="M1305 1611h-8h-18q-59 0 -101 -9q-43 -9 -86 -36q-40 -26 -60 -80q-19 -54 -19 -134v-170q0 -49 -8 -80q-5 -31 -23 -61q-16 -31 -54 -45t-97 -14q-58 0 -96 18q-38 17 -61 63q-21 44 -24 119v168q0 158 -73 209q-70 52 -210 52q-113 0 -188 -78q-72 -81 -73 -205v-101 q0 -323 175 -483q177 -160 550 -160q99 0 184 9v-261q0 -188 64 -262q65 -72 202 -72q139 0 207 85t69 268v999q0 158 -71 209q-63 48 -181 52z" />
<glyph unicode="&#x428;" horiz-adv-x="2189" d="M2032 1352q0 158 -70 210q-68 51 -205 51q-265 0 -267 -282v-949h-204v393q0 132 -41 189q-42 58 -146 58q-110 0 -153 -66q-42 -68 -42 -205v-369h-205v970q0 158 -70 210q-68 51 -205 51q-265 0 -266 -282v-1145q2 -103 66 -143q64 -38 181 -43h4h1376q132 0 188 40 q54 40 59 132v0v1180z" />
<glyph unicode="&#x429;" horiz-adv-x="2495" d="M2308 346q-97 104 -245 92l-31 -4v918q0 158 -70 210q-68 51 -205 51q-265 0 -267 -282v-949h-204v391q0 132 -41 188q-42 59 -146 59q-110 0 -153 -67q-42 -67 -42 -204v-367h-205v970q0 158 -70 210q-68 51 -205 51q-265 0 -266 -282v-1145q2 -103 66 -143 q64 -41 181 -43h1380q92 0 146 18q29 7 52 11q33 2 55 -13q18 -11 20 -32l-2 -7q0 -7 -2 -15q-7 -16 -24 -42q-36 -55 -32 -97q2 -23 16 -45q11 -23 31 -39q18 -18 39 -33q20 -14 47 -21q21 -5 40 -6h9q50 5 95 36v0q85 58 118 175q33 112 25 207q-13 146 -110 249z" />
<glyph unicode="&#x42a;" horiz-adv-x="1917" d="M1157 344q-43 -27 -90 -34q-49 -9 -134 -9v519q65 0 117 -13q49 -11 92 -39q42 -29 67 -80q20 -54 20 -130q0 -88 -16 -136q-16 -52 -56 -78zM1423 1067q-158 61 -356 61h-134v132q0 191 -71 273q-70 80 -217 80q-61 0 -110 -13l-247 -38q-5 0 -14 -3q-50 -9 -74 -17 q-26 -4 -56 -27q-34 -23 -50 -59q-23 -56 0 -112q27 -54 90 -81q47 -21 108 -29l70 -5v-946q0 -144 78 -213q79 -70 205 -70h420q153 0 282 43q130 40 226 115q95 72 149 186q51 110 51 247q0 167 -96 292q-97 123 -254 184z" />
<glyph unicode="&#x42b;" horiz-adv-x="2401" d="M2259 1350q0 158 -71 209q-67 52 -205 52q-266 0 -266 -283v-996q0 -188 63 -262q66 -72 203 -72q139 0 208 85q68 85 68 268v999zM714 818q66 0 117 -13q50 -11 92 -39q43 -29 66 -81q21 -54 22 -130q0 -87 -17 -139q-16 -49 -59 -74q-40 -27 -87 -34q-50 -9 -134 -9 v519zM144 281q0 -144 78 -213q78 -70 205 -70h418q153 0 283 42q130 40 224 115q97 73 149 187q54 110 54 247q0 167 -97 292q-96 122 -254 184q-158 61 -356 61h-134v132q0 191 -71 273q-70 80 -216 80t-215 -73q-68 -76 -68 -264v-993z" />
<glyph unicode="&#x42c;" horiz-adv-x="1647" d="M714 820q66 0 117 -13q50 -11 92 -39q43 -29 66 -80q21 -54 22 -130q0 -88 -17 -138q-16 -50 -59 -76q-40 -27 -87 -34q-50 -9 -134 -9v519zM144 283q0 -144 78 -213q78 -70 205 -70h418q153 0 283 43q130 40 224 115q97 72 149 186q54 110 54 247q0 167 -97 292 q-96 122 -254 184q-158 61 -356 61h-134v132q0 191 -71 273q-70 80 -216 80t-215 -73q-68 -76 -68 -264v-993z" />
<glyph unicode="&#x42d;" horiz-adv-x="1836" d="M1670 1107q-52 160 -158 273q-108 110 -258 179q-153 68 -335 82q-139 12 -269 -18q-130 -31 -219 -88q-89 -54 -157 -124q-70 -68 -105 -132q-36 -63 -39 -113q-2 -42 30 -87q36 -45 87 -50q41 -2 95 29q56 29 108 66q54 38 136 63q83 29 170 22q115 -10 200 -76 q65 -52 104 -124l-255 -27q-5 -2 -14 -2q-49 -7 -72 -12q-27 -4 -60 -26q-33 -21 -52 -56q-29 -57 -4 -111q20 -56 85 -87q45 -23 106 -34l262 -34q-38 -70 -105 -119q-85 -65 -202 -72q-88 -5 -169 23q-83 29 -135 67t-106 67q-56 32 -94 29q-52 -2 -87 -47 q-36 -42 -33 -87q3 -50 37 -114q34 -63 101 -134q68 -70 159 -127q87 -57 216 -90q128 -33 266 -23q184 12 337 77q153 63 262 175q108 108 165 268q47 141 44 307q3 155 -42 287z" />
<glyph unicode="&#x42e;" horiz-adv-x="2357" d="M1555 355q-85 0 -132 130q-45 133 -45 306q0 115 18 218q18 101 60 173q42 70 99 72q80 0 124 -142q45 -137 45 -318q0 -182 -43 -309q-41 -130 -126 -130zM2045 1411q-92 94 -215 141q-122 48 -275 48q-158 0 -279 -41q-119 -42 -216 -132q-96 -90 -148 -247 q-26 -85 -40 -184h-173v354q0 158 -70 209q-68 52 -205 52q-265 0 -266 -283v-996q0 -188 64 -262q66 -72 202 -72q140 0 207 85q68 85 68 268v264h173q11 -103 40 -186q54 -155 151 -245q99 -92 218 -132q122 -40 274 -40q148 0 268 40q122 40 217 132q97 90 148 243 q52 153 52 364q0 214 -52 371q-49 155 -143 249z" />
<glyph unicode="&#x42f;" horiz-adv-x="1695" d="M733 1297q82 43 278 43v-407q-184 0 -274 47q-87 45 -87 162q0 113 83 155zM148 139q31 -85 85 -113q55 -28 153 -28q140 0 203 56q65 59 65 177q0 146 29 223q29 81 73 104t125 24l130 -2v-229q0 -353 275 -353q139 0 202 72q66 76 67 265v993q0 137 -76 207 q-73 73 -193 74h-495q-290 0 -468 -135q-179 -137 -179 -348q0 -160 68 -250q65 -92 215 -134q-113 -7 -211 -108q-96 -104 -96 -257q0 -155 28 -238z" />
<glyph unicode="&#x430;" horiz-adv-x="1468" d="M530 -14q-186 0 -308.5 152t-122.5 415q0 268 121.5 427.5t309.5 159.5q191 0 353 -135q63 117 205 119q128 0 198.5 -55.5t70.5 -203.5v-613q0 -142 -59 -197t-208 -55q-155 0 -204 87q-151 -101 -356 -101zM850 780q-40 68 -104 68q-61 0 -98.5 -89.5t-37.5 -205.5 q0 -108 35.5 -192.5t98.5 -84.5q66 0 106 63v441z" />
<glyph unicode="&#x431;" horiz-adv-x="1497" d="M746 256q-61 0 -94 90q-33 92 -32 212q0 78 14 146q13 68 44 116q32 47 71 47q58 0 89 -92q31 -94 31 -217q0 -122 -31 -212t-92 -90zM874 1130l-90 71l-7 5l-2 3l-7 4q-45 41 -45 99q0 99 95 127l11 4q76 36 184 38q108 0 200 -4q90 -7 129 9q33 16 50 54q16 40 -5 85 q-54 120 -270 146q-217 29 -470 -87q-148 -68 -242 -160q-85 -88 -122 -184q-16 -40 -17 -90q0 -117 89 -180l22 -18q-54 -31 -101 -70q-184 -157 -184 -427q0 -177 90 -308q87 -132 234 -198q146 -65 330 -65q281 0 467 153q184 153 183 418q0 268 -180 427 q-140 120 -342 148z" />
<glyph unicode="&#x432;" horiz-adv-x="1429" d="M610 353v119q33 -7 78 -9q47 0 78 -2q33 -4 52 -14q9 -7 16 -13q-7 -32 -19 -59q-35 -85 -99 -85q-66 0 -106 63zM813 773q9 -21 16 -47q-2 -7 -4 -12q-5 -11 -48 -22q-42 -9 -132 -9h-35v111q40 67 104 68q61 0 99 -89zM1254 544q-38 33 -105 71q144 99 144 271 q0 119 -111 195q-49 33 -122 52v0q-61 20 -130 22q-191 0 -353 -135q-63 117 -204 117q-128 0 -198 -56q-70 -54 -71 -202v-613q0 -142 58 -198q59 -54 208 -54q156 0 205 87q151 -101 355 -101q70 0 133 21q87 23 148 76q115 92 115 240q0 76 -18 124q-19 50 -54 83z" />
<glyph unicode="&#x433;" horiz-adv-x="1174" d="M890 1124h-548q-27 0 -50 -5q-90 -12 -123 -69h-2q-63 -72 -63 -193v-579q0 -148 49 -215q52 -63 191 -63q148 0 207 54q59 56 59 198v584h257q135 0 191 29q59 26 59 101q0 90 -50 124q-49 34 -177 34z" />
<glyph unicode="&#x434;" horiz-adv-x="1468" d="M537 -14q-186 0 -308.5 152t-122.5 417q0 268 120 426.5t309 158.5q191 0 353 -131q61 115 202 115q128 0 200 -56.5t72 -202.5v-431q0 -229 -29.5 -392.5t-101.5 -289t-198.5 -186t-309.5 -60.5q-127 0 -235 35t-172 86.5t-99 104t-35 89.5q0 44 25.5 75.5t73.5 31.5 q28 0 142 -62t184 -62q241 0 241 248q-136 -66 -311 -66zM857 339l-3 445q-40 66 -101 66q-42 0 -74 -44.5t-46.5 -110.5t-14.5 -140q0 -110 35 -193.5t98 -83.5t106 61z" />
<glyph unicode="&#x435;" d="M756 -14q-288 0 -475 148.5t-187 404.5q0 279 184.5 440t477.5 161q276 0 404 -98t128 -267q0 -33 -8 -63.5t-26 -60t-47 -54t-67 -45t-90 -31t-110 -10.5l-333 -3q23 -76 84.5 -119t156.5 -43q101 0 208 27q45 11 97.5 37t75.5 26q41 0 63 -23.5t22 -59.5 q0 -43 -37.5 -102.5t-104.5 -120t-178 -102.5t-238 -42zM596 659q162 2 177 2q35 0 52 43q11 31 11 85q0 148 -90 148q-33 0 -64.5 -35t-55 -100t-30.5 -143z" />
<glyph unicode="&#x436;" horiz-adv-x="2018" d="M1658 555q108 0 196 81q87 80 87 226q0 140 -49 190q-52 54 -198 55q-139 0 -196 -49q-58 -49 -59 -161q0 -76 -19 -99q-20 -26 -78 -25q-61 0 -86 25q-12 142 -47 211q-50 98 -196 98q-85 -4 -137 -31q-54 -26 -87 -89q-31 -61 -33 -160v-36q-27 -18 -80 -18 q-56 0 -78 25q-18 23 -18 99q0 110 -57 161q-58 49 -198 49q-146 0 -195 -55q-52 -52 -52 -190q0 -146 86 -226q88 -81 196 -81q-110 0 -196 -67q-87 -66 -86 -200q0 -180 47 -234q50 -54 200 -54q140 0 198 49q57 52 57 160q0 54 9 81q9 29 23 38q16 7 49 7h85 q0 -64 20 -123q14 -92 54 -140q61 -72 193 -72q117 0 188 106q70 106 71 229h85q33 0 49 -7q14 -9 23 -38q10 -27 10 -81q0 -108 59 -160q57 -49 196 -49q151 0 200 54q47 54 47 234q0 134 -85 200q-87 67 -198 67z" />
<glyph unicode="&#x437;" horiz-adv-x="1066" d="M573 721q-7 -11 -50 -22q-42 -9 -132 -9q-135 0 -135 -101q0 -68 41 -95q40 -22 137 -22q47 0 79 -5q31 -2 49 -13q19 -11 27 -25q7 -14 7 -36q0 -65 -180 -65q-33 0 -93 4q-63 7 -94 7q-59 0 -92 -31q-33 -29 -33 -112q0 -99 103 -149q101 -47 339 -47q191 0 304 90 q113 89 114 233q0 70 -20 117q-18 50 -54 81q-36 33 -101 68q141 96 141 261q0 115 -110 188q-108 73 -330 74q-344 0 -344 -146q0 -144 117 -144q23 0 79 5q54 7 85 7q150 0 150 -81q0 -23 -4 -32z" />
<glyph unicode="&#x438;" horiz-adv-x="1472" d="M624 497q0 -135 104 -135q36 0 63 22.5t40.5 63t13.5 91.5v315q0 81 28.5 141.5t83 93t126.5 32.5q128 0 198.5 -55t70.5 -204v-612q0 -144 -59 -198t-207 -54q-64 0 -108.5 12.5t-71.5 39t-41 67.5q-97 -63 -204.5 -89t-238.5 -26q-167 0 -240.5 130.5t-73.5 429.5 q0 149 7 242t22.5 160.5t47 100t75.5 47t115 14.5q132 0 189.5 -49.5t57.5 -148.5z" />
<glyph unicode="&#x439;" horiz-adv-x="1472" d="M624 497q0 -135 104 -135q52 0 84.5 49.5t32.5 127.5v315q0 59 17 109t47.5 85t75 54t98.5 19q128 0 198.5 -55t70.5 -204v-612q0 -144 -59 -198t-207 -54q-180 0 -221 119q-180 -115 -443 -115q-167 0 -240.5 130.5t-73.5 429.5q0 149 7 242t22.5 160.5t47 100t75.5 47 t115 14.5q132 0 189.5 -49.5t57.5 -148.5zM735 1515q78 0 78 110q0 113 169 113q191 0 191 -156q0 -343 -438 -343q-207 0 -322.5 77.5t-115.5 265.5q0 156 191 156q169 0 169 -113q0 -56 16.5 -83t61.5 -27z" />
<glyph unicode="&#x43a;" horiz-adv-x="1371" d="M1013 555q108 0 196 81q87 80 86 226q0 140 -52 190q-49 54 -195 55q-140 0 -198 -49q-56 -49 -56 -161q0 -76 -19 -99q-21 -26 -78 -25q-61 0 -90 25q-9 142 -45 211q-49 98 -195 98q-85 -4 -138 -31q-52 -26 -85 -89q-34 -61 -34 -160v-490q0 -189 62 -265 q64 -72 195 -72q117 0 188 106t72 229h84q33 0 50 -7q14 -9 23 -38q10 -27 10 -81q0 -108 56 -160q58 -49 198 -49q150 0 200 54q47 54 47 234q0 134 -86 200q-85 67 -196 67z" />
<glyph unicode="&#x43b;" horiz-adv-x="1447" d="M770 766q17 -5 26 -20q11 -11 19 -23q7 -11 10 -38q2 -26 2 -42v-57l2 -377q0 -108 61 -160q61 -49 207 -49q104 0 157 43q49 44 70 155q20 112 20 344q0 127 -39 228q-40 102 -104 165q-64 65 -145 110q-85 43 -168 62q-83 17 -165 17q-85 0 -168 -17q-82 -18 -164 -62 q-83 -45 -144 -110q-63 -63 -103 -165q-40 -101 -40 -228q0 -140 6 -229q7 -92 22 -155q14 -66 45 -97q31 -33 70 -47q41 -14 104 -14q99 0 157 23q59 23 85 69q23 45 25 117l2 380q0 103 18 141q19 40 88 40q26 0 44 -4z" />
<glyph unicode="&#x43c;" horiz-adv-x="1762" d="M1392 1121q-109 0 -172 -73l-11 -14q-38 -29 -95 -106l-224 -283l-225 288q-31 40 -55 67q-24 29 -48 48l-18 15l-5 2q-70 56 -197 56q-109 0 -175 -73q-63 -73 -63 -194v-578q0 -148 51 -215q50 -63 189 -63q148 0 207 54q59 56 59 198v174l104 -134q63 -83 174 -85 q117 -3 182 85l85 110v-124q0 -148 51 -215q50 -63 188 -63q148 0 208 54q59 56 59 198v612q0 149 -72 203q-70 56 -197 56z" />
<glyph unicode="&#x43d;" horiz-adv-x="1450" d="M1079 1124q-108 0 -175 -74q-63 -72 -63 -193v-153h-231v161q0 148 -71 202q-70 57 -197 57q-109 0 -175 -74q-63 -72 -63 -193v-579q0 -148 49 -215q52 -63 191 -63q148 0 207 54q59 56 59 198v168h231v-142q0 -148 49 -215q52 -63 191 -63q148 0 207 54q59 56 59 198 v613q0 148 -71 202q-70 57 -197 57z" />
<glyph unicode="&#x43e;" horiz-adv-x="1485" d="M869 558q0 122 -31 215.5t-89 93.5q-41 0 -71.5 -47t-44 -115.5t-13.5 -146.5q0 -120 32.5 -211t93.5 -91t92 90t31 212zM746 -16q-184 0 -331 65.5t-235 198t-88 307.5q0 268 183.5 426.5t471 158.5t468.5 -157.5t181 -427.5q0 -265 -184.5 -418t-465.5 -153z" />
<glyph unicode="&#x43f;" horiz-adv-x="1450" d="M831 634q0 132 -103 132q-50 0 -81.5 -41.5t-36.5 -109.5v-363q0 -144 -59 -198t-207 -54q-139 0 -189.5 65t-50.5 213v579q0 119 64.5 193t173.5 74q89 0 150 -26t92 -89q184 119 448 119q166 0 240.5 -131.5t74.5 -434.5q0 -148 -7 -240.5t-22 -160t-48.5 -100t-77 -47 t-111.5 -14.5q-132 0 -189.5 49.5t-57.5 146.5z" />
<glyph unicode="&#x440;" horiz-adv-x="1461" d="M629 -137q0 -191 -64 -272t-195 -81q-132 0 -193.5 74t-61.5 263l-5 994q0 146 71 214.5t189 68.5q92 0 148.5 -22.5t84.5 -88.5q162 128 348 127q189 0 309 -157.5t120 -429.5q0 -263 -122.5 -415t-308.5 -152q-180 0 -320 80v-203zM629 342q40 -66 106 -66 q63 0 98.5 84.5t35.5 192.5q0 115 -37.5 205t-98.5 90q-64 0 -104 -68v-438z" />
<glyph unicode="&#x441;" horiz-adv-x="1409" d="M805 881q0 54 -61 54q-45 0 -80 -49.5t-54 -123.5t-19 -155q0 -117 72 -190t194 -73q119 0 208 29q36 9 86 35t71 26q34 0 54.5 -12.5t29 -28.5t8.5 -35q0 -34 -22 -80.5t-69.5 -98t-110 -95.5t-154 -72t-192.5 -28q-292 0 -480.5 156.5t-188.5 429.5q0 175 85.5 305 t236.5 197.5t347 67.5q186 0 307 -44t172.5 -117t51.5 -174q0 -45 -17 -91.5t-54 -93.5t-107.5 -77t-165.5 -30q-42 0 -69 5t-56.5 20t-43.5 50.5t-14 89.5q0 48 17.5 115t17.5 88z" />
<glyph unicode="&#x442;" horiz-adv-x="2130" d="M1505 622q0 132 -105 131q-48 0 -71.5 -54t-23.5 -137q0 -125 -4 -206.5t-15.5 -148t-28 -104t-45 -62.5t-63.5 -33t-89 -8q-82 0 -133 23.5t-72 66t-21 106.5v426q0 132 -106 131q-43 0 -70 -48t-27 -125v-328q0 -142 -59 -197t-207 -55q-140 0 -190 65t-50 213v579 q0 119 64.5 193t172.5 74q193 0 245 -126q90 66 176 92.5t201 26.5q175 0 252 -151l24 18q182 133 445 133q167 0 240 -127.5t73 -427.5q0 -125 -3.5 -206.5t-15 -148t-29 -104t-50 -62.5t-71 -33t-96.5 -8q-90 0 -145.5 23.5t-79 66t-23.5 106.5v426z" />
<glyph unicode="&#x443;" horiz-adv-x="1429" d="M1328 665q0 -403 -23 -564q-18 -144 -58.5 -248.5t-113.5 -185.5t-186 -121t-269 -40q-125 0 -232 36t-169.5 89.5t-97.5 105t-35 89t24.5 70t67.5 32.5q31 0 71.5 -19t78.5 -43t90 -43t101 -19q128 0 181 64t53 181q-41 -16 -78.5 -28t-73 -19t-67.5 -9t-62 -2 q-139 0 -238 77.5t-142.5 192t-43.5 245.5q0 132 3.5 224t15.5 164t27 114t43.5 69.5t63.5 37t85 9.5q148 0 208 -51t60 -159l3 -379v-56t3.5 -44t9.5 -37.5t16 -24.5t28 -17.5t44 -4.5q71 0 88.5 39t17.5 142l3 382q0 73 24.5 117.5t83 68.5t159.5 24q61 0 105 -20.5 t70 -52t39 -94t17.5 -126t4.5 -166.5z" />
<glyph unicode="&#x444;" horiz-adv-x="2185" d="M1456 276q-63 0 -104 66v438q41 68 104 68q61 0 99 -90t37 -205q0 -108 -35 -193q-36 -84 -101 -84zM629 360q-36 85 -36 193q0 115 38 205t99 90q64 0 104 -66v-184v-256q-40 -66 -106 -66q-63 -1 -99 84zM1674 1140q-186 0 -348 -127q-29 66 -85 89q-57 20 -149 22h-18 q-80 -3 -130 -25q-56 -20 -84 -86q-162 128 -349 127q-189 0 -309 -158q-119 -157 -119 -429q0 -263 122 -416q122 -151 308 -151q179 0 321 80v-203q0 -99 16 -167q16 -72 49 -112q54 -66 166 -74h16h11q130 0 196 83q63 80 64 270v203q142 -81 320 -80q186 0 308 153 q122 151 123 414q0 272 -120 429q-120 158 -309 158z" />
<glyph unicode="&#x445;" horiz-adv-x="1416" d="M711 233q-5 -6 -31 -32t-34 -36t-32.5 -34.5t-38 -35t-36.5 -29.5t-40.5 -27t-39 -19t-42.5 -15.5t-42 -4.5q-104 0 -198 84.5t-94 181.5q0 23 19.5 52.5t58.5 65.5t68.5 62t75.5 61t55 44q-18 14 -53.5 43.5t-59 51t-54.5 53t-48 61t-31.5 67.5t-14.5 77 q0 80 77.5 148.5t160.5 68.5q45 0 87.5 -19t81 -53t70 -68.5t70.5 -80.5t65 -69q26 23 80 87t90 101t92 69.5t110 32.5q34 0 69 -13t64 -35.5t54 -49.5t38 -58.5t13 -62.5q0 -41 -14 -79.5t-54 -84.5t-57.5 -66t-75.5 -71l-57 -50q7 -9 54 -44t76 -61t66.5 -62t57.5 -65 t20 -53q0 -97 -94 -181.5t-198 -84.5q-23 0 -47.5 7t-44.5 15.5t-46 27t-41.5 30.5t-42.5 38t-37.5 36t-39 41.5t-35.5 37.5z" />
<glyph unicode="&#x446;" horiz-adv-x="1850" d="M1699 377q-99 104 -245 92q-54 -4 -107 -24v417q0 149 -71 203q-70 56 -197 56q-73 0 -128 -33q-54 -33 -82 -94q-28 -59 -28 -140v-315q0 -51 -14 -92q-14 -40 -40 -63q-29 -21 -64 -22q-103 0 -103 135l-2 431q0 99 -58 148q-59 50 -190 50q-70 0 -116 -14 q-42 -14 -72 -47q-34 -33 -47 -101q-17 -66 -25 -161q-6 -92 -6 -241q0 -299 73 -430q73 -130 239 -130q133 0 238 27q108 26 206 88q14 -42 42 -68q26 -26 71 -40q45 -11 108 -11q115 0 177 33q68 23 115 28q31 2 54 -12q19 -11 19 -33v-7q0 -7 -3 -14q-7 -16 -23 -42 q-35 -55 -33 -97q2 -23 15 -45q14 -23 32 -40q16 -19 40 -32q21 -14 47 -22q21 -5 41 -5h9q49 5 94 36v0q85 58 117 174q34 112 25 208q-12 146 -108 249z" />
<glyph unicode="&#x447;" horiz-adv-x="1450" d="M1347 756v0v106q0 149 -71 203q-70 56 -197 56q-108 0 -175 -73q-63 -73 -63 -194v-98h-3q-2 -36 -11 -66q-14 -40 -43 -63q-26 -21 -61 -22q-103 0 -103 134v14l-2 170q0 99 -58 149q-59 49 -193 49q-70 0 -115 -14q-43 -13 -75 -47q-33 -33 -47 -99q-16 -67 -24 -161 l-2 -44v-3q6 -259 73 -378q73 -130 239 -130q133 0 238 26q97 23 187 77v-72q0 -148 49 -215q52 -63 191 -63q148 0 207 54q59 56 59 198v219v23v264z" />
<glyph unicode="&#x448;" horiz-adv-x="2099" d="M618 926q0 63 -25 106q-23 42 -80 65q-54 23 -143 24q-58 0 -99 -7q-38 -9 -71 -33q-31 -26 -49 -63q-16 -38 -29 -104q-12 -65 -16 -148q-2 -83 -2 -208q0 -299 73 -426t239 -127q264 0 446 132l24 18q78 -150 251 -150q115 0 200 26q88 27 178 91q51 -125 245 -124 q108 0 173 72q63 73 65 193v580q0 148 -50 215q-52 63 -191 63q-148 0 -207 -54q-58 -56 -60 -198v-327q0 -79 -27 -128q-27 -47 -69 -47q-106 0 -106 132v427q0 63 -21 106q-20 42 -71 65q-52 23 -133 24q-54 0 -90 -7q-36 -9 -63 -33q-29 -26 -45 -63q-16 -38 -29 -104 q-11 -65 -16 -148q-2 -83 -2 -208q0 -83 -24 -136q-24 -54 -71 -55q-105 0 -105 132v427z" />
<glyph unicode="&#x449;" horiz-adv-x="2432" d="M2279 358q-99 103 -245 92l-36 -5v398q0 148 -50 215q-52 63 -191 63q-148 0 -207 -54q-58 -56 -60 -198v-327q0 -79 -27 -126q-27 -49 -69 -49q-106 0 -106 132v427q0 63 -21 106q-20 42 -71 65q-52 23 -133 24q-54 0 -90 -7q-36 -9 -63 -33q-29 -26 -45 -63 q-16 -38 -29 -104q-11 -65 -16 -148q-2 -83 -2 -208q0 -83 -24 -136q-24 -54 -71 -55q-105 0 -105 132v427q0 63 -25 106q-23 42 -80 65q-54 23 -143 24q-58 0 -99 -7q-38 -9 -71 -33q-31 -26 -49 -63q-16 -38 -29 -104q-12 -65 -16 -148q-2 -83 -2 -208q0 -299 73 -426 t239 -127q264 0 446 132l24 18q78 -150 251 -150q115 0 200 26q88 27 178 91q51 -125 245 -124q54 0 98 18q57 18 97 24q31 3 54 -11q18 -12 21 -34l-3 -7q0 -6 -2 -14q-7 -17 -23 -42q-36 -54 -33 -96q2 -23 16 -45q11 -23 31 -41q18 -18 40 -33q21 -14 47 -21q21 -4 41 -4 h9q49 4 94 34v0q85 59 117 175q34 113 27 207q-15 146 -112 250z" />
<glyph unicode="&#x44a;" horiz-adv-x="1485" d="M951 240q-29 -18 -61 -24l-23 -2q2 29 2 64v288l10 -4q35 -7 63 -27q31 -19 47 -57q14 -35 14 -89q0 -61 -12 -95q-11 -35 -40 -54zM1137 742q-108 42 -247 42h-21v70q0 120 -66 194q-64 72 -172 73h-13h-22q-43 0 -75 -9l-269 -40q-5 -2 -14 -2q-49 -12 -74 -18 q-26 -4 -56 -27q-33 -23 -49 -61q-23 -54 0 -112q26 -54 89 -82q48 -18 108 -26l106 -9v-485q0 -142 60 -198q40 -36 120 -50q26 -4 54 -4h7h26h21h238q108 0 198 28q89 32 155 82q68 50 103 130q38 78 38 171q0 115 -68 203q-66 87 -177 130z" />
<glyph unicode="&#x44b;" horiz-adv-x="1865" d="M1762 862q0 149 -72 205q-70 54 -197 54q-108 0 -172 -73q-65 -73 -65 -194v-578q0 -148 52 -213q49 -65 187 -65q148 0 208 56q59 54 59 196v612zM610 276v286l10 -2q36 -7 63 -28q31 -18 47 -56q14 -36 14 -90q0 -61 -11 -94q-12 -36 -41 -54q-28 -18 -61 -24l-24 -2 q3 28 3 64zM104 250q0 -142 58 -198q40 -36 121 -50q26 -4 56 -4h5h26h21h238q108 0 198 28q90 32 157 82q66 50 102 130q38 78 38 171q0 115 -66 203q-68 87 -179 130q-109 42 -248 42h-21v70q0 120 -66 194q-63 72 -171 73h-15h-19q-83 0 -130 -33q-18 -9 -34 -23 q-70 -54 -71 -203v-612z" />
<glyph unicode="&#x44c;" horiz-adv-x="1227" d="M610 278v288l10 -4q36 -7 63 -27q31 -19 47 -57q14 -35 14 -89q0 -61 -11 -95q-12 -35 -41 -54q-28 -18 -61 -24l-24 -2q3 29 3 64zM104 252q0 -142 58 -198q40 -36 121 -49q26 -5 56 -5h5h26h21h238q108 0 198 29q90 31 157 81q66 50 102 130q38 79 38 172 q0 115 -66 203q-68 88 -179 129q-109 43 -248 43h-21v70q0 119 -66 193q-63 72 -171 74h-15h-19q-83 0 -130 -34q-18 -9 -34 -23q-70 -54 -71 -202v-613z" />
<glyph unicode="&#x44d;" horiz-adv-x="1320" d="M1232 570q0 158 -66 280l-11 15q-7 9 -13 16l-16 21q-19 23 -36 42q-20 27 -34 38q-177 158 -451 158q-94 0 -181 -28q-85 -29 -143 -71q-59 -45 -104 -97q-42 -52 -64 -99q-21 -47 -21 -79q0 -18 7 -36q9 -16 29 -28q18 -12 49 -12q21 0 68 26q47 27 80 35q83 29 196 29 t181 -74l12 -14q-11 -7 -40 -14q-40 -9 -123 -9q-128 0 -127 -101q0 -68 37 -92q38 -26 130 -26q43 0 74 -3q31 -4 46 -13l3 -3l-12 -15q-68 -72 -181 -72t-196 29q-33 9 -80 34q-47 27 -68 27q-31 0 -49 -12q-19 -11 -29 -29q-7 -16 -7 -35q0 -34 21 -80q20 -47 64 -99 q45 -51 104 -94q58 -45 143 -73q88 -29 181 -28q274 0 451 157q16 14 39 43q16 21 38 49l16 23q7 10 15 20l11 16q57 115 57 261v17z" />
<glyph unicode="&#x44e;" horiz-adv-x="2095" d="M1342 256q-61 0 -94 90q-34 92 -32 212q0 78 13 146q14 68 45 116q31 47 70 47q59 0 90 -92q31 -94 31 -217q0 -122 -31 -212t-92 -90zM1342 1140q-287 0 -470 -158q-130 -110 -168 -278h-108v161q0 148 -70 202q-71 57 -198 57q-108 0 -175 -74q-63 -72 -63 -193v-579 q0 -148 49 -215q52 -63 191 -63q148 0 207 54q59 56 59 198v168h108q20 -95 73 -173q88 -132 236 -198q146 -65 329 -65q281 0 467 153q184 153 184 418q0 268 -182 427q-181 158 -469 158z" />
<glyph unicode="&#x44f;" horiz-adv-x="1227" d="M535 881q29 18 61 23l24 6q-2 -31 -2 -67v-288l-11 3q-35 9 -63 28q-31 19 -47 57q-14 38 -14 90q0 61 11 96q12 36 41 52zM944 1117q-26 4 -54 4h-7h-26h-21h-238q-108 0 -198 -29q-90 -28 -155 -79q-68 -52 -104 -130q-37 -78 -37 -175q0 -115 68 -202q14 -16 30 -34 q-16 -12 -33 -29q-65 -73 -65 -182q0 -160 42 -212q43 -51 142 -51q188 0 188 164q0 126 21 180q47 -7 99 -7h22v-72q0 -119 65 -193q63 -72 171 -72h15h21q81 0 128 33q18 12 34 23q70 54 72 202v613q0 142 -59 198q-40 38 -121 50z" />
<glyph unicode="&#x450;" d="M756 -14q-288 0 -475 148.5t-187 404.5q0 279 184.5 440t477.5 161q276 0 404 -98t128 -267q0 -106 -88 -184t-260 -80l-333 -3q23 -76 84.5 -119t156.5 -43q101 0 208 27q45 11 97.5 37t75.5 26q41 0 63 -23.5t22 -59.5q0 -43 -37.5 -102.5t-104.5 -120t-178 -102.5 t-238 -42zM596 659q162 2 177 2q35 0 52 43q11 31 11 85q0 148 -90 148q-49 0 -95 -80.5t-55 -197.5zM629 1773l270 -169q5 -2 25 -16.5t24.5 -18t21.5 -16.5t21.5 -20t15.5 -19.5t14.5 -24.5t7 -29t3.5 -33q0 -59 -44 -100t-114 -41q-52 0 -108 19l-288 97 q-146 54 -146 174q0 82 51 155t133 73q59 0 113 -31z" />
<glyph unicode="&#x451;" d="M756 -14q-288 0 -475 148.5t-187 404.5q0 279 184.5 440t477.5 161q276 0 404 -98t128 -267q0 -106 -88 -184t-260 -80l-333 -3q23 -76 84.5 -119t156.5 -43q101 0 208 27q45 11 97.5 37t75.5 26q41 0 63 -23.5t22 -59.5q0 -43 -37.5 -102.5t-104.5 -120t-178 -102.5 t-238 -42zM596 659q162 2 177 2q35 0 52 43q11 31 11 85q0 148 -90 148q-49 0 -95 -80.5t-55 -197.5zM773 1425q0 76 64.5 124t180.5 48q247 0 247 -172q0 -97 -62.5 -134t-184.5 -37q-106 0 -175.5 40.5t-69.5 130.5zM207 1425q0 76 64 124t181 48q247 0 247 -172 q0 -97 -63 -134t-184 -37q-106 0 -175.5 40.5t-69.5 130.5z" />
<glyph unicode="&#x452;" horiz-adv-x="1468" d="M-33 1324q0 72 35.5 103t105.5 31h17q52 167 245 167q68 0 113 -10.5t81 -49.5t51 -107h160q54 0 87 -20t45 -48t12 -71q0 -21 -6.5 -38.5t-15.5 -31t-23 -23.5t-31.5 -15t-37.5 -5q-2 0 -12.5 1.5t-28.5 3.5t-39 4.5t-49.5 6t-53.5 5.5v-205q175 106 423 106 q167 0 242 -133t75 -435q0 -146 -7.5 -238.5t-22.5 -160t-48.5 -100t-76.5 -47t-112 -14.5q-132 0 -189.5 48.5t-57.5 147.5l-3 435q0 135 -103 135q-57 0 -88.5 -37t-31.5 -111v-260q0 -194 -62.5 -275t-189.5 -81q-132 0 -193.5 74.5t-61.5 262.5l-5 867q-16 -2 -25 -2 q-118 0 -118 120zM1335 829v-766q0 -127 -22.5 -229t-70.5 -186t-131.5 -130t-198.5 -46q-250 0 -404.5 75.5t-154.5 160.5q0 63 48.5 90t168.5 27q64 0 102.5 6.5t77.5 29t57 74t18 131.5v728q0 98 35 163t92 92t134 27q108 0 178.5 -71.5t70.5 -175.5z" />
<glyph unicode="&#x453;" horiz-adv-x="872" d="M721 1124h-548q-27 0 -50 -5q-90 -12 -123 -69h-2q-63 -72 -63 -193v-579q0 -148 49 -215q52 -63 191 -63q148 0 207 54q59 56 59 198v584h257q135 0 191 29q59 26 59 101q0 90 -50 124q-49 34 -177 34zM490 1795q52 31 113 30q82 0 133 -73t51 -155q0 -117 -146 -174 l-288 -97q-59 -18 -108 -18q-47 0 -83.5 18t-55.5 50.5t-19 72.5q0 85 95 151l36 25z" />
<glyph unicode="&#x454;" horiz-adv-x="1320" d="M73 591q0 158 66 280l11 15q7 9 13 16l16 21q19 23 36 42q20 27 34 38q177 158 451 158q94 0 181 -28q85 -29 143 -71q59 -45 104 -97q42 -52 64 -99q21 -47 21 -79q0 -18 -7 -36q-9 -16 -29 -28q-18 -12 -49 -12q-21 0 -68 26q-47 27 -80 35q-83 29 -196 29t-181 -74 l-12 -14q11 -7 40 -14q40 -9 123 -9q128 0 127 -101q0 -68 -37 -92q-38 -26 -130 -26q-43 0 -74 -3q-31 -4 -46 -13l-3 -3l12 -15q68 -72 181 -72t196 29q33 9 80 34q47 27 68 27q31 0 49 -12q19 -11 29 -29q7 -16 7 -35q0 -34 -21 -80q-20 -47 -64 -99q-45 -51 -104 -94 q-58 -45 -143 -73q-88 -29 -181 -28q-274 0 -451 157q-16 14 -39 43q-16 21 -38 49l-16 23q-7 10 -15 20l-11 16q-57 115 -57 261v17z" />
<glyph unicode="&#x455;" horiz-adv-x="1322" d="M661 1140q219 0 365.5 -89.5t146.5 -196.5q0 -31 -26 -56t-66 -25q-36 0 -78 24.5t-79.5 53t-98.5 52t-130 23.5q-92 0 -92 -57q0 -40 47 -63.5t138 -49.5t138 -50q177 -68 242.5 -146.5t65.5 -208.5q0 -63 -35 -126t-106 -118t-192 -89t-277 -34q-303 0 -455 138 q-72 68 -72 141q0 45 29 71t83 26t165 -53t206 -53q130 0 128 63q0 34 -67.5 54t-178.5 48t-177 71q-103 45 -144.5 112t-41.5 164q0 164 156.5 269t405.5 105z" />
<glyph unicode="&#x456;" horiz-adv-x="717" d="M101 1451q0 79 67.5 129t189.5 50q256 0 257 -179q0 -99 -65 -139t-192 -40q-111 0 -184 42.5t-73 136.5zM612 252q0 -142 -59 -197t-207 -55q-139 0 -189.5 65t-50.5 213v579q0 119 65 193t173 74q128 0 198 -55.5t70 -203.5v-613z" />
<glyph unicode="&#x457;" horiz-adv-x="665" d="M589 252q0 -142 -58.5 -197t-207.5 -55q-139 0 -189.5 65t-50.5 213v579q0 80 28 140.5t82 93.5t128 33q127 0 197.5 -55.5t70.5 -203.5v-613zM382 1432q0 76 64.5 124t180.5 48q247 0 247 -172q0 -97 -62.5 -134.5t-184.5 -37.5q-106 0 -175.5 41t-69.5 131zM-184 1432 q0 76 64 124t181 48q247 0 247 -172q0 -97 -63 -134.5t-184 -37.5q-106 0 -175.5 41t-69.5 131z" />
<glyph unicode="&#x458;" horiz-adv-x="800" d="M678 876v-766q0 -263 -101 -427t-323 -164q-249 0 -403.5 75.5t-154.5 160.5q0 63 48.5 90t168.5 27q65 0 103 6.5t77 29t56.5 73t17.5 132.5v728q0 146 71.5 214.5t190.5 68.5q108 0 178.5 -72t70.5 -176zM160 1451q0 79 67 129t189 50q257 0 258 -179q0 -99 -65 -139 t-193 -40q-110 0 -183 42.5t-73 136.5z" />
<glyph unicode="&#x459;" horiz-adv-x="1447" d="M787 294v288l10 -4q36 -7 63 -27q31 -19 47 -57q14 -35 14 -89q0 -61 -11 -95q-12 -35 -41 -54q-28 -18 -61 -24l-24 -2q3 29 3 64zM281 268q0 -142 58 -198q40 -36 121 -49q26 -5 56 -5h5h26h21h238q108 0 198 29q90 31 157 81q66 50 102 130q38 79 38 172 q0 115 -66 203q-68 88 -179 129q-109 43 -248 43h-21v70q0 119 -66 193q-63 72 -171 74h-15h-19q-83 0 -130 -34q-18 -9 -34 -23q-70 -54 -71 -202v-613zM172 784q17 -5 26 -20q11 -11 19 -23q7 -11 10 -38q2 -26 2 -42v-57l2 -377q0 -108 61 -160q61 -49 207 -49 q104 0 157 43q49 44 70 155q20 112 20 344q0 127 -39 228q-40 102 -104 165q-64 65 -145 110q-85 43 -168 62q-83 17 -165 17q-85 0 -168 -17q-82 -18 -164 -62q-83 -45 -144 -110q-63 -63 -103 -165q-40 -101 -40 -228q0 -140 6 -229q7 -92 22 -155q14 -66 45 -97 q31 -33 70 -47q41 -14 104 -14q99 0 157 23q59 23 85 69q23 45 25 117l2 380q0 103 18 141q19 40 88 40q26 0 44 -4z" />
<glyph unicode="&#x45a;" horiz-adv-x="1450" d="M803 278v288l10 -4q36 -7 63 -27q31 -19 47 -57q14 -35 14 -89q0 -61 -11 -95q-12 -35 -41 -54q-28 -18 -61 -24l-24 -2q3 29 3 64zM297 252q0 -142 58 -198q40 -36 121 -49q26 -5 56 -5h5h26h21h238q108 0 198 29q90 31 157 81q66 50 102 130q38 79 38 172 q0 115 -66 203q-68 88 -179 129q-109 43 -248 43h-21v70q0 119 -66 193q-63 72 -171 74h-15h-19q-83 0 -130 -34q-18 -9 -34 -23q-70 -54 -71 -202v-613zM524 1126q-108 0 -175 -74q-63 -72 -63 -193v-153h-231v161q0 148 -71 202q-70 57 -197 57q-109 0 -175 -74 q-63 -72 -63 -193v-579q0 -148 49 -215q52 -63 191 -63q148 0 207 54q59 56 59 198v168h231v-142q0 -148 49 -215q52 -63 191 -63q148 0 207 54q59 56 59 198v613q0 148 -71 202q-70 57 -197 57z" />
<glyph unicode="&#x45b;" horiz-adv-x="1468" d="M-33 1324q0 72 35.5 103t105.5 31h17q52 167 245 167q68 0 113 -10.5t81 -49.5t51 -107h160q54 0 87 -20t45 -48t12 -71q0 -21 -6.5 -38.5t-15.5 -31t-23 -23.5t-31.5 -15t-37.5 -5q-2 0 -12.5 1.5t-28.5 3.5t-39 4.5t-49.5 6t-53.5 5.5v-205q175 106 423 106 q167 0 242 -133t75 -435q0 -146 -7.5 -238.5t-22.5 -160t-48.5 -100t-76.5 -47t-112 -14.5q-132 0 -189.5 48.5t-57.5 147.5l-3 435q0 135 -103 135q-57 0 -88.5 -37t-31.5 -111v-260q0 -194 -62.5 -275t-189.5 -81q-132 0 -193.5 74.5t-61.5 262.5l-5 867q-16 -2 -25 -2 q-118 0 -118 120z" />
<glyph unicode="&#x45c;" horiz-adv-x="1371" d="M1013 555q108 0 196 81q87 80 86 226q0 140 -52 190q-49 54 -195 55q-140 0 -198 -49q-56 -49 -56 -161q0 -76 -19 -99q-21 -26 -78 -25q-61 0 -90 25q-9 142 -45 211q-49 98 -195 98q-85 -4 -138 -31q-52 -26 -85 -89q-34 -61 -34 -160v-490q0 -189 62 -265 q64 -72 195 -72q117 0 188 106t72 229h84q33 0 50 -7q14 -9 23 -38q10 -27 10 -81q0 -108 56 -160q58 -49 198 -49q150 0 200 54q47 54 47 234q0 134 -86 200q-85 67 -196 67zM791 1701q52 31 113 30q83 0 133.5 -73t50.5 -155q0 -117 -146 -175l-288 -96q-58 -19 -108 -19 q-47 0 -83 18.5t-55 50.5t-19 73q0 85 94 150l38 26z" />
<glyph unicode="&#x45d;" horiz-adv-x="872" d="M341 488q0 -135 104 -135q36 0 63 22.5t40.5 63t13.5 91.5v315q0 81 28.5 141.5t83 93t126.5 32.5q128 0 198.5 -55t70.5 -204v-612q0 -144 -59 -198t-207 -54q-64 0 -108.5 12.5t-71.5 39t-41 67.5q-97 -63 -204.5 -89t-238.5 -26q-167 0 -240.5 130.5t-73.5 429.5 q0 149 7 242t22.5 160.5t47 100t75.5 47t115 14.5q132 0 189.5 -49.5t57.5 -148.5zM325 1772q-52 31 -113 30q-82 0 -133 -73t-51 -155q0 -117 146 -174l288 -97q59 -18 108 -18q47 0 83.5 18t55.5 50.5t19 72.5q0 85 -95 151l-36 25z" />
<glyph unicode="&#x45e;" horiz-adv-x="1429" d="M1328 665q0 -403 -23 -564q-18 -144 -58.5 -248.5t-113.5 -185.5t-186 -121t-269 -40q-125 0 -232 36t-169.5 89.5t-97.5 105t-35 89t24.5 70t67.5 32.5q31 0 71.5 -19t78.5 -43t90 -43t101 -19q128 0 181 64t53 181q-41 -16 -78.5 -28t-73 -19t-67.5 -9t-62 -2 q-139 0 -238 77.5t-142.5 192t-43.5 245.5q0 132 3.5 224t15.5 164t27 114t43.5 69.5t63.5 37t85 9.5q148 0 208 -51t60 -159l3 -379v-56t3.5 -44t9.5 -37.5t16 -24.5t28 -17.5t44 -4.5q71 0 88.5 39t17.5 142l3 382q0 73 24.5 117.5t83 68.5t159.5 24q61 0 105 -20.5 t70 -52t39 -94t17.5 -126t4.5 -166.5zM708 1495q81 0 81 112t170 112q191 0 190 -157q0 -342 -441 -342q-96 0 -172.5 17t-137.5 54t-94 105.5t-33 165.5q0 157 192 157q169 0 171 -112q0 -57 16 -84.5t58 -27.5z" />
<glyph unicode="&#x45f;" horiz-adv-x="1452" d="M504 264q0 33 61.5 56.5t150.5 25.5q90 -2 151 -25.5t61 -56.5t-61.5 -56.5t-150.5 -25.5q-89 2 -150.5 25.5t-61.5 56.5zM492 245q0 38 87.5 61.5t210 23.5t209.5 -23.5t87 -61.5t-87 -61.5t-209.5 -23.5t-210 23.5t-87.5 61.5zM391 318q0 33 275.5 33t275.5 -33 t-275.5 -33t-275.5 33zM723 353q68 0 87 39t19 143l2 379q0 73 25 117.5t83.5 68.5t157.5 24q63 0 103.5 -14.5t71.5 -46t45 -96.5t20.5 -155.5t6.5 -229.5q0 -128 -39.5 -229t-102 -166t-145 -108t-164.5 -61t-166 -18t-166.5 18t-166.5 61t-147 108t-103 166t-40 229 q0 231 21 342.5t71.5 155.5t154.5 44q146 0 207.5 -51t61.5 -159l2 -377v-56q0 -16 2.5 -42.5t9.5 -38t17 -25t28 -18t44 -4.5zM721 -222q104 0 152 38t48 94v283q0 76 -54 105.5t-151 29.5q-85 0 -134.5 -34.5t-49.5 -88.5v-275q0 -83 40.5 -117.5t148.5 -34.5zM721 -222 q104 0 152 38t48 94v283q0 76 -54 105.5t-151 29.5q-85 0 -134.5 -34.5t-49.5 -88.5v-275q0 -83 40.5 -117.5t148.5 -34.5zM721 -222q104 0 152 38t48 94v283q0 76 -54 105.5t-151 29.5q-85 0 -134.5 -34.5t-49.5 -88.5v-275q0 -83 40.5 -117.5t148.5 -34.5zM721 -222 q104 0 152 38t48 94v283q0 76 -54 105.5t-151 29.5q-85 0 -134.5 -34.5t-49.5 -88.5v-275q0 -83 40.5 -117.5t148.5 -34.5z" />
<glyph unicode="&#x48a;" horiz-adv-x="1859" d="M1594 -183.725q104 0 152 42.1475q48 42.1465 48 106.837v320.188q0 84.9473 -54 118.926q-54 33.9795 -150 33.9795q-45 0 -79 -11.1084t-57.5 -30.0586q-23.5 -18.9492 -35.5 -44.4336t-12 -54.2363v-311.038q0 -62.0771 15.5 -97.3633t56 -54.5625t116.5 -19.2764z M1427 1611q-80 0 -137 -29q-58 -26 -94 -92l-7 -11l-193 -283l-292 -432v586q0 158 -68 209q-66 52 -207 52q-122 0 -196 -69q-75 -68 -75 -214l6 -993q0 -189 65 -263q63 -75 200 -74q144 0 209 80l5 7q18 21 40 52l476 704l3 -241l2 -265q0 -189 63 -263q63 -75 200 -74 q139 0 207 80q68 83 69 273v999q0 158 -69 209q-70 52 -207 52zM968 1976q90 0 90 123q0 125 185 124q214 0 215 -174q0 -379 -490 -379q-108 0 -192 19t-152.5 59.5t-104.5 118t-36 182.5q0 175 212 174q188 0 188 -124q0 -63 19 -93t66 -30z" />
<glyph unicode="&#x48b;" horiz-adv-x="1472" d="M1265 -183.725q104 0 152 42.1475q48 42.1465 48 106.837v320.188q0 84.9473 -54 118.926q-54 33.9795 -150 33.9795q-45 0 -79 -11.1084t-57.5 -30.0586q-23.5 -18.9492 -35.5 -44.4336t-12 -54.2363v-311.038q0 -62.0771 15.5 -97.3633t56 -54.5625t116.5 -19.2764z M1265 -183.725q104 0 152 42.1475q48 42.1465 48 106.837v320.188q0 84.9473 -54 118.926q-54 33.9795 -150 33.9795q-45 0 -79 -11.1084t-57.5 -30.0586q-23.5 -18.9492 -35.5 -44.4336t-12 -54.2363v-311.038q0 -62.0771 15.5 -97.3633t56 -54.5625t116.5 -19.2764z M624 497q0 -135 104 -135q52 0 84.5 49.5t32.5 127.5v315q0 59 17 109t47.5 85t75 54t98.5 19q128 0 198.5 -55t70.5 -204v-612q0 -144 -59 -198t-207 -54q-180 0 -221 119q-180 -115 -443 -115q-167 0 -240.5 130.5t-73.5 429.5q0 149 7 242t22.5 160.5t47 100t75.5 47 t115 14.5q132 0 189.5 -49.5t57.5 -148.5zM735 1515q78 0 78 110q0 113 169 113q191 0 191 -156q0 -343 -438 -343q-207 0 -322.5 77.5t-115.5 265.5q0 156 191 156q169 0 169 -113q0 -56 16.5 -83t61.5 -27z" />
<glyph unicode="&#x48c;" horiz-adv-x="1647" d="M597 1517q85 0 133.5 -17.5t70 -58t21.5 -108.5q0 -87 -58.5 -121t-188.5 -34h-322q-191 0 -191 165q0 174 207 174h328zM597 1517q85 0 133.5 -17.5t70 -58t21.5 -108.5q0 -87 -58.5 -121t-188.5 -34h-322q-191 0 -191 165q0 174 207 174h328zM714 820q66 0 117 -13 q50 -11 92 -39q43 -29 66 -80q21 -54 22 -130q0 -88 -17 -138q-16 -50 -59 -76q-40 -27 -87 -34q-50 -9 -134 -9v519zM144 283q0 -144 78 -213q78 -70 205 -70h418q153 0 283 43q130 40 224 115q97 72 149 186q54 110 54 247q0 167 -97 292q-96 122 -254 184 q-158 61 -356 61h-134v132q0 191 -71 273q-70 80 -216 80t-215 -73q-68 -76 -68 -264v-993z" />
<glyph unicode="&#x48d;" horiz-adv-x="1227" d="M20.0664 913.736q0 59.8779 42.7852 87.5137q42.7842 27.6357 108.454 27.6357h325.032q86.2324 0 120.726 -31.0908q34.4932 -31.0898 34.4932 -86.3613q0 -25.9082 -11.2764 -45.4844q-11.2764 -19.5752 -30.5137 -33.1045q-19.2363 -13.5303 -45.1064 -20.4395 q-25.8691 -6.90918 -55.0566 -6.90918h-315.744q-63.0166 0 -98.8369 8.9248q-35.8193 8.92383 -55.3877 32.2412t-19.5684 67.0742zM20.0664 913.736q0 59.8779 42.7852 87.5137q42.7842 27.6357 108.454 27.6357h325.032q86.2324 0 120.726 -31.0908 q34.4932 -31.0898 34.4932 -86.3613q0 -25.9082 -11.2764 -45.4844q-11.2764 -19.5752 -30.5137 -33.1045q-19.2363 -13.5303 -45.1064 -20.4395q-25.8691 -6.90918 -55.0566 -6.90918h-315.744q-63.0166 0 -98.8369 8.9248q-35.8193 8.92383 -55.3877 32.2412 t-19.5684 67.0742zM610 278v288l10 -4q36 -7 63 -27q31 -19 47 -57q14 -35 14 -89q0 -61 -11 -95q-12 -35 -41 -54q-28 -18 -61 -24l-24 -2q3 29 3 64zM104 252q0 -142 58 -198q40 -36 121 -49q26 -5 56 -5h5h26h21h238q108 0 198 29q90 31 157 81q66 50 102 130 q38 79 38 172q0 115 -66 203q-68 88 -179 129q-109 43 -248 43h-21v70q0 119 -66 193q-63 72 -171 74h-15h-19q-83 0 -130 -34q-18 -9 -34 -23q-70 -54 -71 -202v-613z" />
<glyph unicode="&#x48e;" horiz-adv-x="1647" d="M821.888 1011.29q56.9248 74.7969 129.817 73.9795q72.8926 -0.816406 144.507 -55.3252l350.911 -267.093q91.5068 -69.6494 98.9287 -137.503t-45.2646 -137.081q-45.4189 -59.6787 -115.64 -62.7803q-70.2197 -3.10254 -137.855 48.3779l-339.355 260.811 q-99.4639 75.7061 -122.128 137.568q-22.6641 61.8613 36.0791 139.046zM1011 1056q0 87 -16.5 137t-58 76t-90 34.5t-132.5 8.5v-518q66 0 116.5 12t93 40t65 81t22.5 129zM714 353q0 -191 -70.5 -272t-216.5 -81t-214.5 74t-68.5 263v994q0 143 77.5 212.5t205.5 69.5h418 q153 0 283 -41t225.5 -115.5t148.5 -186t53 -248.5q0 -166 -96.5 -290.5t-255 -185.5t-355.5 -61h-134v-132z" />
<glyph unicode="&#x48f;" horiz-adv-x="1461" d="M731.888 539.289q56.9248 74.7969 129.817 73.9795q72.8926 -0.816406 144.507 -55.3252l350.911 -267.093q91.5068 -69.6494 98.9287 -137.503t-45.2646 -137.081q-45.4189 -59.6787 -115.64 -62.7803q-70.2197 -3.10254 -137.855 48.3779l-339.355 260.811 q-99.4639 75.7061 -122.128 137.568q-22.6641 61.8613 36.0791 139.046zM629 -137q0 -191 -64 -272t-195 -81q-132 0 -193.5 74t-61.5 263l-5 994q0 146 71 214.5t189 68.5q92 0 148.5 -22.5t84.5 -88.5q162 128 348 127q189 0 309 -157.5t120 -429.5q0 -263 -122.5 -415 t-308.5 -152q-180 0 -320 80v-203zM629 342q40 -66 106 -66q63 0 98.5 84.5t35.5 192.5q0 115 -37.5 205t-98.5 90q-64 0 -104 -68v-438z" />
<glyph unicode="&#x490;" horiz-adv-x="1517" d="M1182 1613h-773q-58 0 -105 -13q-48 -16 -86 -50q-37 -33 -56 -90q-21 -54 -21 -129v-994q0 -184 71 -259q70 -78 197 -78q135 0 206 85q70 83 70 243v904h521q133 0 188 40q58 42 60 146q0 110 -67 153q-68 42 -205 42zM1300 1814q-95 0 -138 -40.5t-43 -101.5v-299 q0 -80 49.5 -112t136.5 -32q76 0 120.5 37t44.5 96l-3 292q0 85 -35.5 122.5t-131.5 37.5z" />
<glyph unicode="&#x491;" horiz-adv-x="1174" d="M890 1124h-548q-27 0 -50 -5q-90 -12 -123 -69h-2q-63 -72 -63 -193v-579q0 -148 49 -215q52 -63 191 -63q148 0 207 54q59 56 59 198v584h257q135 0 191 29q59 26 59 101q0 90 -50 124q-49 34 -177 34zM953 1344q95 0 138.5 -35t43.5 -87v-261q0 -67 -49.5 -96 t-136.5 -29q-76 0 -120.5 31.5t-44.5 83.5l3 255q0 73 35 105.5t131 32.5zM953 1344q95 0 138.5 -35t43.5 -87v-261q0 -67 -49.5 -96t-136.5 -29q-76 0 -120.5 31.5t-44.5 83.5l3 255q0 73 35 105.5t131 32.5zM953 1344q95 0 138.5 -35t43.5 -87v-261q0 -67 -49.5 -96 t-136.5 -29q-76 0 -120.5 31.5t-44.5 83.5l3 255q0 73 35 105.5t131 32.5zM953 1344q95 0 138.5 -35t43.5 -87v-261q0 -67 -49.5 -96t-136.5 -29q-76 0 -120.5 31.5t-44.5 83.5l3 255q0 73 35 105.5t131 32.5z" />
<glyph unicode="&#x492;" horiz-adv-x="1517" d="M11 804q0 94 58.5 137.5t148.5 43.5h441q115 0 162 -49.5t47 -136.5q0 -75 -54 -120t-139 -45l-428 2q-125 0 -180.5 35.5t-55.5 132.5zM11 804q0 94 58.5 137.5t148.5 43.5h441q115 0 162 -49.5t47 -136.5q0 -75 -54 -120t-139 -45l-428 2q-125 0 -180.5 35.5 t-55.5 132.5zM1182 1613h-773q-58 0 -105 -13q-48 -16 -86 -50q-37 -33 -56 -90q-21 -54 -21 -129v-994q0 -184 71 -259q70 -78 197 -78q135 0 206 85q70 83 70 243v904h521q133 0 188 40q58 42 60 146q0 110 -67 153q-68 42 -205 42z" />
<glyph unicode="&#x493;" horiz-adv-x="1174" d="M-63 557q0 94 58.5 137.5t148.5 43.5h441q115 0 162 -49.5t47 -136.5q0 -75 -54 -120t-139 -45l-428 2q-125 0 -180.5 35.5t-55.5 132.5zM-63 557q0 94 58.5 137.5t148.5 43.5h441q115 0 162 -49.5t47 -136.5q0 -75 -54 -120t-139 -45l-428 2q-125 0 -180.5 35.5 t-55.5 132.5zM890 1124h-548q-27 0 -50 -5q-90 -12 -123 -69h-2q-63 -72 -63 -193v-579q0 -148 49 -215q52 -63 191 -63q148 0 207 54q59 56 59 198v584h257q135 0 191 29q59 26 59 101q0 90 -50 124q-49 34 -177 34z" />
<glyph unicode="&#x496;" horiz-adv-x="2533" d="M2329 -215.725q104 0 152 42.1475q48 42.1465 48 106.837v320.188q0 84.9473 -54 118.926q-54 33.9795 -150 33.9795q-45 0 -79 -11.1084t-57.5 -30.0586q-23.5 -18.9492 -35.5 -44.4336t-12 -54.2363v-311.038q0 -62.0771 15.5 -97.3633t56 -54.5625t116.5 -19.2764z M2082 780q121 14 215 155q89 144 89 402q0 158 -54 220q-54 61 -213 61q-146 0 -211 -59q-66 -58 -66 -181q0 -248 -33 -328q-36 -81 -137 -79q-47 0 -78 11q-33 14 -46 36q-16 20 -17 52q0 37 2 126v166q0 82 -21 133q-23 54 -69 78q-47 27 -93 36q-49 9 -123 9 q-125 0 -179 -76q-57 -72 -57 -221v-303l-2 -5q-16 -21 -47 -33q-34 -14 -80 -14q-101 0 -136 79q-34 81 -34 328q0 122 -65 182q-66 58 -213 58q-158 0 -212 -61q-54 -60 -54 -219q0 -259 90 -400q92 -144 214 -158q-120 -14 -219 -123q-98 -106 -98 -272q0 -163 23 -241 q23 -80 80 -108q56 -31 171 -31q92 0 151 26q61 27 90 75q28 52 28 132q0 104 7 174q10 68 23 112q12 40 38 61q27 20 50 25q26 7 69 7h124v-261q0 -73 11 -129q14 -92 58 -142q63 -75 200 -75q142 0 214 80q72 83 72 270v263h126q42 0 68 -8q23 -5 49 -26q27 -20 40 -63 q12 -40 22 -112q7 -67 7 -171q0 -80 28 -132q28 -50 89 -75q59 -26 151 -26q115 0 173 28q56 31 79 108q23 81 24 243q0 167 -99 273q-100 109 -219 123z" />
<glyph unicode="&#x497;" horiz-adv-x="2018" d="M1872 -199.725q104 0 152 42.1475q48 42.1465 48 106.837v320.188q0 84.9473 -54 118.926q-54 33.9795 -150 33.9795q-45 0 -79 -11.1084t-57.5 -30.0586q-23.5 -18.9492 -35.5 -44.4336t-12 -54.2363v-311.038q0 -62.0771 15.5 -97.3633t56 -54.5625t116.5 -19.2764z M1658 555q108 0 196 81q87 80 87 226q0 140 -49 190q-52 54 -198 55q-139 0 -196 -49q-58 -49 -59 -161q0 -76 -19 -99q-20 -26 -78 -25q-61 0 -86 25q-12 142 -47 211q-50 98 -196 98q-85 -4 -137 -31q-54 -26 -87 -89q-31 -61 -33 -160v-36q-27 -18 -80 -18q-56 0 -78 25 q-18 23 -18 99q0 110 -57 161q-58 49 -198 49q-146 0 -195 -55q-52 -52 -52 -190q0 -146 86 -226q88 -81 196 -81q-110 0 -196 -67q-87 -66 -86 -200q0 -180 47 -234q50 -54 200 -54q140 0 198 49q57 52 57 160q0 54 9 81q9 29 23 38q16 7 49 7h85q0 -64 20 -123 q14 -92 54 -140q61 -72 193 -72q117 0 188 106q70 106 71 229h85q33 0 49 -7q14 -9 23 -38q10 -27 10 -81q0 -108 59 -160q57 -49 196 -49q151 0 200 54q47 54 47 234q0 134 -85 200q-87 67 -198 67z" />
<glyph unicode="&#x498;" horiz-adv-x="1472" d="M936 -71q99 -50 99 -174q0 -143 -99 -232t-233 -89q-38 0 -86.5 10t-99 27t-84.5 51.5t-34 79.5q0 54 38.5 105t78.5 51q17 0 50 -14.5t45 -14.5q20 0 37 19t17 44q0 21 -46 55.5t-46 60.5q0 14 19 59t37 80l20 37h306q-50 -96 -50 -124q0 -17 31 -31zM798 1063 q0 115 -214 115q-45 0 -121.5 -8t-111.5 -8q-169 0 -169 202q0 209 490 209q317 0 475 -103.5t158 -271.5q0 -233 -203 -371q137 -73 192.5 -152t55.5 -228q0 -204 -161.5 -332.5t-432.5 -128.5q-340 0 -487 69.5t-147 210.5q0 117 47 161.5t132 44.5q43 0 132.5 -10 t136.5 -10q257 0 257 94q0 64 -49.5 88.5t-186.5 24.5t-193 35.5t-56 132.5q0 146 193 146q125 0 185 11.5t69 27t9 51.5z" />
<glyph unicode="&#x499;" horiz-adv-x="1066" d="M705 -83q99 -50 99 -174q0 -143 -99 -232t-233 -89q-38 0 -86.5 10t-99 27t-84.5 51.5t-34 79.5q0 54 38.5 105t78.5 51q17 0 50 -14.5t45 -14.5q20 0 37 19t17 44q0 21 -46 55.5t-46 60.5q0 14 19 59t37 80l20 37h306q-50 -96 -50 -124q0 -17 31 -31zM705 -83 q99 -50 99 -174q0 -143 -99 -232t-233 -89q-38 0 -86.5 10t-99 27t-84.5 51.5t-34 79.5q0 54 38.5 105t78.5 51q17 0 50 -14.5t45 -14.5q20 0 37 19t17 44q0 21 -46 55.5t-46 60.5q0 14 19 59t37 80l20 37h306q-50 -96 -50 -124q0 -17 31 -31zM573 721q-7 -11 -50 -22 q-42 -9 -132 -9q-135 0 -135 -101q0 -68 41 -95q40 -22 137 -22q47 0 79 -5q31 -2 49 -13q19 -11 27 -25q7 -14 7 -36q0 -65 -180 -65q-33 0 -93 4q-63 7 -94 7q-59 0 -92 -31q-33 -29 -33 -112q0 -99 103 -149q101 -47 339 -47q191 0 304 90q113 89 114 233q0 70 -20 117 q-18 50 -54 81q-36 33 -101 68q141 96 141 261q0 115 -110 188q-108 73 -330 74q-344 0 -344 -146q0 -144 117 -144q23 0 79 5q54 7 85 7q150 0 150 -81q0 -23 -4 -32z" />
<glyph unicode="&#x49a;" horiz-adv-x="1697" d="M1429 -248.725q104 0 152 42.1475q48 42.1465 48 106.837v320.188q0 84.9473 -54 118.926q-54 33.9795 -150 33.9795q-45 0 -79 -11.1084t-57.5 -30.0586q-23.5 -18.9492 -35.5 -44.4336t-12 -54.2363v-311.038q0 -62.0771 15.5 -97.3633t56 -54.5625t116.5 -19.2764z M1429 -248.725q104 0 152 42.1475q48 42.1465 48 106.837v320.188q0 84.9473 -54 118.926q-54 33.9795 -150 33.9795q-45 0 -79 -11.1084t-57.5 -30.0586q-23.5 -18.9492 -35.5 -44.4336t-12 -54.2363v-311.038q0 -62.0771 15.5 -97.3633t56 -54.5625t116.5 -19.2764z M1245 775q120 -14 219.5 -121.5t99.5 -273.5q0 -163 -23.5 -242t-80 -108.5t-172.5 -29.5q-92 0 -152 26t-88 76.5t-28 130.5q0 104 -8.5 173.5t-21 110.5t-38.5 62t-51 27t-67 6h-126v-261q0 -189 -73 -270t-213 -81q-137 0 -202 76.5t-65 258.5v982q0 148 55.5 222 t180.5 74q72 0 120.5 -9.5t94.5 -34.5t68.5 -77.5t22.5 -134.5q0 -72 -1 -163.5t-1 -128.5q0 -31 15.5 -52.5t47 -34t78.5 -12.5q101 0 135 80t34 327q0 122 66 181t212 59q158 0 212.5 -61.5t54.5 -218.5q0 -259 -91.5 -401.5t-213.5 -156.5z" />
<glyph unicode="&#x49b;" horiz-adv-x="1371" d="M1205 -251.725q104 0 152 42.1475q48 42.1465 48 106.837v320.188q0 84.9473 -54 118.926q-54 33.9795 -150 33.9795q-45 0 -79 -11.1084t-57.5 -30.0586q-23.5 -18.9492 -35.5 -44.4336t-12 -54.2363v-311.038q0 -62.0771 15.5 -97.3633t56 -54.5625t116.5 -19.2764z M1013 555q108 0 196 81q87 80 86 226q0 140 -52 190q-49 54 -195 55q-140 0 -198 -49q-56 -49 -56 -161q0 -76 -19 -99q-21 -26 -78 -25q-61 0 -90 25q-9 142 -45 211q-49 98 -195 98q-85 -4 -138 -31q-52 -26 -85 -89q-34 -61 -34 -160v-490q0 -189 62 -265q64 -72 195 -72 q117 0 188 106t72 229h84q33 0 50 -7q14 -9 23 -38q10 -27 10 -81q0 -108 56 -160q58 -49 198 -49q150 0 200 54q47 54 47 234q0 134 -86 200q-85 67 -196 67z" />
<glyph unicode="&#x4a2;" horiz-adv-x="1836" d="M1601 -260.725q104 0 152 42.1475q48 42.1465 48 106.837v320.188q0 84.9473 -54 118.926q-54 33.9795 -150 33.9795q-45 0 -79 -11.1084t-57.5 -30.0586q-23.5 -18.9492 -35.5 -44.4336t-12 -54.2363v-311.038q0 -62.0771 15.5 -97.3633t56 -54.5625t116.5 -19.2764z M1601 -260.725q104 0 152 42.1475q48 42.1465 48 106.837v320.188q0 84.9473 -54 118.926q-54 33.9795 -150 33.9795q-45 0 -79 -11.1084t-57.5 -30.0586q-23.5 -18.9492 -35.5 -44.4336t-12 -54.2363v-311.038q0 -62.0771 15.5 -97.3633t56 -54.5625t116.5 -19.2764z M1703 353q0 -191 -68.5 -272t-207.5 -81q-137 0 -200 74t-63 263l-2 266h-481v-250q0 -193 -66 -273t-210 -80q-137 0 -200.5 74t-63.5 263l-6 994q0 146 74 214t196 68q141 0 208.5 -51.5t67.5 -209.5v-396h478v375q0 98 36.5 163t94 92t137.5 27q137 0 206.5 -51.5 t69.5 -209.5v-999z" />
<glyph unicode="&#x4a3;" horiz-adv-x="1450" d="M1265 -268.725q104 0 152 42.1475q48 42.1465 48 106.837v320.188q0 84.9473 -54 118.926q-54 33.9795 -150 33.9795q-45 0 -79 -11.1084t-57.5 -30.0586q-23.5 -18.9492 -35.5 -44.4336t-12 -54.2363v-311.038q0 -62.0771 15.5 -97.3633t56 -54.5625t116.5 -19.2764z M1079 1124q-108 0 -175 -74q-63 -72 -63 -193v-153h-231v161q0 148 -71 202q-70 57 -197 57q-109 0 -175 -74q-63 -72 -63 -193v-579q0 -148 49 -215q52 -63 191 -63q148 0 207 54q59 56 59 198v168h231v-142q0 -148 49 -215q52 -63 191 -63q148 0 207 54q59 56 59 198v613 q0 148 -71 202q-70 57 -197 57z" />
<glyph unicode="&#x4aa;" horiz-adv-x="1843" d="M1126 -153q96 -49 96 -172q0 -144 -97.5 -232t-232.5 -88q-40 0 -88 8t-99 27t-83.5 53t-32.5 76q0 57 38 106.5t77 49.5q14 0 33 -7t35.5 -13t27.5 -6q21 0 37.5 18t16.5 43q0 23 -45 57.5t-45 57.5q0 34 67 170q-320 41 -515.5 253.5t-195.5 554.5q0 381 228.5 602.5 t597.5 221.5q189 0 349.5 -63t254.5 -176.5t94 -247.5q0 -99 -43.5 -191t-131 -154t-197.5 -62q-94 0 -169.5 51.5t-75.5 148.5q0 45 43.5 124.5t43.5 113.5q0 49 -41 84t-98 35q-113 0 -186 -128t-73 -290q0 -191 107 -317t284 -126q88 0 168 34t129.5 75.5t102 75 t93.5 33.5q51 0 88.5 -40.5t37.5 -85.5q0 -43 -23.5 -99.5t-73 -122.5t-116.5 -125t-165 -107.5t-208 -66.5q-45 -94 -45 -122q0 -15 31 -31z" />
<glyph unicode="&#x4ab;" horiz-adv-x="1409" d="M912 -141q97 -50 97 -174q0 -144 -99 -232.5t-232 -88.5q-40 0 -88 9t-99 27t-83.5 52.5t-32.5 78.5q0 54 37.5 105t77.5 51q14 0 33 -7.5t35.5 -14.5t27.5 -7q21 0 38 19t17 45q0 20 -47.5 54.5t-47.5 61.5q0 29 66 157q-234 41 -374.5 191.5t-140.5 383.5 q0 264 186 417t483 153q276 0 403.5 -89.5t127.5 -245.5q0 -45 -17 -91.5t-54 -93.5t-107.5 -77t-165.5 -30q-42 0 -69 5t-56.5 20t-43.5 50.5t-14 89.5q0 48 17.5 115t17.5 88q0 54 -61 54q-66 0 -109.5 -100t-43.5 -228q0 -78 31.5 -136.5t93 -92.5t141.5 -34 q119 0 208 29q36 9 86 35t71 26q48 0 70 -22.5t22 -53.5q0 -83 -109.5 -198t-281.5 -158q-42 -87 -42 -112q0 -18 31 -31z" />
<glyph unicode="&#x4ae;" horiz-adv-x="1674" d="M1107 353q0 -191 -68 -272t-210 -81q-137 0 -200 74t-67 263l-2 382l-362 423q-99 113 -99 195q0 130 99 205q94 70 167 71q101 0 181 -92l288 -334l240 280q120 144 257 144q101 0 157 -56q97 -97 97 -187q0 -49 -33 -104t-106 -143l-339 -415v-353z" />
<glyph unicode="&#x4af;" horiz-adv-x="1674" d="M996.979 -231.518q0 -190.72 -55.2832 -271.602q-55.2832 -80.8809 -170.729 -80.8809q-111.379 0 -162.598 73.8916q-51.2178 73.8916 -54.4697 262.614l-1.62598 381.441l-294.302 422.38q-80.4854 112.835 -80.4854 194.714q0 129.811 80.4854 204.7 q76.4209 69.8975 135.769 70.8955q82.1123 0 147.151 -91.8652l234.141 -333.51l195.117 279.59q97.5586 143.789 208.938 143.789q82.1113 0 127.639 -55.918q78.8594 -96.8584 78.8594 -186.727q0 -48.9277 -26.8281 -103.848t-86.1768 -142.791l-275.603 -414.392 v-352.483z" />
<glyph unicode="&#x4b0;" horiz-adv-x="1674" d="M400 516q0 94 58.5 137.5t148.5 43.5h441q115 0 162 -49.5t47 -136.5q0 -75 -54 -120t-139 -45l-428 2q-125 0 -180.5 35.5t-55.5 132.5zM1107 353q0 -191 -68 -272t-210 -81q-137 0 -200 74t-67 263l-2 382l-362 423q-99 113 -99 195q0 130 99 205q94 70 167 71 q101 0 181 -92l288 -334l240 280q120 144 257 144q101 0 157 -56q97 -97 97 -187q0 -49 -33 -104t-106 -143l-339 -415v-353z" />
<glyph unicode="&#x4b1;" horiz-adv-x="1674" d="M339 -54q0 94 58.5 137.5t148.5 43.5h441q115 0 162 -49.5t47 -136.5q0 -75 -54 -120t-139 -45l-428 2q-125 0 -180.5 35.5t-55.5 132.5zM996.979 -231.518q0 -190.72 -55.2832 -271.602q-55.2832 -80.8809 -170.729 -80.8809q-111.379 0 -162.598 73.8916 q-51.2178 73.8916 -54.4697 262.614l-1.62598 381.441l-294.302 422.38q-80.4854 112.835 -80.4854 194.714q0 129.811 80.4854 204.7q76.4209 69.8975 135.769 70.8955q82.1123 0 147.151 -91.8652l234.141 -333.51l195.117 279.59q97.5586 143.789 208.938 143.789 q82.1113 0 127.639 -55.918q78.8594 -96.8584 78.8594 -186.727q0 -48.9277 -26.8281 -103.848t-86.1768 -142.791l-275.603 -414.392v-352.483z" />
<glyph unicode="&#x4b2;" horiz-adv-x="1796" d="M1547 -248.725q104 0 152 42.1475q48 42.1465 48 106.837v320.188q0 84.9473 -54 118.926q-54 33.9795 -150 33.9795q-45 0 -79 -11.1084t-57.5 -30.0586q-23.5 -18.9492 -35.5 -44.4336t-12 -54.2363v-311.038q0 -62.0771 15.5 -97.3633t56 -54.5625t116.5 -19.2764z M1547 -248.725q104 0 152 42.1475q48 42.1465 48 106.837v320.188q0 84.9473 -54 118.926q-54 33.9795 -150 33.9795q-45 0 -79 -11.1084t-57.5 -30.0586q-23.5 -18.9492 -35.5 -44.4336t-12 -54.2363v-311.038q0 -62.0771 15.5 -97.3633t56 -54.5625t116.5 -19.2764z M549 800l-322 314q-97 104 -97 198q0 115 99 205q108 96 193 96q104 0 181 -92l301 -386l251 335q115 141 258 141q99 0 184 -83q97 -99 97 -188q0 -104 -139 -248l-279 -263l318 -332q99 -111 100 -196q0 -117 -100 -204q-108 -99 -192 -99q-106 0 -182 92l-303 395 l-250 -341q-110 -144 -258 -144q-96 0 -182 87q-97 97 -97 187q0 96 136 247z" />
<glyph unicode="&#x4b3;" horiz-adv-x="1416" d="M1207 -257.725q104 0 152 42.1475q48 42.1465 48 106.837v320.188q0 84.9473 -54 118.926q-54 33.9795 -150 33.9795q-45 0 -79 -11.1084t-57.5 -30.0586q-23.5 -18.9492 -35.5 -44.4336t-12 -54.2363v-311.038q0 -62.0771 15.5 -97.3633t56 -54.5625t116.5 -19.2764z M1207 -257.725q104 0 152 42.1475q48 42.1465 48 106.837v320.188q0 84.9473 -54 118.926q-54 33.9795 -150 33.9795q-45 0 -79 -11.1084t-57.5 -30.0586q-23.5 -18.9492 -35.5 -44.4336t-12 -54.2363v-311.038q0 -62.0771 15.5 -97.3633t56 -54.5625t116.5 -19.2764z M711 233q-5 -6 -31 -32t-34 -36t-32.5 -34.5t-38 -35t-36.5 -29.5t-40.5 -27t-39 -19t-42.5 -15.5t-42 -4.5q-104 0 -198 84.5t-94 181.5q0 23 19.5 52.5t58.5 65.5t68.5 62t75.5 61t55 44q-18 14 -53.5 43.5t-59 51t-54.5 53t-48 61t-31.5 67.5t-14.5 77q0 80 77.5 148.5 t160.5 68.5q45 0 87.5 -19t81 -53t70 -68.5t70.5 -80.5t65 -69q26 23 80 87t90 101t92 69.5t110 32.5q34 0 69 -13t64 -35.5t54 -49.5t38 -58.5t13 -62.5q0 -41 -14 -79.5t-54 -84.5t-57.5 -66t-75.5 -71l-57 -50q7 -9 54 -44t76 -61t66.5 -62t57.5 -65t20 -53 q0 -97 -94 -181.5t-198 -84.5q-23 0 -47.5 7t-44.5 15.5t-46 27t-41.5 30.5t-42.5 38t-37.5 36t-39 41.5t-35.5 37.5z" />
<glyph unicode="&#x4ba;" horiz-adv-x="1697" d="M344 5h8h18q59 0 101 9q43 9 86 36q40 26 60 80q19 54 19 134v170q0 49 8 80q5 31 23 61q16 31 54 45t97 14q58 0 96 -18q38 -17 61 -63q21 -44 24 -119v-168q0 -158 73 -209q70 -52 210 -52q113 0 188 78q72 81 73 205v101q0 323 -175 483q-177 160 -550 160 q-99 0 -184 -9v261q0 188 -64 262q-65 72 -202 72q-139 0 -207 -85t-69 -268v-999q0 -158 71 -209q63 -48 181 -52z" />
<glyph unicode="&#x4bb;" horiz-adv-x="1468" d="M845 631q0 135 -103 135q-19 0 -34.5 -5t-28 -12t-23.5 -20t-19 -28.5t-11.5 -36.5t-3.5 -46v-260q0 -194 -62.5 -275t-189.5 -81q-132 0 -193.5 74.5t-61.5 262.5l-5 1003q0 146 71 214.5t189 68.5q126 0 189 -52t63 -209v-342q175 106 423 106q113 0 181.5 -57.5 t102 -182t33.5 -328.5q0 -103 -3.5 -178.5t-11 -137.5t-21.5 -102.5t-33 -68.5t-48 -43.5t-65 -22.5t-85 -7q-132 0 -189.5 48.5t-57.5 147.5z" />
<glyph unicode="&#x4c0;" horiz-adv-x="856" d="M706 353q0 -184 -68 -268.5t-207 -84.5q-137 0 -202 73t-65 262v996q0 282 267 282q137 0 206 -51.5t69 -209.5v-999z" />
<glyph unicode="&#x4c1;" horiz-adv-x="2533" d="M1268 2047q81 0 81 110q0 113 170 113q191 0 190 -157q0 -342 -441 -342q-96 0 -172.5 16.5t-137.5 54t-94 106t-33 165.5q0 157 192 157q169 0 171 -113q0 -56 16 -83t58 -27zM2082 780q121 14 215 155q89 144 89 402q0 158 -54 220q-54 61 -213 61q-146 0 -211 -59 q-66 -58 -66 -181q0 -248 -33 -328q-36 -81 -137 -79q-47 0 -78 11q-33 14 -46 36q-16 20 -17 52q0 37 2 126v166q0 82 -21 133q-23 54 -69 78q-47 27 -93 36q-49 9 -123 9q-125 0 -179 -76q-57 -72 -57 -221v-303l-2 -5q-16 -21 -47 -33q-34 -14 -80 -14q-101 0 -136 79 q-34 81 -34 328q0 122 -65 182q-66 58 -213 58q-158 0 -212 -61q-54 -60 -54 -219q0 -259 90 -400q92 -144 214 -158q-120 -14 -219 -123q-98 -106 -98 -272q0 -163 23 -241q23 -80 80 -108q56 -31 171 -31q92 0 151 26q61 27 90 75q28 52 28 132q0 104 7 174q10 68 23 112 q12 40 38 61q27 20 50 25q26 7 69 7h124v-261q0 -73 11 -129q14 -92 58 -142q63 -75 200 -75q142 0 214 80q72 83 72 270v263h126q42 0 68 -8q23 -5 49 -26q27 -20 40 -63q12 -40 22 -112q7 -67 7 -171q0 -80 28 -132q28 -50 89 -75q59 -26 151 -26q115 0 173 28 q56 31 79 108q23 81 24 243q0 167 -99 273q-100 109 -219 123z" />
<glyph unicode="&#x4c2;" horiz-adv-x="2018" d="M991 1492q81 0 81 110q0 113 170 113q191 0 190 -157q0 -342 -441 -342q-96 0 -172.5 16.5t-137.5 54t-94 106t-33 165.5q0 157 192 157q169 0 171 -113q0 -56 16 -83t58 -27zM1658 555q108 0 196 81q87 80 87 226q0 140 -49 190q-52 54 -198 55q-139 0 -196 -49 q-58 -49 -59 -161q0 -76 -19 -99q-20 -26 -78 -25q-61 0 -86 25q-12 142 -47 211q-50 98 -196 98q-85 -4 -137 -31q-54 -26 -87 -89q-31 -61 -33 -160v-36q-27 -18 -80 -18q-56 0 -78 25q-18 23 -18 99q0 110 -57 161q-58 49 -198 49q-146 0 -195 -55q-52 -52 -52 -190 q0 -146 86 -226q88 -81 196 -81q-110 0 -196 -67q-87 -66 -86 -200q0 -180 47 -234q50 -54 200 -54q140 0 198 49q57 52 57 160q0 54 9 81q9 29 23 38q16 7 49 7h85q0 -64 20 -123q14 -92 54 -140q61 -72 193 -72q117 0 188 106q70 106 71 229h85q33 0 49 -7q14 -9 23 -38 q10 -27 10 -81q0 -108 59 -160q57 -49 196 -49q151 0 200 54q47 54 47 234q0 134 -85 200q-87 67 -198 67z" />
<glyph unicode="&#x4cf;" horiz-adv-x="733" d="M627 355q0 -191 -64 -273t-196 -82t-193 74t-61 263l-5 994q0 61 13.5 108t35.5 80t55 54t72 30.5t83 9.5q130 0 195 -51.5t65 -209.5v-997z" />
<glyph unicode="&#x4d0;" horiz-adv-x="1676" d="M843 1229q-101 0 -149.5 -58.5t-48.5 -209.5v-278h391v283q0 146 -48 204.5t-145 58.5zM1036 358h-391v-125q0 -119 -63 -176t-220 -57q-65 0 -107.5 19t-74.5 64t-47.5 130.5t-23.5 207t-8 307.5q0 139 26 259t68.5 209.5t102.5 161t126 119t140 79t145 44.5t139 13 q98 0 195 -27t195.5 -93t173 -163.5t121.5 -253t47 -348.5q0 -155 -4.5 -264t-16 -193.5t-29.5 -134t-48.5 -81.5t-69.5 -43.5t-93 -11.5q-103 0 -167 27t-90 76.5t-26 129.5v125zM845 2077q88 0 88 123q0 125 188 124q212 0 212 -174q0 -379 -488 -379q-110 0 -193.5 19 t-152 60.5t-105 118t-36.5 181.5q0 175 212 174q189 0 188 -124q0 -63 19 -93t68 -30z" />
<glyph unicode="&#x4d1;" horiz-adv-x="1468" d="M530 -14q-186 0 -308.5 152t-122.5 415q0 180 56.5 313.5t153 203.5t221.5 70q191 0 353 -135q63 117 205 119q128 0 198.5 -55.5t70.5 -203.5v-613q0 -142 -59 -197t-208 -55q-155 0 -204 87q-151 -101 -356 -101zM850 780q-40 68 -104 68q-61 0 -98.5 -89.5 t-37.5 -205.5q0 -108 35.5 -192.5t98.5 -84.5q66 0 106 63v441zM782 1562q78 0 78 110q0 113 169 113q191 0 191 -155q0 -344 -438 -344q-207 0 -322.5 77.5t-115.5 266.5q0 155 191 155q169 0 169 -113q0 -56 16.5 -83t61.5 -27z" />
<glyph unicode="&#x4d2;" horiz-adv-x="1676" d="M843 1229q-101 0 -149.5 -58.5t-48.5 -209.5v-278h391v283q0 146 -48 204.5t-145 58.5zM1036 358h-391v-125q0 -119 -63 -176t-220 -57q-65 0 -107.5 19t-74.5 64t-47.5 130.5t-23.5 207t-8 307.5q0 139 26 259t68.5 209.5t102.5 161t126 119t140 79t145 44.5t139 13 q98 0 195 -27t195.5 -93t173 -163.5t121.5 -253t47 -348.5q0 -155 -4.5 -264t-16 -193.5t-29.5 -134t-48.5 -81.5t-69.5 -43.5t-93 -11.5q-103 0 -167 27t-90 76.5t-26 129.5v125zM899 1939q0 76 64 123.5t181 47.5q248 0 248 -171q0 -97 -62.5 -135t-185.5 -38 q-106 0 -175.5 41.5t-69.5 131.5zM332 1939q0 76 64.5 123.5t180.5 47.5q248 0 248 -171q0 -97 -63 -135t-185 -38q-105 0 -175 41.5t-70 131.5z" />
<glyph unicode="&#x4d3;" horiz-adv-x="1468" d="M530 -14q-186 0 -308.5 152t-122.5 415q0 180 56.5 313.5t153 203.5t221.5 70q191 0 353 -135q63 117 205 119q128 0 198.5 -55.5t70.5 -203.5v-613q0 -142 -59 -197t-208 -55q-155 0 -204 87q-151 -101 -356 -101zM850 780q-40 68 -104 68q-61 0 -98.5 -89.5 t-37.5 -205.5q0 -108 35.5 -192.5t98.5 -84.5q66 0 106 63v441zM829 1425q0 76 65 124t180 48q247 0 247 -172q0 -97 -62.5 -134t-184.5 -37q-106 0 -175.5 40.5t-69.5 130.5zM263 1425q0 76 64 124t181 48q248 0 248 -172q0 -97 -63.5 -134t-184.5 -37q-106 0 -175.5 40.5 t-69.5 130.5z" />
<glyph unicode="&#x4d4;" horiz-adv-x="2218" d="M959 367l-321 3v-195q-4 -90 -67 -132.5t-198 -42.5q-146 0 -204.5 75.5t-58.5 291.5q0 139 18 361q16 193 69 346t132.5 253t188.5 165t225.5 93t252.5 28h910q136 0 203 -43.5t67 -151.5q0 -104 -57.5 -145t-189.5 -41h-431v-276h322q126 0 176.5 -40t50.5 -136 q0 -41 -15.5 -69t-46 -46t-76.5 -26t-109 -8h-299v-249l428 -2q132 0 189.5 -39.5t57.5 -138.5q0 -112 -67 -157t-203 -45h-679h-2q-139 0 -201.5 81t-64.5 286zM964 672l-3 555q-101 0 -177 -60t-92 -208q-11 -92 -23 -287h295z" />
<glyph unicode="&#x4d5;" horiz-adv-x="2133" d="M1326 659q162 2 177 2q33 0 52 43q11 31 11 85q0 148 -89 148q-50 0 -96 -80.5t-55 -197.5zM865 330q-40 97 -40 209q0 133 44 243q-40 66 -103 66q-61 0 -99 -89.5t-38 -205.5q0 -108 35 -192.5t100 -84.5q61 0 101 54zM996 968q101 83 214.5 127.5t275.5 44.5 q276 0 404 -98t128 -267q0 -106 -88 -184t-260 -80l-333 -3q23 -76 85 -119t156 -43q101 0 207 27q45 11 97.5 37t77.5 26q40 0 62.5 -23.5t22.5 -59.5q0 -43 -38 -102.5t-105.5 -120t-178 -102.5t-237.5 -42q-169 0 -281.5 40t-215.5 132q-135 -173 -463 -172 q-182 0 -307 152t-125 413q0 268 121.5 427t310.5 159q130 0 235 -39.5t235 -129.5z" />
<glyph unicode="&#x4d6;" horiz-adv-x="1582" d="M1110 956q125 0 175 -40t50 -136q0 -54 -27 -86.5t-81 -47.5t-139 -15h-382v-249l512 -2q132 0 189.5 -39.5t57.5 -138.5q0 -112 -67 -157t-204 -45h-763q-139 0 -204 74t-65 263v994q0 282 269 282h763q89 0 145.5 -16.5t91 -60t34.5 -118.5q0 -104 -57.5 -145 t-189.5 -41h-514v-276h406zM805 2077q90 0 90 123q0 125 186 124q214 0 214 -174q0 -379 -490 -379q-108 0 -192.5 19t-153 60.5t-103.5 118t-35 181.5q0 175 211 174q189 0 189 -124q0 -63 18.5 -93t65.5 -30z" />
<glyph unicode="&#x4d7;" d="M756 -14q-288 0 -475 148.5t-187 404.5q0 279 184.5 440t477.5 161q276 0 404 -98t128 -267q0 -106 -88 -184t-260 -80l-333 -3q23 -76 84.5 -119t156.5 -43q101 0 208 27q45 11 97.5 37t75.5 26q41 0 63 -23.5t22 -59.5q0 -43 -37.5 -102.5t-104.5 -120t-178 -102.5 t-238 -42zM596 659q162 2 177 2q35 0 52 43q11 31 11 85q0 148 -90 148q-49 0 -95 -80.5t-55 -197.5zM756 1562q78 0 78 110q0 113 169 113q191 0 191 -155q0 -344 -438 -344q-207 0 -323 77.5t-116 266.5q0 155 191 155q169 0 170 -113q0 -56 16.5 -83t61.5 -27z" />
<glyph unicode="&#x4d8;" d="M640.9 1643.47q330.803 0 545.595 -213.433t214.792 -582.807q0 -399.558 -212.494 -630.956q-212.495 -231.397 -547.893 -231.397q-317.02 0 -464.043 140.851t-147.023 383.747q0 152.35 101.653 263.736q101.653 111.388 299.216 115.699l380.193 4.3125 q-26.418 107.794 -97.0586 170.314q-70.6396 62.5205 -178.61 62.5205q-116.011 0 -240.062 -38.8057q-49.3906 -15.8105 -110.268 -53.1787t-87.2949 -37.3682q-45.9453 0 -71.7891 33.7754t-25.8438 81.2051q0 61.8018 43.0732 149.475q43.0732 87.6719 120.604 174.626 q77.5322 86.9541 203.881 147.319q126.348 60.3643 273.371 60.3643zM825.828 676.198q-186.076 -2.87402 -203.306 -5.74902q-41.3506 0 -59.7275 -58.9277q-12.6357 -47.4287 -12.6357 -122.166q0 -212.714 101.079 -212.714q57.4307 0 110.842 115.699 q53.4111 115.698 63.748 283.857z" />
<glyph unicode="&#x4d9;" d="M652 1140q288 0 475 -148.5t187 -405.5q0 -278 -185 -439t-477 -161q-276 0 -404 98t-128 267q0 106 88.5 183.5t260.5 80.5l331 3q-23 75 -84.5 118.5t-155.5 43.5q-101 0 -209 -27q-43 -11 -96 -37t-76 -26q-40 0 -62.5 23.5t-22.5 56.5q0 43 37.5 104t105 121.5 t177.5 102.5t238 42zM813 467q-162 -2 -177 -4q-36 0 -52 -41q-11 -33 -11 -85q0 -148 88 -148q50 0 96.5 80.5t55.5 197.5z" />
<glyph unicode="&#x4da;" d="M685 1937q0 76 63.5 123.5t181.5 47.5q247 0 247 -171q0 -97 -63.5 -134.5t-183.5 -37.5q-106 0 -175.5 41t-69.5 131zM117 1937q0 76 64 123.5t181 47.5q247 0 247 -171q0 -97 -62.5 -134.5t-184.5 -37.5q-106 0 -175.5 41t-69.5 131zM640.9 1643.47 q330.803 0 545.595 -213.433t214.792 -582.807q0 -399.558 -212.494 -630.956q-212.495 -231.397 -547.893 -231.397q-317.02 0 -464.043 140.851t-147.023 383.747q0 152.35 101.653 263.736q101.653 111.388 299.216 115.699l380.193 4.3125 q-26.418 107.794 -97.0586 170.314q-70.6396 62.5205 -178.61 62.5205q-116.011 0 -240.062 -38.8057q-49.3906 -15.8105 -110.268 -53.1787t-87.2949 -37.3682q-45.9453 0 -71.7891 33.7754t-25.8438 81.2051q0 61.8018 43.0732 149.475q43.0732 87.6719 120.604 174.626 q77.5322 86.9541 203.881 147.319q126.348 60.3643 273.371 60.3643zM825.828 676.198q-186.076 -2.87402 -203.306 -5.74902q-41.3506 0 -59.7275 -58.9277q-12.6357 -47.4287 -12.6357 -122.166q0 -212.714 101.079 -212.714q57.4307 0 110.842 115.699 q53.4111 115.698 63.748 283.857z" />
<glyph unicode="&#x4db;" d="M743 1418q0 76 63.5 123.5t181.5 47.5q247 0 247 -171q0 -97 -63.5 -134.5t-183.5 -37.5q-106 0 -175.5 41t-69.5 131zM175 1418q0 76 64 123.5t181 47.5q247 0 247 -171q0 -97 -62.5 -134.5t-184.5 -37.5q-106 0 -175.5 41t-69.5 131zM652 1140q288 0 475 -148.5 t187 -405.5q0 -278 -185 -439t-477 -161q-276 0 -404 98t-128 267q0 106 88.5 183.5t260.5 80.5l331 3q-23 75 -84.5 118.5t-155.5 43.5q-101 0 -209 -27q-43 -11 -96 -37t-76 -26q-40 0 -62.5 23.5t-22.5 56.5q0 43 37.5 104t105 121.5t177.5 102.5t238 42zM813 467 q-162 -2 -177 -4q-36 0 -52 -41q-11 -33 -11 -85q0 -148 88 -148q50 0 96.5 80.5t55.5 197.5z" />
<glyph unicode="&#x4dc;" horiz-adv-x="2533" d="M1294 1941q0 76 63.5 123.5t181.5 47.5q247 0 247 -171q0 -97 -63.5 -134.5t-183.5 -37.5q-106 0 -175.5 41t-69.5 131zM726 1941q0 76 64 123.5t181 47.5q247 0 247 -171q0 -97 -62.5 -134.5t-184.5 -37.5q-106 0 -175.5 41t-69.5 131zM2082 780q121 14 215 155 q89 144 89 402q0 158 -54 220q-54 61 -213 61q-146 0 -211 -59q-66 -58 -66 -181q0 -248 -33 -328q-36 -81 -137 -79q-47 0 -78 11q-33 14 -46 36q-16 20 -17 52q0 37 2 126v166q0 82 -21 133q-23 54 -69 78q-47 27 -93 36q-49 9 -123 9q-125 0 -179 -76q-57 -72 -57 -221 v-303l-2 -5q-16 -21 -47 -33q-34 -14 -80 -14q-101 0 -136 79q-34 81 -34 328q0 122 -65 182q-66 58 -213 58q-158 0 -212 -61q-54 -60 -54 -219q0 -259 90 -400q92 -144 214 -158q-120 -14 -219 -123q-98 -106 -98 -272q0 -163 23 -241q23 -80 80 -108q56 -31 171 -31 q92 0 151 26q61 27 90 75q28 52 28 132q0 104 7 174q10 68 23 112q12 40 38 61q27 20 50 25q26 7 69 7h124v-261q0 -73 11 -129q14 -92 58 -142q63 -75 200 -75q142 0 214 80q72 83 72 270v263h126q42 0 68 -8q23 -5 49 -26q27 -20 40 -63q12 -40 22 -112q7 -67 7 -171 q0 -80 28 -132q28 -50 89 -75q59 -26 151 -26q115 0 173 28q56 31 79 108q23 81 24 243q0 167 -99 273q-100 109 -219 123z" />
<glyph unicode="&#x4dd;" horiz-adv-x="2018" d="M1053 1451q0 76 63.5 123.5t181.5 47.5q247 0 247 -171q0 -97 -63.5 -134.5t-183.5 -37.5q-106 0 -175.5 41t-69.5 131zM485 1451q0 76 64 123.5t181 47.5q247 0 247 -171q0 -97 -62.5 -134.5t-184.5 -37.5q-106 0 -175.5 41t-69.5 131zM1658 555q108 0 196 81 q87 80 87 226q0 140 -49 190q-52 54 -198 55q-139 0 -196 -49q-58 -49 -59 -161q0 -76 -19 -99q-20 -26 -78 -25q-61 0 -86 25q-12 142 -47 211q-50 98 -196 98q-85 -4 -137 -31q-54 -26 -87 -89q-31 -61 -33 -160v-36q-27 -18 -80 -18q-56 0 -78 25q-18 23 -18 99 q0 110 -57 161q-58 49 -198 49q-146 0 -195 -55q-52 -52 -52 -190q0 -146 86 -226q88 -81 196 -81q-110 0 -196 -67q-87 -66 -86 -200q0 -180 47 -234q50 -54 200 -54q140 0 198 49q57 52 57 160q0 54 9 81q9 29 23 38q16 7 49 7h85q0 -64 20 -123q14 -92 54 -140 q61 -72 193 -72q117 0 188 106q70 106 71 229h85q33 0 49 -7q14 -9 23 -38q10 -27 10 -81q0 -108 59 -160q57 -49 196 -49q151 0 200 54q47 54 47 234q0 134 -85 200q-87 67 -198 67z" />
<glyph unicode="&#x4de;" horiz-adv-x="1472" d="M743 1937q0 76 63.5 123.5t181.5 47.5q247 0 247 -171q0 -97 -63.5 -134.5t-183.5 -37.5q-106 0 -175.5 41t-69.5 131zM175 1937q0 76 64 123.5t181 47.5q247 0 247 -171q0 -97 -62.5 -134.5t-184.5 -37.5q-106 0 -175.5 41t-69.5 131zM798 1063q0 115 -214 115 q-45 0 -121.5 -8t-111.5 -8q-169 0 -169 202q0 209 490 209q317 0 475 -103.5t158 -271.5q0 -233 -203 -371q137 -73 192.5 -152t55.5 -228q0 -204 -161.5 -332.5t-432.5 -128.5q-340 0 -487 69.5t-147 210.5q0 117 47 161.5t132 44.5q43 0 132.5 -10t136.5 -10 q257 0 257 94q0 64 -49.5 88.5t-186.5 24.5t-193 35.5t-56 132.5q0 146 193 146q125 0 185 11.5t69 27t9 51.5z" />
<glyph unicode="&#x4df;" horiz-adv-x="1066" d="M563 1409q0 76 63.5 123.5t181.5 47.5q247 0 247 -171q0 -97 -63.5 -134.5t-183.5 -37.5q-106 0 -175.5 41t-69.5 131zM-5 1409q0 76 64 123.5t181 47.5q247 0 247 -171q0 -97 -62.5 -134.5t-184.5 -37.5q-106 0 -175.5 41t-69.5 131zM573 721q-7 -11 -50 -22 q-42 -9 -132 -9q-135 0 -135 -101q0 -68 41 -95q40 -22 137 -22q47 0 79 -5q31 -2 49 -13q19 -11 27 -25q7 -14 7 -36q0 -65 -180 -65q-33 0 -93 4q-63 7 -94 7q-59 0 -92 -31q-33 -29 -33 -112q0 -99 103 -149q101 -47 339 -47q191 0 304 90q113 89 114 233q0 70 -20 117 q-18 50 -54 81q-36 33 -101 68q141 96 141 261q0 115 -110 188q-108 73 -330 74q-344 0 -344 -146q0 -144 117 -144q23 0 79 5q54 7 85 7q150 0 150 -81q0 -23 -4 -32z" />
<glyph unicode="&#x4e6;" horiz-adv-x="1895" d="M946 330q61 0 110 41t77.5 108t43 148t14.5 169q0 119 -25.5 226.5t-83 183t-136.5 75.5q-75 0 -131.5 -75.5t-84.5 -183.5t-28 -226t27 -221t84.5 -174t132.5 -71zM946 -14q-172 0 -322 54t-262 155.5t-176 256.5t-64 344q0 382 230 606.5t595 224.5t595.5 -224.5 t230.5 -606.5q0 -252 -111.5 -438t-297.5 -279t-418 -93zM998 1946q0 76 64 123.5t181 47.5q247 0 247 -171q0 -97 -63 -135t-184 -38q-106 0 -175.5 41.5t-69.5 131.5zM431 1946q0 76 63.5 123.5t181.5 47.5q247 0 247 -171q0 -97 -62.5 -135t-184.5 -38 q-106 0 -175.5 41.5t-69.5 131.5z" />
<glyph unicode="&#x4e7;" horiz-adv-x="1485" d="M869 558q0 122 -31 215.5t-89 93.5q-61 0 -95 -94.5t-34 -214.5t32.5 -211t93.5 -91q34 0 57.5 26t37 70t21 96.5t7.5 109.5zM746 -16q-184 0 -331 65.5t-235 198t-88 307.5q0 268 183.5 426.5t471 158.5t468.5 -157.5t181 -427.5q0 -265 -184.5 -418t-465.5 -153z M803 1425q0 76 65 122.5t180 46.5q247 0 247 -169q0 -97 -62 -134t-185 -37q-106 0 -175.5 39.5t-69.5 131.5zM238 1425q0 76 63.5 122.5t181.5 46.5q247 0 247 -169q0 -97 -63.5 -134t-183.5 -37q-106 0 -175.5 39.5t-69.5 131.5z" />
<glyph unicode="&#x4e8;" horiz-adv-x="1895" d="M490 799q0 94 58.5 137.5t148.5 43.5h441q115 0 162 -49.5t47 -136.5q0 -75 -54 -120t-139 -45l-428 2q-125 0 -180.5 35.5t-55.5 132.5zM946 330q81 0 138.5 71t82 174t24.5 221q0 119 -25.5 226.5t-83 183t-136.5 75.5q-75 0 -131.5 -75.5t-84.5 -183.5t-28 -226 t27 -221t84.5 -174t132.5 -71zM946 -14q-232 0 -417 93t-296 279t-111 438q0 382 230 606.5t595 224.5t595.5 -224.5t230.5 -606.5q0 -252 -111.5 -438t-297.5 -279t-418 -93z" />
<glyph unicode="&#x4e9;" horiz-adv-x="1485" d="M306 549q0 94 58.5 137.5t148.5 43.5h441q115 0 162 -49.5t47 -136.5q0 -75 -54 -120t-139 -45l-428 2q-125 0 -180.5 35.5t-55.5 132.5zM869 558q0 122 -31 215.5t-89 93.5q-41 0 -71.5 -47t-44 -115.5t-13.5 -146.5q0 -120 32.5 -211t93.5 -91t92 90t31 212zM746 -16 q-184 0 -331 65.5t-235 198t-88 307.5q0 268 183.5 426.5t471 158.5t468.5 -157.5t181 -427.5q0 -265 -184.5 -418t-465.5 -153z" />
<glyph unicode="&#x4ea;" horiz-adv-x="1895" d="M988 1941q0 76 63.5 123.5t181.5 47.5q247 0 247 -171q0 -97 -63.5 -134.5t-183.5 -37.5q-106 0 -175.5 41t-69.5 131zM420 1941q0 76 64 123.5t181 47.5q247 0 247 -171q0 -97 -62.5 -134.5t-184.5 -37.5q-106 0 -175.5 41t-69.5 131zM490 799q0 94 58.5 137.5 t148.5 43.5h441q115 0 162 -49.5t47 -136.5q0 -75 -54 -120t-139 -45l-428 2q-125 0 -180.5 35.5t-55.5 132.5zM946 330q81 0 138.5 71t82 174t24.5 221q0 119 -25.5 226.5t-83 183t-136.5 75.5q-75 0 -131.5 -75.5t-84.5 -183.5t-28 -226t27 -221t84.5 -174t132.5 -71z M946 -14q-232 0 -417 93t-296 279t-111 438q0 382 230 606.5t595 224.5t595.5 -224.5t230.5 -606.5q0 -252 -111.5 -438t-297.5 -279t-418 -93z" />
<glyph unicode="&#x4eb;" horiz-adv-x="1485" d="M780 1437q0 76 63.5 123.5t181.5 47.5q247 0 247 -171q0 -97 -63.5 -134.5t-183.5 -37.5q-106 0 -175.5 41t-69.5 131zM212 1437q0 76 64 123.5t181 47.5q247 0 247 -171q0 -97 -62.5 -134.5t-184.5 -37.5q-106 0 -175.5 41t-69.5 131zM306 549q0 94 58.5 137.5 t148.5 43.5h441q115 0 162 -49.5t47 -136.5q0 -75 -54 -120t-139 -45l-428 2q-125 0 -180.5 35.5t-55.5 132.5zM869 558q0 122 -31 215.5t-89 93.5q-41 0 -71.5 -47t-44 -115.5t-13.5 -146.5q0 -120 32.5 -211t93.5 -91t92 90t31 212zM746 -16q-184 0 -331 65.5t-235 198 t-88 307.5q0 268 183.5 426.5t471 158.5t468.5 -157.5t181 -427.5q0 -265 -184.5 -418t-465.5 -153z" />
<glyph unicode="&#x4ec;" horiz-adv-x="1836" d="M1670 1107q-52 160 -158 273q-108 110 -258 179q-153 68 -335 82q-139 12 -269 -18q-130 -31 -219 -88q-89 -54 -157 -124q-70 -68 -105 -132q-36 -63 -39 -113q-2 -42 30 -87q36 -45 87 -50q41 -2 95 29q56 29 108 66q54 38 136 63q83 29 170 22q115 -10 200 -76 q65 -52 104 -124l-255 -27q-5 -2 -14 -2q-49 -7 -72 -12q-27 -4 -60 -26q-33 -21 -52 -56q-29 -57 -4 -111q20 -56 85 -87q45 -23 106 -34l262 -34q-38 -70 -105 -119q-85 -65 -202 -72q-88 -5 -169 23q-83 29 -135 67t-106 67q-56 32 -94 29q-52 -2 -87 -47 q-36 -42 -33 -87q3 -50 37 -114q34 -63 101 -134q68 -70 159 -127q87 -57 216 -90q128 -33 266 -23q184 12 337 77q153 63 262 175q108 108 165 268q47 141 44 307q3 155 -42 287z" />
<glyph unicode="&#x4ed;" horiz-adv-x="1320" d="M1232 570q0 158 -66 280l-11 15q-7 9 -13 16l-16 21q-19 23 -36 42q-20 27 -34 38q-177 158 -451 158q-94 0 -181 -28q-85 -29 -143 -71q-59 -45 -104 -97q-42 -52 -64 -99q-21 -47 -21 -79q0 -18 7 -36q9 -16 29 -28q18 -12 49 -12q21 0 68 26q47 27 80 35q83 29 196 29 t181 -74l12 -14q-11 -7 -40 -14q-40 -9 -123 -9q-128 0 -127 -101q0 -68 37 -92q38 -26 130 -26q43 0 74 -3q31 -4 46 -13l3 -3l-12 -15q-68 -72 -181 -72t-196 29q-33 9 -80 34q-47 27 -68 27q-31 0 -49 -12q-19 -11 -29 -29q-7 -16 -7 -35q0 -34 21 -80q20 -47 64 -99 q45 -51 104 -94q58 -45 143 -73q88 -29 181 -28q274 0 451 157q16 14 39 43q16 21 38 49l16 23q7 10 15 20l11 16q57 115 57 261v17z" />
<glyph unicode="&#x4ee;" horiz-adv-x="1726" d="M417 1868q0 94 58.5 137.5t148.5 43.5h441q115 0 162 -49.5t47 -136.5q0 -75 -54 -120t-139 -45l-428 2q-125 0 -180.5 35.5t-55.5 132.5zM1295 1616q-61 0 -106 -9q-42 -10 -84 -36q-40 -27 -62 -81q-18 -54 -18 -133v-170q0 -50 -7 -80q-5 -31 -24 -62q-16 -31 -54 -45 q-38 -13 -97 -13t-97 18q-38 16 -61 62q-20 45 -24 120v168q0 157 -72 209q-70 52 -209 52q-113 0 -187 -81q-76 -78 -76 -202v-101q0 -324 175 -483q177 -160 551 -160q52 0 103 4v-31v-30l-2 -4q0 -115 -61 -177q-61 -63 -209 -63q-59 0 -119 18q-61 18 -105 42 q-43 23 -92 43q-48 18 -82 18q-49 0 -80 -29q-29 -34 -29 -72t42 -90q41 -51 114 -105q73 -52 198 -87q125 -38 270 -38q182 0 314 41q132 40 216 122q85 80 133 184q47 105 70 249q9 61 28 328q17 254 17 320v101q0 151 -68 217q-69 66 -206 66z" />
<glyph unicode="&#x4ef;" horiz-adv-x="1429" d="M1328 665q0 -403 -23 -564q-18 -144 -58.5 -248.5t-113.5 -185.5t-186 -121t-269 -40q-125 0 -232 36t-169.5 89.5t-97.5 105t-35 89t24.5 70t67.5 32.5q31 0 71.5 -19t78.5 -43t90 -43t101 -19q128 0 181 64t53 181q-41 -16 -78.5 -28t-73 -19t-67.5 -9t-62 -2 q-139 0 -238 77.5t-142.5 192t-43.5 245.5q0 132 3.5 224t15.5 164t27 114t43.5 69.5t63.5 37t85 9.5q148 0 208 -51t60 -159l3 -379v-56t3.5 -44t9.5 -37.5t16 -24.5t28 -17.5t44 -4.5q71 0 88.5 39t17.5 142l3 382q0 73 24.5 117.5t83 68.5t159.5 24q61 0 105 -20.5 t70 -52t39 -94t17.5 -126t4.5 -166.5zM207 1411q0 104 65 152t164 48h490q130 0 181.5 -54t51.5 -151q0 -85 -60.5 -134.5t-154.5 -49.5h-475q-141 0 -201.5 40.5t-60.5 148.5z" />
<glyph unicode="&#x4f0;" horiz-adv-x="1726" d="M878 1941q0 76 63.5 123.5t181.5 47.5q247 0 247 -171q0 -97 -63.5 -134.5t-183.5 -37.5q-106 0 -175.5 41t-69.5 131zM310 1941q0 76 64 123.5t181 47.5q247 0 247 -171q0 -97 -62.5 -134.5t-184.5 -37.5q-106 0 -175.5 41t-69.5 131zM1295 1616q-61 0 -106 -9 q-42 -10 -84 -36q-40 -27 -62 -81q-18 -54 -18 -133v-170q0 -50 -7 -80q-5 -31 -24 -62q-16 -31 -54 -45q-38 -13 -97 -13t-97 18q-38 16 -61 62q-20 45 -24 120v168q0 157 -72 209q-70 52 -209 52q-113 0 -187 -81q-76 -78 -76 -202v-101q0 -324 175 -483 q177 -160 551 -160q52 0 103 4v-31v-30l-2 -4q0 -115 -61 -177q-61 -63 -209 -63q-59 0 -119 18q-61 18 -105 42q-43 23 -92 43q-48 18 -82 18q-49 0 -80 -29q-29 -34 -29 -72t42 -90q41 -51 114 -105q73 -52 198 -87q125 -38 270 -38q182 0 314 41q132 40 216 122 q85 80 133 184q47 105 70 249q9 61 28 328q17 254 17 320v101q0 151 -68 217q-69 66 -206 66z" />
<glyph unicode="&#x4f1;" horiz-adv-x="1429" d="M790 1400q0 76 63.5 123.5t181.5 47.5q247 0 247 -171q0 -97 -63.5 -134.5t-183.5 -37.5q-106 0 -175.5 41t-69.5 131zM222 1400q0 76 64 123.5t181 47.5q247 0 247 -171q0 -97 -62.5 -134.5t-184.5 -37.5q-106 0 -175.5 41t-69.5 131zM1328 665q0 -403 -23 -564 q-18 -144 -58.5 -248.5t-113.5 -185.5t-186 -121t-269 -40q-125 0 -232 36t-169.5 89.5t-97.5 105t-35 89t24.5 70t67.5 32.5q31 0 71.5 -19t78.5 -43t90 -43t101 -19q128 0 181 64t53 181q-41 -16 -78.5 -28t-73 -19t-67.5 -9t-62 -2q-139 0 -238 77.5t-142.5 192 t-43.5 245.5q0 132 3.5 224t15.5 164t27 114t43.5 69.5t63.5 37t85 9.5q148 0 208 -51t60 -159l3 -379v-56t3.5 -44t9.5 -37.5t16 -24.5t28 -17.5t44 -4.5q71 0 88.5 39t17.5 142l3 382q0 73 24.5 117.5t83 68.5t159.5 24q61 0 105 -20.5t70 -52t39 -94t17.5 -126 t4.5 -166.5z" />
<glyph unicode="&#x4f2;" horiz-adv-x="1726" d="M681 2290q43 0 89 -23t81 -67.5t35 -94.5q0 -68 -68 -139l-198 -189q-4 -4 -16.5 -13t-18 -14.5t-17.5 -13.5t-21.5 -12.5t-21.5 -9t-23.5 -7t-25.5 -2.5q-49 0 -91.5 38.5t-42.5 88.5q0 11 3.5 24t9 29t12 26t17 30t14.5 30q61 119 104.5 187.5t91.5 102.5q42 29 87 29z M1302 2290q66 0 136 -56t70 -129q0 -68 -69 -139l-198 -189q-2 -2 -18 -15t-22.5 -17.5t-21.5 -14t-25 -14t-24.5 -8t-32.5 -3.5q-49 0 -91 38.5t-42 88.5q0 11 3.5 24t9 29t11.5 26t17 30t15 30q61 119 105 187.5t91 102.5q41 29 86 29zM1295 1616q-61 0 -106 -9 q-42 -10 -84 -36q-40 -27 -62 -81q-18 -54 -18 -133v-170q0 -50 -7 -80q-5 -31 -24 -62q-16 -31 -54 -45q-38 -13 -97 -13t-97 18q-38 16 -61 62q-20 45 -24 120v168q0 157 -72 209q-70 52 -209 52q-113 0 -187 -81q-76 -78 -76 -202v-101q0 -324 175 -483 q177 -160 551 -160q52 0 103 4v-31v-30l-2 -4q0 -115 -61 -177q-61 -63 -209 -63q-59 0 -119 18q-61 18 -105 42q-43 23 -92 43q-48 18 -82 18q-49 0 -80 -29q-29 -34 -29 -72t42 -90q41 -51 114 -105q73 -52 198 -87q125 -38 270 -38q182 0 314 41q132 40 216 122 q85 80 133 184q47 105 70 249q9 61 28 328q17 254 17 320v101q0 151 -68 217q-69 66 -206 66z" />
<glyph unicode="&#x4f3;" horiz-adv-x="1429" d="M544 1836q43 0 89 -23t81 -67.5t35 -94.5q0 -68 -68 -139l-198 -189q-4 -4 -16.5 -13t-18 -14.5t-17.5 -13.5t-21.5 -12.5t-21.5 -9t-23.5 -7t-25.5 -2.5q-49 0 -91.5 38.5t-42.5 88.5q0 11 3.5 24t9 29t12 26t17 30t14.5 30q61 119 104.5 187.5t91.5 102.5q42 29 87 29z M1165 1836q66 0 136 -56t70 -129q0 -68 -69 -139l-198 -189q-2 -2 -18 -15t-22.5 -17.5t-21.5 -14t-25 -14t-24.5 -8t-32.5 -3.5q-49 0 -91 38.5t-42 88.5q0 11 3.5 24t9 29t11.5 26t17 30t15 30q61 119 105 187.5t91 102.5q41 29 86 29zM1328 665q0 -403 -23 -564 q-18 -144 -58.5 -248.5t-113.5 -185.5t-186 -121t-269 -40q-125 0 -232 36t-169.5 89.5t-97.5 105t-35 89t24.5 70t67.5 32.5q31 0 71.5 -19t78.5 -43t90 -43t101 -19q128 0 181 64t53 181q-41 -16 -78.5 -28t-73 -19t-67.5 -9t-62 -2q-139 0 -238 77.5t-142.5 192 t-43.5 245.5q0 132 3.5 224t15.5 164t27 114t43.5 69.5t63.5 37t85 9.5q148 0 208 -51t60 -159l3 -379v-56t3.5 -44t9.5 -37.5t16 -24.5t28 -17.5t44 -4.5q71 0 88.5 39t17.5 142l3 382q0 73 24.5 117.5t83 68.5t159.5 24q61 0 105 -20.5t70 -52t39 -94t17.5 -126 t4.5 -166.5z" />
<glyph unicode="&#x4f8;" horiz-adv-x="2401" d="M1186 1937q0 76 63.5 123.5t181.5 47.5q247 0 247 -171q0 -97 -63.5 -134.5t-183.5 -37.5q-106 0 -175.5 41t-69.5 131zM618 1937q0 76 64 123.5t181 47.5q247 0 247 -171q0 -97 -62.5 -134.5t-184.5 -37.5q-106 0 -175.5 41t-69.5 131zM2259 1350q0 158 -71 209 q-67 52 -205 52q-266 0 -266 -283v-996q0 -188 63 -262q66 -72 203 -72q139 0 208 85q68 85 68 268v999zM714 818q66 0 117 -13q50 -11 92 -39q43 -29 66 -81q21 -54 22 -130q0 -87 -17 -139q-16 -49 -59 -74q-40 -27 -87 -34q-50 -9 -134 -9v519zM144 281q0 -144 78 -213 q78 -70 205 -70h418q153 0 283 42q130 40 224 115q97 73 149 187q54 110 54 247q0 167 -97 292q-96 122 -254 184q-158 61 -356 61h-134v132q0 191 -71 273q-70 80 -216 80t-215 -73q-68 -76 -68 -264v-993z" />
<glyph unicode="&#x4f9;" horiz-adv-x="1865" d="M992 1460q0 76 63.5 123.5t181.5 47.5q247 0 247 -171q0 -97 -63.5 -134.5t-183.5 -37.5q-106 0 -175.5 41t-69.5 131zM424 1460q0 76 64 123.5t181 47.5q247 0 247 -171q0 -97 -62.5 -134.5t-184.5 -37.5q-106 0 -175.5 41t-69.5 131zM1762 862q0 149 -72 205 q-70 54 -197 54q-108 0 -172 -73q-65 -73 -65 -194v-578q0 -148 52 -213q49 -65 187 -65q148 0 208 56q59 54 59 196v612zM610 276v286l10 -2q36 -7 63 -28q31 -18 47 -56q14 -36 14 -90q0 -61 -11 -94q-12 -36 -41 -54q-28 -18 -61 -24l-24 -2q3 28 3 64zM104 250 q0 -142 58 -198q40 -36 121 -50q26 -4 56 -4h5h26h21h238q108 0 198 28q90 32 157 82q66 50 102 130q38 78 38 171q0 115 -66 203q-68 87 -179 130q-109 42 -248 42h-21v70q0 120 -66 194q-63 72 -171 73h-15h-19q-83 0 -130 -33q-18 -9 -34 -23q-70 -54 -71 -203v-612z" />
<glyph unicode="&#x2000;" horiz-adv-x="1162" />
<glyph unicode="&#x2001;" horiz-adv-x="2324" />
<glyph unicode="&#x2002;" horiz-adv-x="1162" />
<glyph unicode="&#x2003;" horiz-adv-x="2324" />
<glyph unicode="&#x2004;" horiz-adv-x="774" />
<glyph unicode="&#x2005;" horiz-adv-x="581" />
<glyph unicode="&#x2006;" horiz-adv-x="387" />
<glyph unicode="&#x2007;" horiz-adv-x="387" />
<glyph unicode="&#x2008;" horiz-adv-x="290" />
<glyph unicode="&#x2009;" horiz-adv-x="464" />
<glyph unicode="&#x200a;" horiz-adv-x="129" />
<glyph unicode="&#x2010;" horiz-adv-x="924" d="M618 815q85 0 133.5 -17.5t70 -58t21.5 -108.5q0 -87 -58.5 -121t-188.5 -34h-322q-191 0 -191 165q0 174 207 174h328z" />
<glyph unicode="&#x2011;" horiz-adv-x="924" d="M618 815q85 0 133.5 -17.5t70 -58t21.5 -108.5q0 -87 -58.5 -121t-188.5 -34h-322q-191 0 -191 165q0 174 207 174h328z" />
<glyph unicode="&#x2012;" horiz-adv-x="924" d="M618 815q85 0 133.5 -17.5t70 -58t21.5 -108.5q0 -87 -58.5 -121t-188.5 -34h-322q-191 0 -191 165q0 174 207 174h328z" />
<glyph unicode="&#x2013;" horiz-adv-x="1530" d="M1159 815q85 0 134 -17.5t70.5 -58t21.5 -108.5q0 -58 -27 -92.5t-80 -48.5t-141 -14h-802q-191 0 -191 165q0 174 204 174h811z" />
<glyph unicode="&#x2014;" horiz-adv-x="1937" d="M1616 815q127 0 176.5 -41t49.5 -143q0 -87 -59 -121t-189 -34h-1309q-191 0 -191 165q0 174 205 174h1317z" />
<glyph unicode="&#x2018;" horiz-adv-x="753" d="M624 1065q0 -81 -66 -130t-188 -49q-287 0 -287 226q0 90 35 170t90 134t120 93t124 57.5t103 18.5q43 0 67.5 -23.5t24.5 -63.5q0 -47 -35 -66q-104 -50 -153.5 -87t-88.5 -102q108 0 181 -42t73 -136z" />
<glyph unicode="&#x2019;" horiz-adv-x="776" d="M125 1406q0 81 65.5 130t189.5 49q127 0 207 -52t80 -171q0 -66 -19 -126.5t-50.5 -107.5t-73 -87.5t-86.5 -68.5t-89.5 -48t-84.5 -29t-71 -9q-29 0 -48.5 12t-31.5 31.5t-12 43.5q0 52 36 68q106 51 155.5 88t87.5 98q-71 0 -125.5 16.5t-92 58t-37.5 104.5z" />
<glyph unicode="&#x201a;" horiz-adv-x="778" d="M125 162q0 78 67 129t190 51q287 0 287 -227q0 -146 -92 -260t-196.5 -163.5t-187.5 -49.5q-40 0 -64.5 25t-24.5 62q0 49 33 66q108 54 156.5 90.5t88.5 98.5q-111 0 -184 42t-73 136z" />
<glyph unicode="&#x201c;" horiz-adv-x="1414" d="M1295 1065q0 -81 -66.5 -130t-190.5 -49q-287 0 -287 226q0 146 92 260t196.5 163.5t187.5 49.5q40 0 65 -23.5t25 -63.5q0 -49 -34 -66q-105 -52 -154.5 -89.5t-90.5 -99.5q257 1 257 -178zM636 1065q0 -81 -66 -130t-188 -49q-288 0 -288 226q0 90 35 170t91 134 t120.5 93t123.5 57.5t104 18.5q43 0 67 -23.5t24 -63.5q0 -47 -35 -66q-103 -50 -152.5 -87t-89.5 -102q110 0 182 -42t72 -136z" />
<glyph unicode="&#x201d;" horiz-adv-x="1434" d="M122 1406q0 81 67 130t191 49q287 0 287 -223q0 -90 -35.5 -170t-91 -134.5t-120.5 -94.5t-124.5 -58.5t-104.5 -18.5q-40 0 -65 24.5t-25 62.5q0 52 34 68q105 51 154.5 88t90.5 98q-111 0 -184.5 42.5t-73.5 136.5zM782 1406q0 81 66 130t188 49q288 0 288 -223 q0 -111 -53 -206.5t-130.5 -152.5t-156 -87t-134.5 -30q-43 0 -67.5 24.5t-24.5 62.5q0 49 36 68q105 51 153.5 88t88.5 98q-108 0 -181 42.5t-73 136.5z" />
<glyph unicode="&#x201e;" horiz-adv-x="1414" d="M108 164q0 79 67.5 128.5t189.5 49.5q285 0 285 -225q0 -146 -90.5 -259.5t-197 -164.5t-185.5 -51q-40 0 -65 25t-25 62q0 51 33 69q105 51 155 87.5t90 98.5q-111 0 -184 43t-73 137zM768 164q0 79 65.5 128.5t188.5 49.5q288 0 288 -225q0 -110 -53 -205.5t-131 -152 t-156 -87t-134 -30.5q-42 0 -67 25t-25 62q0 51 36 69q106 51 154 87.5t88 98.5q-110 0 -182 43t-72 137z" />
<glyph unicode="&#x2026;" horiz-adv-x="2000" d="M120 162q0 81 67 130.5t190 49.5q257 0 257 -180q0 -99 -66.5 -138.5t-190.5 -39.5q-110 0 -183.5 42t-73.5 136zM751 162q0 81 67.5 130.5t190.5 49.5q256 0 256 -180q0 -99 -66 -138.5t-190 -39.5q-111 0 -184.5 42t-73.5 136zM1404 162q0 81 67 130.5t190 49.5 q256 0 256 -180q0 -99 -66 -138.5t-190 -39.5q-111 0 -184 42t-73 136z" />
<glyph unicode="&#x202f;" horiz-adv-x="464" />
<glyph unicode="&#x2039;" horiz-adv-x="1049" d="M659 16l-475 357q-90 63 -90 180q0 111 83 175l409 335q126 96 225 96q51 0 103 -54.5t52 -122.5q0 -45 -33.5 -86.5t-114.5 -104.5l-283 -231l287 -218q95 -66 120.5 -108.5t25.5 -96.5q0 -68 -51.5 -122.5t-101.5 -54.5q-76 0 -156 56z" />
<glyph unicode="&#x203a;" horiz-adv-x="1049" d="M389 16q-81 -56 -153 -56q-52 0 -104 54t-52 123q0 54 26 96.5t121 108.5l286 218l-280 231q-82 63 -115 104.5t-33 86.5q0 36 15 68.5t37.5 56t49.5 38t51 14.5q101 0 225 -96l411 -335q83 -63 82 -175q0 -117 -89 -180z" />
<glyph unicode="&#x205f;" horiz-adv-x="581" />
<glyph unicode="&#x20ac;" horiz-adv-x="1956" d="M921 940v-135h349q89 0 126.5 -26t37.5 -94q0 -70 -36 -94.5t-128 -24.5h-259q101 -137 272 -137q135 0 276.5 45t180.5 45q52 0 90 -41.5t38 -86.5q0 -113 -199 -254.5t-512 -141.5q-288 0 -505.5 153t-305.5 418h-94q-158 0 -158 115q0 61 33 92.5t125 31.5h47v135h-47 q-158 0 -158 116q0 61 33 92.5t125 31.5h90q85 266 304 420.5t511 154.5q313 0 512 -140.5t199 -250.5q0 -45 -37.5 -86.5t-90.5 -41.5q-40 0 -181 44t-276 44q-177 0 -278 -144h265q89 0 126.5 -26t37.5 -94q0 -70 -36 -95t-128 -25h-349z" />
<glyph unicode="&#x2122;" horiz-adv-x="1544" d="M818 1072q0 -104 -78.5 -165.5t-188.5 -61.5q-278 0 -277 213v558h-133q-139 0 -139 101q0 49 29.5 69.5t100.5 20.5h553q61 0 88 -22.5t27 -76.5q0 -52 -31.5 -72t-94.5 -20h-146v-556q0 -72 56.5 -72.5t56.5 72.5v329q0 88 40 130.5t137 42.5q87 0 133 -76l132 -178 q47 54 135 173q54 81 148 81q177 0 176 -170v-302q0 -110 -133 -110q-122 0 -123 115v172l-85 -125q-71 -106 -136 -106q-45 0 -79.5 26t-83.5 93l-84 112v-195z" />
<glyph unicode="&#x25fc;" horiz-adv-x="1117" d="M0 1119h1119v-1119h-1119v1119z" />
</font>
</defs>
</svg>
